G04*
G04 #@! TF.GenerationSoftware,Altium Limited,Altium Designer,22.10.1 (41)*
G04*
G04 Layer_Color=8388736*
%FSLAX25Y25*%
%MOIN*%
G70*
G04*
G04 #@! TF.SameCoordinates,26C55208-6D98-4306-9539-90E50C8D8735*
G04*
G04*
G04 #@! TF.FilePolarity,Negative*
G04*
G01*
G75*
%ADD47R,0.03543X0.03937*%
%ADD48O,0.02756X0.09055*%
%ADD49R,0.08268X0.16142*%
%ADD50R,0.08268X0.14173*%
%ADD51R,0.02362X0.09055*%
%ADD52O,0.02362X0.09055*%
%ADD53R,0.02953X0.03740*%
%ADD54R,0.04331X0.05118*%
%ADD55R,0.05118X0.04331*%
%ADD56R,0.06890X0.05118*%
%ADD57C,0.07874*%
%ADD58R,0.03937X0.03543*%
%ADD59R,0.03543X0.04331*%
%ADD60O,0.05512X0.02756*%
%ADD61R,0.02756X0.05118*%
%ADD62R,0.09291X0.08898*%
%ADD63O,0.02756X0.05512*%
%ADD64R,0.08898X0.09291*%
%ADD65R,0.05118X0.06890*%
%ADD66R,0.09055X0.07087*%
%ADD67R,0.05118X0.02756*%
%ADD68R,0.08268X0.09055*%
%ADD69R,0.05512X0.14961*%
%ADD70R,0.04331X0.03543*%
%ADD71R,0.05315X0.04724*%
%ADD72R,0.06890X0.14882*%
%ADD73O,0.01968X0.05709*%
%ADD74R,0.06299X0.03937*%
%ADD75R,0.03937X0.06299*%
%ADD76R,0.15367X0.15367*%
%ADD77R,0.05315X0.07480*%
%ADD78O,0.07480X0.06693*%
%ADD79R,0.03347X0.03740*%
%ADD80C,0.03543*%
%ADD81C,0.09055*%
%ADD82C,0.24410*%
%ADD83C,0.01181*%
%ADD84C,0.11811*%
%ADD85O,0.10630X0.15354*%
%ADD86R,0.10630X0.15354*%
%ADD87O,0.05906X0.10236*%
%ADD88R,0.05906X0.10236*%
%ADD89C,0.06693*%
%ADD90C,0.07480*%
D47*
X10236Y151969D02*
D03*
Y158661D02*
D03*
X51968Y28543D02*
D03*
Y35236D02*
D03*
X159449Y123425D02*
D03*
Y116732D02*
D03*
X261811Y191535D02*
D03*
Y198228D02*
D03*
X234252D02*
D03*
Y191535D02*
D03*
X328740Y45866D02*
D03*
Y52559D02*
D03*
X253937Y122638D02*
D03*
Y129331D02*
D03*
X246063D02*
D03*
Y122638D02*
D03*
X236221Y136417D02*
D03*
Y143110D02*
D03*
X224410Y136417D02*
D03*
Y143110D02*
D03*
X246063Y111614D02*
D03*
Y104921D02*
D03*
X65335Y50000D02*
D03*
Y43307D02*
D03*
X7874Y18898D02*
D03*
Y12205D02*
D03*
X28346Y28543D02*
D03*
Y35236D02*
D03*
X40157Y28543D02*
D03*
Y35236D02*
D03*
X33465Y49803D02*
D03*
Y56496D02*
D03*
X131890Y190354D02*
D03*
Y183661D02*
D03*
X124016Y190354D02*
D03*
Y183661D02*
D03*
X108268Y190354D02*
D03*
Y183661D02*
D03*
X100394Y190354D02*
D03*
Y183661D02*
D03*
X124016Y176575D02*
D03*
Y169882D02*
D03*
X100394Y176575D02*
D03*
Y169882D02*
D03*
X303150Y117520D02*
D03*
Y110827D02*
D03*
X295276Y117520D02*
D03*
Y110827D02*
D03*
X261811Y184449D02*
D03*
Y177756D02*
D03*
X76772Y169882D02*
D03*
Y176575D02*
D03*
X84646Y183661D02*
D03*
Y190354D02*
D03*
X76772Y183661D02*
D03*
Y190354D02*
D03*
D48*
X132697Y131378D02*
D03*
X127697D02*
D03*
X122697D02*
D03*
X117697D02*
D03*
X132697Y108780D02*
D03*
X127697D02*
D03*
X122697D02*
D03*
X117697D02*
D03*
D49*
X336417Y9843D02*
D03*
X301378D02*
D03*
D50*
X336417Y28150D02*
D03*
X301378D02*
D03*
D51*
X312598Y30118D02*
D03*
D52*
X315748D02*
D03*
X318898D02*
D03*
X322047D02*
D03*
X325197D02*
D03*
D53*
X248425Y96457D02*
D03*
X239764D02*
D03*
X257480Y206693D02*
D03*
X266142D02*
D03*
X238583D02*
D03*
X229921D02*
D03*
X243701D02*
D03*
X252362D02*
D03*
X224803Y206693D02*
D03*
X216142D02*
D03*
X155118Y131890D02*
D03*
X163779D02*
D03*
X150000Y131890D02*
D03*
X141339D02*
D03*
X37008Y155315D02*
D03*
X45669D02*
D03*
D54*
X101575Y137795D02*
D03*
X109449D02*
D03*
Y129921D02*
D03*
X101575D02*
D03*
X151575Y124016D02*
D03*
X143701D02*
D03*
X226378Y198819D02*
D03*
X218504D02*
D03*
X246063D02*
D03*
X253937D02*
D03*
X320866Y110236D02*
D03*
X312992D02*
D03*
X275590Y19685D02*
D03*
X283465D02*
D03*
X224410Y96457D02*
D03*
X232283D02*
D03*
X68898Y88583D02*
D03*
X76772D02*
D03*
X283465Y51181D02*
D03*
X275590D02*
D03*
X92520Y59055D02*
D03*
X100394D02*
D03*
X92520Y66929D02*
D03*
X100394D02*
D03*
X92520Y74803D02*
D03*
X100394D02*
D03*
Y82677D02*
D03*
X92520D02*
D03*
X100394Y43307D02*
D03*
X92520D02*
D03*
X61024Y96457D02*
D03*
X53150D02*
D03*
X72835Y43307D02*
D03*
X80709D02*
D03*
X72835Y33465D02*
D03*
X64961D02*
D03*
X320866Y118110D02*
D03*
X312992D02*
D03*
X220472Y273622D02*
D03*
X228346D02*
D03*
X59055Y232283D02*
D03*
X51181D02*
D03*
X17457Y259842D02*
D03*
X9583D02*
D03*
X17457Y283465D02*
D03*
X9583D02*
D03*
D55*
X109449Y110236D02*
D03*
Y118110D02*
D03*
X299213Y86614D02*
D03*
Y78740D02*
D03*
X336614Y53150D02*
D03*
Y45276D02*
D03*
X305118D02*
D03*
Y53150D02*
D03*
X289370Y31496D02*
D03*
Y39370D02*
D03*
X214567Y104331D02*
D03*
Y112205D02*
D03*
X206693D02*
D03*
Y104331D02*
D03*
X43307Y125984D02*
D03*
Y133858D02*
D03*
X19685Y114173D02*
D03*
Y122047D02*
D03*
X33465Y70866D02*
D03*
Y62992D02*
D03*
X131890Y177165D02*
D03*
Y169291D02*
D03*
X108268Y177165D02*
D03*
Y169291D02*
D03*
X297244Y169291D02*
D03*
Y161417D02*
D03*
X320866Y173228D02*
D03*
Y181102D02*
D03*
X253937Y277559D02*
D03*
Y285433D02*
D03*
X17457Y251969D02*
D03*
Y244094D02*
D03*
X33205D02*
D03*
Y251969D02*
D03*
X17457Y275590D02*
D03*
Y267717D02*
D03*
X253937Y39370D02*
D03*
Y31496D02*
D03*
X84646Y169291D02*
D03*
Y177165D02*
D03*
D56*
X99606Y119291D02*
D03*
Y109055D02*
D03*
X279528Y30315D02*
D03*
Y40551D02*
D03*
X53150Y132677D02*
D03*
Y142913D02*
D03*
X41339Y72047D02*
D03*
Y61811D02*
D03*
X287402Y162598D02*
D03*
Y152362D02*
D03*
X246063Y285433D02*
D03*
Y275197D02*
D03*
X41079Y242913D02*
D03*
Y253150D02*
D03*
D57*
X72835Y277559D02*
D03*
X347244Y6693D02*
D03*
Y277559D02*
D03*
D58*
X144291Y116142D02*
D03*
X150984D02*
D03*
X225787Y190945D02*
D03*
X219094D02*
D03*
X246654Y190945D02*
D03*
X253346D02*
D03*
X341929Y70866D02*
D03*
X335236D02*
D03*
X34843Y137795D02*
D03*
X28150D02*
D03*
X12992D02*
D03*
X19685D02*
D03*
X12992Y130118D02*
D03*
X19685D02*
D03*
X34055Y82677D02*
D03*
X40748D02*
D03*
X34055Y90551D02*
D03*
X40748D02*
D03*
X99803D02*
D03*
X93110D02*
D03*
X93110Y51181D02*
D03*
X99803D02*
D03*
X99803Y33465D02*
D03*
X93110D02*
D03*
X86024D02*
D03*
X79331D02*
D03*
X202165Y190945D02*
D03*
X195472D02*
D03*
X178543D02*
D03*
X171850D02*
D03*
X154921Y190945D02*
D03*
X148228D02*
D03*
X341929Y110236D02*
D03*
X335236D02*
D03*
X327559Y165157D02*
D03*
X320866D02*
D03*
X320866Y157480D02*
D03*
X327559D02*
D03*
X312402D02*
D03*
X305709D02*
D03*
X202165Y242126D02*
D03*
X195472D02*
D03*
X178543D02*
D03*
X171850D02*
D03*
X154921Y242126D02*
D03*
X148228D02*
D03*
X124606Y242126D02*
D03*
X131299D02*
D03*
X100984D02*
D03*
X107677D02*
D03*
X77362D02*
D03*
X84055D02*
D03*
D59*
X222638Y174803D02*
D03*
X230118D02*
D03*
X226378Y183465D02*
D03*
X198819Y174803D02*
D03*
X195079Y183465D02*
D03*
X202559D02*
D03*
X175197Y174803D02*
D03*
X171457Y183465D02*
D03*
X178937D02*
D03*
X151575Y174803D02*
D03*
X147835Y183465D02*
D03*
X155315D02*
D03*
X338583Y78347D02*
D03*
X334842Y87008D02*
D03*
X342323D02*
D03*
X334842Y94095D02*
D03*
X342323D02*
D03*
X338583Y102756D02*
D03*
X147835Y100000D02*
D03*
X155315D02*
D03*
X151575Y108661D02*
D03*
D60*
X306496Y102146D02*
D03*
Y97146D02*
D03*
Y92146D02*
D03*
Y87146D02*
D03*
X327362Y102146D02*
D03*
Y97146D02*
D03*
Y92146D02*
D03*
Y87146D02*
D03*
X306496Y82146D02*
D03*
Y77146D02*
D03*
Y72146D02*
D03*
Y67146D02*
D03*
X327362Y82146D02*
D03*
Y77146D02*
D03*
Y72146D02*
D03*
Y67146D02*
D03*
D61*
X313583Y44685D02*
D03*
X317323D02*
D03*
X321063D02*
D03*
X317323Y53740D02*
D03*
X321063D02*
D03*
X313583D02*
D03*
D62*
X265748Y25787D02*
D03*
Y45079D02*
D03*
D63*
X237815Y126575D02*
D03*
X232815D02*
D03*
X227815D02*
D03*
X222815D02*
D03*
X237815Y105709D02*
D03*
X232815D02*
D03*
X227815D02*
D03*
X222815D02*
D03*
X80335Y81299D02*
D03*
X75335D02*
D03*
X70335D02*
D03*
X65335D02*
D03*
X80335Y60433D02*
D03*
X75335D02*
D03*
X70335D02*
D03*
X65335D02*
D03*
X12382Y215748D02*
D03*
X17382D02*
D03*
X22382D02*
D03*
X27382D02*
D03*
X12382Y236614D02*
D03*
X17382D02*
D03*
X22382D02*
D03*
X27382D02*
D03*
D64*
X222244Y82677D02*
D03*
X202953D02*
D03*
D65*
X243307D02*
D03*
X233071D02*
D03*
X67716Y96457D02*
D03*
X77953D02*
D03*
D66*
X252756Y82677D02*
D03*
X270866D02*
D03*
D67*
X36024Y122441D02*
D03*
Y126181D02*
D03*
Y129921D02*
D03*
X26969D02*
D03*
Y126181D02*
D03*
Y122441D02*
D03*
X304528Y172835D02*
D03*
Y169095D02*
D03*
Y165354D02*
D03*
X313583D02*
D03*
Y169095D02*
D03*
Y172835D02*
D03*
D68*
X53150Y109055D02*
D03*
Y123228D02*
D03*
X64961Y109055D02*
D03*
Y123228D02*
D03*
X275590Y172047D02*
D03*
Y186221D02*
D03*
X287402Y172047D02*
D03*
Y186221D02*
D03*
D69*
X43701Y110236D02*
D03*
X31102D02*
D03*
X309449Y185039D02*
D03*
X296850D02*
D03*
D70*
X17323Y159055D02*
D03*
Y151575D02*
D03*
X25984Y155315D02*
D03*
D71*
X51181Y20472D02*
D03*
Y10630D02*
D03*
X39370D02*
D03*
Y20472D02*
D03*
X27559D02*
D03*
Y10630D02*
D03*
X15748D02*
D03*
Y20472D02*
D03*
D72*
X210078Y163385D02*
D03*
X187598D02*
D03*
X127559Y88583D02*
D03*
X150039D02*
D03*
D73*
X8760Y55610D02*
D03*
X11319D02*
D03*
X13878D02*
D03*
X16437D02*
D03*
X18996D02*
D03*
X21555D02*
D03*
X24114D02*
D03*
X26673D02*
D03*
X8760Y78248D02*
D03*
X11319D02*
D03*
X13878D02*
D03*
X16437D02*
D03*
X18996D02*
D03*
X21555D02*
D03*
X24114D02*
D03*
X26673D02*
D03*
D74*
X264764Y250433D02*
D03*
Y255433D02*
D03*
Y260433D02*
D03*
Y265433D02*
D03*
Y285433D02*
D03*
Y280433D02*
D03*
Y275433D02*
D03*
Y270433D02*
D03*
Y220433D02*
D03*
Y225433D02*
D03*
Y230433D02*
D03*
Y235433D02*
D03*
Y240433D02*
D03*
Y245433D02*
D03*
X333661Y220433D02*
D03*
Y225433D02*
D03*
Y230433D02*
D03*
Y235433D02*
D03*
Y240433D02*
D03*
Y245433D02*
D03*
Y250433D02*
D03*
Y255433D02*
D03*
Y260433D02*
D03*
Y265433D02*
D03*
Y270433D02*
D03*
Y275433D02*
D03*
Y280433D02*
D03*
Y285433D02*
D03*
D75*
X276713Y215512D02*
D03*
X281713D02*
D03*
X286713D02*
D03*
X291713D02*
D03*
X316713D02*
D03*
X296713D02*
D03*
X321713D02*
D03*
X306713D02*
D03*
X301713D02*
D03*
X311713D02*
D03*
D76*
X293307Y255039D02*
D03*
D77*
X236221Y284646D02*
D03*
Y274409D02*
D03*
X51181Y253150D02*
D03*
Y242913D02*
D03*
D78*
X193819Y198819D02*
D03*
X203819D02*
D03*
X193819Y234252D02*
D03*
X203819D02*
D03*
X170197Y198819D02*
D03*
X180197D02*
D03*
X170197Y234252D02*
D03*
X180197D02*
D03*
X146575Y198819D02*
D03*
X156575D02*
D03*
X146575Y234252D02*
D03*
X156575D02*
D03*
X132953Y234252D02*
D03*
X122953D02*
D03*
X132953Y198819D02*
D03*
X122953D02*
D03*
X109331Y234252D02*
D03*
X99331D02*
D03*
X109331Y198819D02*
D03*
X99331D02*
D03*
X85709Y234252D02*
D03*
X75709D02*
D03*
X85709Y198819D02*
D03*
X75709D02*
D03*
D79*
X35531Y223524D02*
D03*
Y228839D02*
D03*
X39665Y223524D02*
D03*
Y228839D02*
D03*
D80*
X327559Y17717D02*
D03*
X310236D02*
D03*
D81*
X17717Y92520D02*
D03*
X279528Y62992D02*
D03*
Y7874D02*
D03*
D82*
X177165Y98425D02*
D03*
Y283465D02*
D03*
D83*
X9252Y291142D02*
D03*
D84*
X235039Y9843D02*
D03*
X119291D02*
D03*
D85*
X235039Y60236D02*
D03*
X218504D02*
D03*
X201969D02*
D03*
X185433D02*
D03*
X168898D02*
D03*
X152362D02*
D03*
X135827D02*
D03*
X119291D02*
D03*
X218504Y38583D02*
D03*
X201969D02*
D03*
X185433D02*
D03*
X168898D02*
D03*
X152362D02*
D03*
X135827D02*
D03*
X119291D02*
D03*
D86*
X235039D02*
D03*
D87*
X258937Y139764D02*
D03*
D88*
X248937D02*
D03*
D89*
X16535Y187008D02*
D03*
X46457D02*
D03*
D90*
X91535Y11811D02*
D03*
X73819D02*
D03*
X96457Y21654D02*
D03*
X68898D02*
D03*
M02*
