G04*
G04 #@! TF.GenerationSoftware,Altium Limited,Altium Designer,22.10.1 (41)*
G04*
G04 Layer_Color=32896*
%FSLAX25Y25*%
%MOIN*%
G70*
G04*
G04 #@! TF.SameCoordinates,26C55208-6D98-4306-9539-90E50C8D8735*
G04*
G04*
G04 #@! TF.FilePolarity,Positive*
G04*
G01*
G75*
%ADD11C,0.01000*%
G36*
X191944Y138488D02*
X192161D01*
Y131349D01*
X191944D01*
Y131133D01*
X190646D01*
Y133296D01*
X188050D01*
Y133080D01*
X187618D01*
Y132647D01*
X187402D01*
Y132431D01*
X187185D01*
Y132214D01*
X186969D01*
Y131782D01*
X186753D01*
Y131565D01*
X186536D01*
Y131349D01*
X186320D01*
Y131133D01*
X184806D01*
Y131349D01*
X185022D01*
Y131565D01*
X185238D01*
Y131998D01*
X185455D01*
Y132214D01*
X185671D01*
Y132431D01*
X185887D01*
Y132863D01*
X186104D01*
Y133080D01*
X186320D01*
Y133296D01*
X186536D01*
Y133512D01*
X186753D01*
Y133729D01*
X186969D01*
Y134161D01*
X186536D01*
Y134594D01*
X186320D01*
Y134810D01*
X186104D01*
Y135026D01*
X185887D01*
Y135459D01*
X185671D01*
Y135675D01*
X185455D01*
Y136108D01*
X185238D01*
Y136541D01*
X186536D01*
Y136324D01*
X186753D01*
Y136108D01*
X186969D01*
Y135675D01*
X187185D01*
Y135459D01*
X187402D01*
Y135243D01*
X187618D01*
Y134810D01*
X187834D01*
Y134594D01*
X188050D01*
Y134377D01*
X190646D01*
Y136757D01*
Y136973D01*
Y138488D01*
X190863D01*
Y138704D01*
X191295D01*
Y138488D01*
X191512D01*
Y138704D01*
X191944D01*
Y138488D01*
D02*
G37*
G36*
X161660Y136108D02*
X161443D01*
Y135892D01*
X161227D01*
Y135459D01*
X161011D01*
Y135026D01*
X160794D01*
Y134810D01*
X160578D01*
Y134161D01*
X160362D01*
Y133945D01*
X160145D01*
Y133512D01*
X159929D01*
Y133080D01*
X159713D01*
Y132863D01*
X159496D01*
Y132431D01*
X159280D01*
Y131998D01*
X159064D01*
Y131782D01*
X158847D01*
Y131349D01*
X158415D01*
Y130700D01*
X158631D01*
Y130484D01*
X158847D01*
Y130051D01*
X159929D01*
Y129835D01*
X160145D01*
Y128970D01*
X158198D01*
Y129186D01*
X157982D01*
Y129402D01*
X157766D01*
Y129618D01*
X157550D01*
Y130051D01*
X157333D01*
Y130267D01*
X157117D01*
Y130700D01*
X156901D01*
Y131133D01*
X156684D01*
Y131349D01*
X156468D01*
Y131782D01*
X156252D01*
Y132214D01*
X156035D01*
Y132647D01*
X155819D01*
Y133080D01*
X155603D01*
Y133296D01*
X155386D01*
Y133729D01*
X155170D01*
Y134161D01*
X154954D01*
Y134377D01*
X154737D01*
Y135026D01*
X154521D01*
Y135243D01*
X154305D01*
Y135675D01*
X154088D01*
Y136108D01*
X153872D01*
Y136541D01*
X155170D01*
Y136324D01*
X155386D01*
Y135892D01*
X155603D01*
Y135675D01*
X155819D01*
Y135243D01*
X156035D01*
Y134810D01*
X156252D01*
Y134594D01*
X156468D01*
Y134161D01*
X156684D01*
Y133729D01*
X156901D01*
Y133512D01*
X157117D01*
Y133080D01*
X157333D01*
Y132647D01*
X157550D01*
Y132431D01*
X157982D01*
Y132863D01*
X158198D01*
Y133296D01*
X158415D01*
Y133512D01*
X158631D01*
Y133945D01*
X158847D01*
Y134377D01*
X159064D01*
Y134594D01*
X159280D01*
Y135026D01*
X159496D01*
Y135459D01*
X159713D01*
Y135675D01*
X159929D01*
Y136324D01*
X160145D01*
Y136541D01*
X161660D01*
Y136108D01*
D02*
G37*
G36*
X153439D02*
X153223D01*
Y135892D01*
X153007D01*
Y135243D01*
X152790D01*
Y135026D01*
X152574D01*
Y134594D01*
X152358D01*
Y134161D01*
X152142D01*
Y133945D01*
X151925D01*
Y133512D01*
X151709D01*
Y133080D01*
X151493D01*
Y132863D01*
X151276D01*
Y132431D01*
X151060D01*
Y131998D01*
X150844D01*
Y131565D01*
X150627D01*
Y131349D01*
X150195D01*
Y130700D01*
X150411D01*
Y130484D01*
X150627D01*
Y130051D01*
X151709D01*
Y129835D01*
X151925D01*
Y128970D01*
X151709D01*
Y128753D01*
X151493D01*
Y128970D01*
X149978D01*
Y129186D01*
X149762D01*
Y129402D01*
X149546D01*
Y129618D01*
X149329D01*
Y130051D01*
X149113D01*
Y130267D01*
X148897D01*
Y130700D01*
X148680D01*
Y131133D01*
X148464D01*
Y131565D01*
X148248D01*
Y131998D01*
X148031D01*
Y132214D01*
X147815D01*
Y132647D01*
X147599D01*
Y133080D01*
X147382D01*
Y133296D01*
X147166D01*
Y133729D01*
X146950D01*
Y134161D01*
X146734D01*
Y134594D01*
X146517D01*
Y135026D01*
X146301D01*
Y135243D01*
X146085D01*
Y135675D01*
X145868D01*
Y136108D01*
X145652D01*
Y136541D01*
X146950D01*
Y136324D01*
X147166D01*
Y136108D01*
X147382D01*
Y135675D01*
X147599D01*
Y135243D01*
X147815D01*
Y134810D01*
X148031D01*
Y134594D01*
X148248D01*
Y134161D01*
X148464D01*
Y133729D01*
X148680D01*
Y133512D01*
X148897D01*
Y133080D01*
X149113D01*
Y132647D01*
X149329D01*
Y132431D01*
X149762D01*
Y132863D01*
X149978D01*
Y133080D01*
X150195D01*
Y133512D01*
X150411D01*
Y133945D01*
X150627D01*
Y134377D01*
X150844D01*
Y134594D01*
X151060D01*
Y135026D01*
X151276D01*
Y135459D01*
X151493D01*
Y135675D01*
X151709D01*
Y135892D01*
Y136108D01*
X151925D01*
Y136541D01*
X153439D01*
Y136108D01*
D02*
G37*
G36*
X182859Y136324D02*
X183291D01*
Y136108D01*
X183508D01*
Y135892D01*
X183724D01*
Y135459D01*
X183940D01*
Y131133D01*
X182643D01*
Y133080D01*
Y133296D01*
Y134810D01*
X182426D01*
Y135243D01*
X181994D01*
Y135459D01*
X178749D01*
Y135675D01*
X178533D01*
Y136324D01*
X178749D01*
Y136541D01*
X182859D01*
Y136324D01*
D02*
G37*
G36*
X176802D02*
X177235D01*
Y136108D01*
X177451D01*
Y135892D01*
X177667D01*
Y135675D01*
X177884D01*
Y131998D01*
X177667D01*
Y131565D01*
X177451D01*
Y131349D01*
X176802D01*
Y131133D01*
X171178D01*
Y131349D01*
X170961D01*
Y131998D01*
X171178D01*
Y132214D01*
X176153D01*
Y132431D01*
X176369D01*
Y132647D01*
X176586D01*
Y133296D01*
X176369D01*
Y133512D01*
X170961D01*
Y135892D01*
X171178D01*
Y136108D01*
X171394D01*
Y136324D01*
X171610D01*
Y136541D01*
X176802D01*
Y136324D01*
D02*
G37*
G36*
X169447Y138488D02*
X169880D01*
Y132863D01*
X169663D01*
Y131782D01*
X169447D01*
Y131565D01*
X169231D01*
Y131349D01*
X168582D01*
Y131133D01*
X163390D01*
Y131349D01*
X162741D01*
Y131565D01*
X162525D01*
Y131782D01*
X162309D01*
Y133080D01*
X162092D01*
Y134810D01*
X162309D01*
Y135675D01*
X162525D01*
Y135892D01*
X162741D01*
Y136108D01*
X162958D01*
Y136324D01*
X163174D01*
Y136541D01*
X168366D01*
Y138488D01*
X168798D01*
Y138704D01*
X169447D01*
Y138488D01*
D02*
G37*
G36*
X205789Y139785D02*
X206221D01*
Y139569D01*
X206654D01*
Y139353D01*
X207087D01*
Y139136D01*
X207303D01*
Y138920D01*
X207519D01*
Y138704D01*
X207736D01*
Y138488D01*
X207952D01*
Y138271D01*
X208168D01*
Y138055D01*
X208384D01*
Y137838D01*
X208601D01*
Y137622D01*
X208817D01*
Y137190D01*
X209033D01*
Y136757D01*
X209250D01*
Y136108D01*
X209466D01*
Y133080D01*
X209250D01*
Y132647D01*
X209033D01*
Y131998D01*
X208817D01*
Y131782D01*
X208601D01*
Y131349D01*
X208384D01*
Y131133D01*
X208168D01*
Y130916D01*
X207952D01*
Y130700D01*
X207736D01*
Y130484D01*
X207519D01*
Y130267D01*
X207303D01*
Y130051D01*
X206870D01*
Y129835D01*
X206654D01*
Y129618D01*
X206005D01*
Y129402D01*
X205572D01*
Y130484D01*
X205789D01*
Y130700D01*
X206005D01*
Y130484D01*
X206221D01*
Y130700D01*
X206870D01*
Y130916D01*
X207087D01*
Y131133D01*
X207303D01*
Y131565D01*
X207519D01*
Y131782D01*
X207736D01*
Y131998D01*
X207952D01*
Y132431D01*
X207519D01*
Y132214D01*
X207303D01*
Y131998D01*
X207087D01*
Y131782D01*
X206870D01*
Y131565D01*
X206654D01*
Y131349D01*
X205572D01*
Y131565D01*
X205356D01*
Y132214D01*
X206005D01*
Y132431D01*
X206438D01*
Y132647D01*
X206870D01*
Y132863D01*
X207087D01*
Y133080D01*
X207303D01*
Y133729D01*
X207519D01*
Y134594D01*
X207736D01*
Y135243D01*
X207519D01*
Y135675D01*
X207303D01*
Y136108D01*
X207087D01*
Y137838D01*
X206221D01*
Y137622D01*
X205789D01*
Y137406D01*
X204491D01*
Y137622D01*
X203625D01*
Y137406D01*
X202328D01*
Y137622D01*
X201895D01*
Y137838D01*
X201030D01*
Y136108D01*
X200813D01*
Y135892D01*
X200597D01*
Y135243D01*
X200381D01*
Y134377D01*
X200597D01*
Y133729D01*
X200813D01*
Y133296D01*
X201030D01*
Y132863D01*
X201246D01*
Y132647D01*
X201679D01*
Y132431D01*
X202111D01*
Y132214D01*
X202760D01*
Y131133D01*
X202544D01*
Y129402D01*
X202111D01*
Y129618D01*
X201462D01*
Y129835D01*
X201246D01*
Y130051D01*
X200813D01*
Y130267D01*
X200597D01*
Y130484D01*
X200381D01*
Y130700D01*
X200164D01*
Y130916D01*
X199948D01*
Y131133D01*
X199732D01*
Y131349D01*
X199515D01*
Y131565D01*
X199299D01*
Y131998D01*
X199083D01*
Y132431D01*
X198866D01*
Y133080D01*
X198650D01*
Y136324D01*
X198866D01*
Y136541D01*
X199083D01*
Y137190D01*
X199299D01*
Y137622D01*
X199515D01*
Y137838D01*
X199732D01*
Y138271D01*
X199948D01*
Y138488D01*
X200164D01*
Y138704D01*
X200381D01*
Y138920D01*
X200813D01*
Y139136D01*
X201030D01*
Y139353D01*
X201462D01*
Y139569D01*
X201895D01*
Y139785D01*
X202328D01*
Y140002D01*
X205789D01*
Y139785D01*
D02*
G37*
G36*
X193675Y139136D02*
X193891D01*
Y138488D01*
X194107D01*
Y137622D01*
X194324D01*
Y137190D01*
X194540D01*
Y136324D01*
X194756D01*
Y135675D01*
X194973D01*
Y135243D01*
X195189D01*
Y134810D01*
Y134594D01*
Y134377D01*
X195405D01*
Y133729D01*
X195622D01*
Y133080D01*
X195838D01*
Y132431D01*
X196054D01*
Y131782D01*
X196271D01*
Y131133D01*
X196487D01*
Y130267D01*
X196703D01*
Y129618D01*
X195838D01*
Y130051D01*
X195622D01*
Y130916D01*
X195405D01*
Y131349D01*
X195189D01*
Y132214D01*
X194973D01*
Y132863D01*
X194756D01*
Y133512D01*
X194540D01*
Y134161D01*
X194324D01*
Y134810D01*
X194107D01*
Y135459D01*
X193891D01*
Y136324D01*
X193675D01*
Y136757D01*
X193458D01*
Y137622D01*
X193242D01*
Y138271D01*
X193026D01*
Y138704D01*
X192810D01*
Y139353D01*
X193675D01*
Y139136D01*
D02*
G37*
G36*
X180263Y227827D02*
X187185D01*
Y227611D01*
X192593D01*
Y227395D01*
X198866D01*
Y227178D01*
X206221D01*
Y226962D01*
X210764D01*
Y226746D01*
X215090D01*
Y226529D01*
X215307D01*
Y226313D01*
X215739D01*
Y226097D01*
X215956D01*
Y225880D01*
X216172D01*
Y225664D01*
X216388D01*
Y225448D01*
X216821D01*
Y225231D01*
X217037D01*
Y225015D01*
X217254D01*
Y224799D01*
X217686D01*
Y224583D01*
X217903D01*
Y224366D01*
X218119D01*
Y224150D01*
X218335D01*
Y223717D01*
X218551D01*
Y223285D01*
X218768D01*
Y222636D01*
X218984D01*
Y222203D01*
X219200D01*
Y221770D01*
X219417D01*
Y221121D01*
X219633D01*
Y220472D01*
X219849D01*
Y220040D01*
X220066D01*
Y219391D01*
X220282D01*
Y219175D01*
X220498D01*
Y218526D01*
X220715D01*
Y217877D01*
X220931D01*
Y217444D01*
X221147D01*
Y216795D01*
X221364D01*
Y216362D01*
X221580D01*
Y215930D01*
X221796D01*
Y215281D01*
X222013D01*
Y214848D01*
X222229D01*
Y214416D01*
X222445D01*
Y213767D01*
X222662D01*
Y213334D01*
X222878D01*
Y212685D01*
X223094D01*
Y212252D01*
X223311D01*
Y211820D01*
X223527D01*
Y211171D01*
X223743D01*
Y210738D01*
X223959D01*
Y210089D01*
X224176D01*
Y209440D01*
X224392D01*
Y209224D01*
X224608D01*
Y208575D01*
X224825D01*
Y207926D01*
X225041D01*
Y207493D01*
X225257D01*
Y206844D01*
X225474D01*
Y206412D01*
X225690D01*
Y205979D01*
X225906D01*
Y205330D01*
X226123D01*
Y204897D01*
X226339D01*
Y204248D01*
X226555D01*
Y203816D01*
X226772D01*
Y203383D01*
X226988D01*
Y202734D01*
X227204D01*
Y202302D01*
X227421D01*
Y201653D01*
X227637D01*
Y201004D01*
X227853D01*
Y200787D01*
X228070D01*
Y200138D01*
X242130D01*
Y198840D01*
X242347D01*
Y197543D01*
X242563D01*
Y195596D01*
X242779D01*
Y194298D01*
X242996D01*
Y192567D01*
X243212D01*
Y191918D01*
X230449D01*
Y191486D01*
X230665D01*
Y191269D01*
X230882D01*
Y190837D01*
X231098D01*
Y190404D01*
X231314D01*
Y190188D01*
X231531D01*
Y189755D01*
X231747D01*
Y189322D01*
X231963D01*
Y189106D01*
X232180D01*
Y188673D01*
X232396D01*
Y188457D01*
X232612D01*
Y188025D01*
X232829D01*
Y187592D01*
X233045D01*
Y187376D01*
X233261D01*
Y186943D01*
X233478D01*
Y186510D01*
X233694D01*
Y186294D01*
X233910D01*
Y185861D01*
X234126D01*
Y185429D01*
X234343D01*
Y185212D01*
X234559D01*
Y184780D01*
X234775D01*
Y184564D01*
X234992D01*
Y183265D01*
X235208D01*
Y182184D01*
X235424D01*
Y181102D01*
X235641D01*
Y179588D01*
X235857D01*
Y178723D01*
X236073D01*
Y177425D01*
X236290D01*
Y175911D01*
X236506D01*
Y168340D01*
X236722D01*
Y165311D01*
X236506D01*
Y160552D01*
X236290D01*
Y152765D01*
X236073D01*
Y145410D01*
X235857D01*
Y140651D01*
X235641D01*
Y132431D01*
X235424D01*
Y128970D01*
X228070D01*
Y128753D01*
X221147D01*
Y141516D01*
X220931D01*
Y141732D01*
X134187D01*
Y141516D01*
X133971D01*
Y128753D01*
X127049D01*
Y128970D01*
X119694D01*
Y132647D01*
X119477D01*
Y140651D01*
X119261D01*
Y145626D01*
X119045D01*
Y152981D01*
X118828D01*
Y160768D01*
X118612D01*
Y165311D01*
X118396D01*
Y168556D01*
X118612D01*
Y175911D01*
X118828D01*
Y177425D01*
X119045D01*
Y178723D01*
X119261D01*
Y179588D01*
X119477D01*
Y181102D01*
X119694D01*
Y182184D01*
X119910D01*
Y183265D01*
X120126D01*
Y184564D01*
X120343D01*
Y184780D01*
X120559D01*
Y185212D01*
X120775D01*
Y185645D01*
X120992D01*
Y185861D01*
X121208D01*
Y186294D01*
X121424D01*
Y186510D01*
X121641D01*
Y186943D01*
X121857D01*
Y187376D01*
X122073D01*
Y187592D01*
X122290D01*
Y188025D01*
X122506D01*
Y188457D01*
X122722D01*
Y188673D01*
X122939D01*
Y189106D01*
X123155D01*
Y189322D01*
X123371D01*
Y189755D01*
X123587D01*
Y190188D01*
X123804D01*
Y190404D01*
X124020D01*
Y190837D01*
X124236D01*
Y191269D01*
X124453D01*
Y191486D01*
X124669D01*
Y191918D01*
X111906D01*
Y192567D01*
X112122D01*
Y194298D01*
X112339D01*
Y195596D01*
X112555D01*
Y197543D01*
X112771D01*
Y198840D01*
X112988D01*
Y200138D01*
X127049D01*
Y200787D01*
X127265D01*
Y201004D01*
X127481D01*
Y201653D01*
X127698D01*
Y202302D01*
X127914D01*
Y202734D01*
X128130D01*
Y203383D01*
X128347D01*
Y203816D01*
X128563D01*
Y204248D01*
X128779D01*
Y204897D01*
X128995D01*
Y205330D01*
X129212D01*
Y205979D01*
X129428D01*
Y206412D01*
X129644D01*
Y206844D01*
X129861D01*
Y207493D01*
X130077D01*
Y207926D01*
X130293D01*
Y208575D01*
X130510D01*
Y209224D01*
X130726D01*
Y209440D01*
X130942D01*
Y210089D01*
X131159D01*
Y210738D01*
X131375D01*
Y211171D01*
X131591D01*
Y211820D01*
X131808D01*
Y212252D01*
X132024D01*
Y212685D01*
X132240D01*
Y213334D01*
X132457D01*
Y213767D01*
X132673D01*
Y214416D01*
X132889D01*
Y214848D01*
X133106D01*
Y215281D01*
X133322D01*
Y215930D01*
X133538D01*
Y216362D01*
X133754D01*
Y216795D01*
X133971D01*
Y217444D01*
X134187D01*
Y217877D01*
X134403D01*
Y218526D01*
X134620D01*
Y219175D01*
X134836D01*
Y219391D01*
X135052D01*
Y220040D01*
X135269D01*
Y220472D01*
X135485D01*
Y221121D01*
X135701D01*
Y221770D01*
X135918D01*
Y221987D01*
X136134D01*
Y222636D01*
X136350D01*
Y223285D01*
X136567D01*
Y223717D01*
X136783D01*
Y224150D01*
X136999D01*
Y224366D01*
X137216D01*
Y224583D01*
X137432D01*
Y224799D01*
X137864D01*
Y225015D01*
X138081D01*
Y225231D01*
X138297D01*
Y225448D01*
X138514D01*
Y225664D01*
X138946D01*
Y225880D01*
X139162D01*
Y226097D01*
X139379D01*
Y226313D01*
X139811D01*
Y226529D01*
X140028D01*
Y226746D01*
X143921D01*
Y226962D01*
X148680D01*
Y227178D01*
X156684D01*
Y227395D01*
X163607D01*
Y227611D01*
X169231D01*
Y227827D01*
X177667D01*
Y228044D01*
X180263D01*
Y227827D01*
D02*
G37*
G36*
X18905Y9055D02*
X18309D01*
Y11568D01*
X17681Y9055D01*
X17057D01*
X16429Y11568D01*
X16424Y9055D01*
X15828D01*
Y12252D01*
X16799D01*
X17367Y10067D01*
X17940Y12252D01*
X18905D01*
Y9055D01*
D02*
G37*
G36*
X33274Y12308D02*
X33394Y12294D01*
X33500Y12271D01*
X33606Y12243D01*
X33699Y12211D01*
X33791Y12174D01*
X33869Y12132D01*
X33943Y12090D01*
X34013Y12049D01*
X34068Y12007D01*
X34119Y11970D01*
X34161Y11938D01*
X34193Y11910D01*
X34216Y11887D01*
X34230Y11873D01*
X34234Y11869D01*
X34308Y11781D01*
X34369Y11688D01*
X34424Y11592D01*
X34470Y11490D01*
X34512Y11384D01*
X34544Y11282D01*
X34572Y11180D01*
X34595Y11083D01*
X34613Y10986D01*
X34623Y10903D01*
X34632Y10825D01*
X34641Y10760D01*
Y10704D01*
X34646Y10663D01*
Y10635D01*
Y10631D01*
Y10626D01*
X34641Y10487D01*
X34627Y10358D01*
X34609Y10233D01*
X34581Y10122D01*
X34553Y10016D01*
X34516Y9914D01*
X34479Y9827D01*
X34442Y9748D01*
X34405Y9674D01*
X34369Y9610D01*
X34332Y9559D01*
X34304Y9512D01*
X34276Y9480D01*
X34258Y9452D01*
X34244Y9439D01*
X34239Y9434D01*
X34161Y9355D01*
X34077Y9291D01*
X33990Y9231D01*
X33902Y9184D01*
X33814Y9143D01*
X33726Y9106D01*
X33643Y9078D01*
X33565Y9055D01*
X33486Y9037D01*
X33417Y9023D01*
X33352Y9014D01*
X33301Y9009D01*
X33255Y9004D01*
X33223Y9000D01*
X33195D01*
X33098Y9004D01*
X33010Y9009D01*
X32922Y9023D01*
X32844Y9041D01*
X32770Y9060D01*
X32701Y9078D01*
X32636Y9101D01*
X32576Y9129D01*
X32525Y9152D01*
X32479Y9175D01*
X32437Y9194D01*
X32405Y9212D01*
X32377Y9231D01*
X32359Y9245D01*
X32350Y9249D01*
X32345Y9254D01*
X32285Y9305D01*
X32229Y9360D01*
X32128Y9485D01*
X32045Y9614D01*
X31980Y9739D01*
X31952Y9799D01*
X31929Y9854D01*
X31911Y9905D01*
X31892Y9947D01*
X31878Y9984D01*
X31869Y10011D01*
X31864Y10030D01*
Y10035D01*
X32493Y10229D01*
X32530Y10104D01*
X32571Y9998D01*
X32613Y9910D01*
X32659Y9836D01*
X32696Y9780D01*
X32728Y9743D01*
X32752Y9720D01*
X32761Y9711D01*
X32835Y9656D01*
X32909Y9619D01*
X32983Y9591D01*
X33047Y9568D01*
X33107Y9559D01*
X33158Y9554D01*
X33176Y9549D01*
X33200D01*
X33264Y9554D01*
X33324Y9559D01*
X33435Y9591D01*
X33532Y9628D01*
X33611Y9679D01*
X33676Y9725D01*
X33722Y9762D01*
X33740Y9780D01*
X33754Y9794D01*
X33759Y9799D01*
X33763Y9804D01*
X33800Y9854D01*
X33833Y9914D01*
X33865Y9979D01*
X33888Y10048D01*
X33925Y10192D01*
X33953Y10335D01*
X33962Y10404D01*
X33966Y10464D01*
X33976Y10524D01*
Y10575D01*
X33980Y10612D01*
Y10644D01*
Y10667D01*
Y10672D01*
X33976Y10778D01*
X33971Y10875D01*
X33962Y10963D01*
X33948Y11046D01*
X33930Y11120D01*
X33911Y11190D01*
X33893Y11250D01*
X33869Y11305D01*
X33851Y11351D01*
X33833Y11393D01*
X33814Y11425D01*
X33796Y11453D01*
X33782Y11476D01*
X33773Y11490D01*
X33763Y11499D01*
Y11504D01*
X33722Y11550D01*
X33676Y11592D01*
X33629Y11624D01*
X33579Y11652D01*
X33481Y11698D01*
X33389Y11730D01*
X33310Y11749D01*
X33274Y11753D01*
X33246Y11758D01*
X33218Y11762D01*
X33186D01*
X33093Y11758D01*
X33010Y11739D01*
X32936Y11716D01*
X32872Y11688D01*
X32821Y11661D01*
X32784Y11638D01*
X32761Y11619D01*
X32752Y11615D01*
X32691Y11559D01*
X32636Y11495D01*
X32594Y11430D01*
X32562Y11365D01*
X32539Y11310D01*
X32525Y11268D01*
X32516Y11250D01*
Y11236D01*
X32511Y11231D01*
Y11226D01*
X31874Y11379D01*
X31920Y11513D01*
X31971Y11628D01*
X32026Y11730D01*
X32077Y11813D01*
X32128Y11878D01*
X32146Y11906D01*
X32165Y11929D01*
X32179Y11943D01*
X32193Y11957D01*
X32197Y11966D01*
X32202D01*
X32271Y12026D01*
X32350Y12081D01*
X32423Y12127D01*
X32502Y12164D01*
X32585Y12201D01*
X32664Y12229D01*
X32742Y12252D01*
X32816Y12271D01*
X32886Y12285D01*
X32950Y12294D01*
X33006Y12303D01*
X33056Y12308D01*
X33098Y12312D01*
X33153D01*
X33274Y12308D01*
D02*
G37*
G36*
X31315Y10543D02*
Y10446D01*
X31310Y10353D01*
Y10266D01*
X31305Y10187D01*
X31301Y10113D01*
X31296Y10048D01*
X31292Y9988D01*
X31282Y9933D01*
X31278Y9887D01*
X31273Y9845D01*
X31269Y9808D01*
X31264Y9780D01*
X31259Y9757D01*
Y9743D01*
X31255Y9734D01*
Y9730D01*
X31231Y9660D01*
X31208Y9596D01*
X31176Y9536D01*
X31148Y9485D01*
X31121Y9439D01*
X31097Y9402D01*
X31079Y9383D01*
X31074Y9374D01*
X31019Y9314D01*
X30959Y9258D01*
X30894Y9212D01*
X30834Y9171D01*
X30783Y9138D01*
X30737Y9115D01*
X30709Y9101D01*
X30705Y9097D01*
X30700D01*
X30654Y9078D01*
X30603Y9064D01*
X30488Y9037D01*
X30372Y9018D01*
X30261Y9009D01*
X30211Y9004D01*
X30160Y9000D01*
X30118D01*
X30077Y8995D01*
X30003D01*
X29869Y9000D01*
X29748Y9009D01*
X29642Y9027D01*
X29554Y9046D01*
X29517Y9050D01*
X29480Y9060D01*
X29453Y9069D01*
X29430Y9078D01*
X29411Y9083D01*
X29397Y9087D01*
X29393Y9092D01*
X29388D01*
X29305Y9129D01*
X29231Y9175D01*
X29166Y9217D01*
X29111Y9258D01*
X29069Y9295D01*
X29037Y9323D01*
X29019Y9341D01*
X29014Y9351D01*
X28963Y9415D01*
X28921Y9485D01*
X28889Y9549D01*
X28861Y9614D01*
X28843Y9670D01*
X28829Y9716D01*
X28824Y9730D01*
Y9743D01*
X28820Y9748D01*
Y9753D01*
X28811Y9804D01*
X28801Y9859D01*
X28792Y9919D01*
X28787Y9979D01*
X28778Y10118D01*
X28769Y10252D01*
Y10312D01*
Y10372D01*
X28764Y10427D01*
Y10473D01*
Y10510D01*
Y10543D01*
Y10561D01*
Y10566D01*
Y12252D01*
X29411D01*
Y10478D01*
Y10409D01*
Y10344D01*
X29416Y10284D01*
Y10229D01*
X29421Y10182D01*
Y10136D01*
X29425Y10095D01*
Y10058D01*
X29434Y10002D01*
X29439Y9961D01*
X29444Y9938D01*
Y9928D01*
X29457Y9868D01*
X29480Y9817D01*
X29508Y9771D01*
X29536Y9730D01*
X29564Y9697D01*
X29587Y9674D01*
X29605Y9660D01*
X29610Y9656D01*
X29665Y9619D01*
X29735Y9591D01*
X29799Y9572D01*
X29869Y9559D01*
X29929Y9549D01*
X29975Y9545D01*
X30021D01*
X30118Y9549D01*
X30201Y9563D01*
X30275Y9582D01*
X30340Y9605D01*
X30386Y9623D01*
X30423Y9642D01*
X30441Y9656D01*
X30451Y9660D01*
X30501Y9707D01*
X30543Y9762D01*
X30580Y9813D01*
X30603Y9864D01*
X30622Y9910D01*
X30635Y9947D01*
X30645Y9970D01*
Y9979D01*
X30649Y10007D01*
X30654Y10035D01*
Y10071D01*
X30659Y10113D01*
X30663Y10201D01*
Y10293D01*
X30668Y10376D01*
Y10413D01*
Y10450D01*
Y10478D01*
Y10497D01*
Y10510D01*
Y10515D01*
Y12252D01*
X31315D01*
Y10543D01*
D02*
G37*
G36*
X25327Y11712D02*
X24380D01*
Y9055D01*
X23733D01*
Y11712D01*
X22791D01*
Y12252D01*
X25327D01*
Y11712D01*
D02*
G37*
G36*
X27101Y12308D02*
X27221Y12294D01*
X27328Y12275D01*
X27420Y12257D01*
X27462Y12243D01*
X27498Y12234D01*
X27526Y12224D01*
X27554Y12215D01*
X27573Y12206D01*
X27586Y12201D01*
X27596Y12197D01*
X27600D01*
X27693Y12150D01*
X27771Y12100D01*
X27840Y12044D01*
X27896Y11993D01*
X27942Y11947D01*
X27970Y11910D01*
X27993Y11883D01*
X27997Y11878D01*
Y11873D01*
X28044Y11795D01*
X28076Y11712D01*
X28099Y11633D01*
X28113Y11564D01*
X28122Y11504D01*
X28131Y11457D01*
Y11439D01*
Y11425D01*
Y11421D01*
Y11416D01*
X28127Y11347D01*
X28118Y11277D01*
X28104Y11217D01*
X28085Y11157D01*
X28039Y11046D01*
X27984Y10949D01*
X27961Y10908D01*
X27933Y10875D01*
X27910Y10843D01*
X27887Y10815D01*
X27868Y10797D01*
X27854Y10783D01*
X27845Y10774D01*
X27840Y10769D01*
X27799Y10737D01*
X27748Y10704D01*
X27697Y10672D01*
X27637Y10644D01*
X27522Y10589D01*
X27402Y10543D01*
X27341Y10524D01*
X27291Y10506D01*
X27240Y10492D01*
X27198Y10478D01*
X27166Y10469D01*
X27138Y10460D01*
X27120Y10455D01*
X27115D01*
X27041Y10436D01*
X26976Y10418D01*
X26916Y10404D01*
X26861Y10390D01*
X26815Y10376D01*
X26773Y10367D01*
X26736Y10353D01*
X26704Y10344D01*
X26676Y10340D01*
X26653Y10330D01*
X26621Y10321D01*
X26602Y10312D01*
X26598D01*
X26538Y10289D01*
X26491Y10266D01*
X26450Y10242D01*
X26417Y10219D01*
X26394Y10201D01*
X26381Y10187D01*
X26371Y10178D01*
X26367Y10173D01*
X26344Y10141D01*
X26325Y10108D01*
X26316Y10076D01*
X26307Y10048D01*
X26302Y10021D01*
X26297Y9998D01*
Y9984D01*
Y9979D01*
X26302Y9914D01*
X26320Y9859D01*
X26348Y9804D01*
X26376Y9757D01*
X26408Y9720D01*
X26431Y9693D01*
X26450Y9674D01*
X26459Y9670D01*
X26524Y9628D01*
X26598Y9596D01*
X26676Y9572D01*
X26750Y9559D01*
X26819Y9549D01*
X26875Y9540D01*
X26926D01*
X27032Y9545D01*
X27124Y9563D01*
X27203Y9586D01*
X27272Y9614D01*
X27328Y9642D01*
X27365Y9665D01*
X27388Y9683D01*
X27397Y9688D01*
X27457Y9753D01*
X27503Y9822D01*
X27545Y9901D01*
X27573Y9979D01*
X27596Y10048D01*
X27614Y10104D01*
X27619Y10122D01*
Y10141D01*
X27623Y10150D01*
Y10155D01*
X28252Y10095D01*
X28238Y9998D01*
X28219Y9905D01*
X28192Y9817D01*
X28168Y9739D01*
X28136Y9665D01*
X28104Y9596D01*
X28071Y9536D01*
X28039Y9480D01*
X28007Y9434D01*
X27974Y9392D01*
X27947Y9355D01*
X27919Y9323D01*
X27900Y9300D01*
X27882Y9286D01*
X27873Y9277D01*
X27868Y9272D01*
X27804Y9221D01*
X27734Y9180D01*
X27660Y9143D01*
X27582Y9110D01*
X27508Y9087D01*
X27429Y9064D01*
X27277Y9032D01*
X27207Y9018D01*
X27143Y9009D01*
X27087Y9004D01*
X27036Y9000D01*
X26995Y8995D01*
X26935D01*
X26787Y9000D01*
X26653Y9014D01*
X26533Y9032D01*
X26482Y9041D01*
X26431Y9055D01*
X26390Y9064D01*
X26353Y9074D01*
X26320Y9083D01*
X26293Y9092D01*
X26270Y9101D01*
X26256Y9106D01*
X26247Y9110D01*
X26242D01*
X26140Y9161D01*
X26057Y9217D01*
X25979Y9272D01*
X25918Y9332D01*
X25872Y9383D01*
X25835Y9429D01*
X25817Y9457D01*
X25808Y9462D01*
Y9466D01*
X25757Y9559D01*
X25715Y9646D01*
X25688Y9734D01*
X25669Y9817D01*
X25660Y9882D01*
X25655Y9914D01*
X25651Y9938D01*
Y9956D01*
Y9970D01*
Y9979D01*
Y9984D01*
X25655Y10095D01*
X25669Y10192D01*
X25692Y10279D01*
X25715Y10353D01*
X25738Y10413D01*
X25761Y10455D01*
X25775Y10483D01*
X25780Y10492D01*
X25831Y10566D01*
X25891Y10631D01*
X25951Y10686D01*
X26006Y10732D01*
X26057Y10769D01*
X26099Y10797D01*
X26126Y10815D01*
X26131Y10820D01*
X26136D01*
X26182Y10843D01*
X26228Y10866D01*
X26339Y10908D01*
X26454Y10945D01*
X26565Y10982D01*
X26616Y10995D01*
X26667Y11009D01*
X26713Y11023D01*
X26750Y11033D01*
X26782Y11042D01*
X26805Y11046D01*
X26824Y11051D01*
X26829D01*
X26912Y11074D01*
X26986Y11092D01*
X27055Y11111D01*
X27120Y11129D01*
X27171Y11148D01*
X27221Y11166D01*
X27263Y11185D01*
X27300Y11199D01*
X27332Y11213D01*
X27355Y11226D01*
X27378Y11236D01*
X27392Y11245D01*
X27415Y11259D01*
X27420Y11264D01*
X27452Y11296D01*
X27475Y11328D01*
X27489Y11361D01*
X27498Y11393D01*
X27508Y11416D01*
X27512Y11439D01*
Y11453D01*
Y11457D01*
X27508Y11504D01*
X27498Y11541D01*
X27480Y11578D01*
X27462Y11605D01*
X27443Y11628D01*
X27425Y11642D01*
X27415Y11652D01*
X27411Y11656D01*
X27346Y11698D01*
X27277Y11726D01*
X27203Y11749D01*
X27134Y11762D01*
X27073Y11772D01*
X27023Y11776D01*
X26976D01*
X26880Y11772D01*
X26796Y11758D01*
X26727Y11739D01*
X26672Y11721D01*
X26625Y11702D01*
X26593Y11684D01*
X26575Y11670D01*
X26570Y11665D01*
X26524Y11619D01*
X26482Y11564D01*
X26450Y11508D01*
X26427Y11448D01*
X26408Y11397D01*
X26399Y11356D01*
X26390Y11323D01*
Y11319D01*
Y11314D01*
X25743Y11337D01*
X25748Y11421D01*
X25761Y11495D01*
X25780Y11568D01*
X25803Y11633D01*
X25826Y11698D01*
X25854Y11758D01*
X25881Y11809D01*
X25909Y11859D01*
X25942Y11901D01*
X25969Y11938D01*
X25997Y11970D01*
X26020Y11998D01*
X26039Y12016D01*
X26052Y12030D01*
X26062Y12040D01*
X26066Y12044D01*
X26126Y12090D01*
X26191Y12132D01*
X26260Y12169D01*
X26334Y12201D01*
X26408Y12224D01*
X26482Y12247D01*
X26630Y12280D01*
X26699Y12289D01*
X26759Y12298D01*
X26819Y12303D01*
X26870Y12308D01*
X26912Y12312D01*
X26967D01*
X27101Y12308D01*
D02*
G37*
G36*
X21100D02*
X21234Y12294D01*
X21349Y12271D01*
X21451Y12247D01*
X21493Y12234D01*
X21534Y12224D01*
X21566Y12215D01*
X21594Y12201D01*
X21617Y12197D01*
X21636Y12188D01*
X21645Y12183D01*
X21650D01*
X21733Y12146D01*
X21811Y12100D01*
X21881Y12049D01*
X21941Y12003D01*
X21992Y11961D01*
X22033Y11924D01*
X22056Y11901D01*
X22061Y11896D01*
X22065Y11892D01*
X22130Y11818D01*
X22190Y11739D01*
X22241Y11670D01*
X22283Y11601D01*
X22315Y11541D01*
X22343Y11495D01*
X22347Y11476D01*
X22356Y11462D01*
X22361Y11457D01*
Y11453D01*
X22407Y11323D01*
X22444Y11185D01*
X22467Y11046D01*
X22486Y10917D01*
X22490Y10857D01*
X22495Y10802D01*
X22500Y10755D01*
Y10714D01*
X22504Y10677D01*
Y10654D01*
Y10635D01*
Y10631D01*
X22500Y10492D01*
X22486Y10358D01*
X22467Y10233D01*
X22440Y10118D01*
X22407Y10011D01*
X22370Y9914D01*
X22333Y9822D01*
X22292Y9743D01*
X22255Y9670D01*
X22218Y9610D01*
X22181Y9554D01*
X22149Y9508D01*
X22121Y9476D01*
X22102Y9448D01*
X22088Y9434D01*
X22084Y9429D01*
X22001Y9351D01*
X21913Y9286D01*
X21825Y9226D01*
X21728Y9180D01*
X21636Y9138D01*
X21539Y9101D01*
X21451Y9074D01*
X21359Y9050D01*
X21275Y9032D01*
X21197Y9018D01*
X21128Y9009D01*
X21068Y9004D01*
X21021Y9000D01*
X20984Y8995D01*
X20952D01*
X20823Y9000D01*
X20703Y9014D01*
X20587Y9037D01*
X20481Y9064D01*
X20379Y9097D01*
X20287Y9134D01*
X20204Y9171D01*
X20125Y9212D01*
X20060Y9254D01*
X20000Y9291D01*
X19950Y9328D01*
X19908Y9360D01*
X19871Y9388D01*
X19848Y9411D01*
X19834Y9425D01*
X19829Y9429D01*
X19755Y9517D01*
X19691Y9610D01*
X19631Y9707D01*
X19584Y9804D01*
X19543Y9905D01*
X19506Y10007D01*
X19478Y10108D01*
X19455Y10205D01*
X19441Y10293D01*
X19427Y10381D01*
X19418Y10455D01*
X19409Y10520D01*
Y10575D01*
X19404Y10617D01*
Y10640D01*
Y10649D01*
X19409Y10792D01*
X19423Y10926D01*
X19441Y11051D01*
X19469Y11171D01*
X19501Y11277D01*
X19538Y11379D01*
X19575Y11471D01*
X19617Y11550D01*
X19658Y11624D01*
X19695Y11688D01*
X19732Y11744D01*
X19765Y11790D01*
X19788Y11823D01*
X19811Y11850D01*
X19825Y11864D01*
X19829Y11869D01*
X19913Y11947D01*
X20000Y12016D01*
X20093Y12077D01*
X20185Y12127D01*
X20282Y12169D01*
X20374Y12206D01*
X20467Y12234D01*
X20555Y12257D01*
X20638Y12275D01*
X20716Y12289D01*
X20786Y12298D01*
X20846Y12308D01*
X20892D01*
X20929Y12312D01*
X20961D01*
X21100Y12308D01*
D02*
G37*
G36*
X31495Y16929D02*
X30899D01*
Y19036D01*
X29601Y16929D01*
X28954D01*
Y20126D01*
X29550D01*
Y17973D01*
X30871Y20126D01*
X31495D01*
Y16929D01*
D02*
G37*
G36*
X28293D02*
X27646D01*
Y20126D01*
X28293D01*
Y16929D01*
D02*
G37*
G36*
X27027D02*
X26381D01*
Y18287D01*
X25045D01*
Y18828D01*
X26381D01*
Y19586D01*
X24833D01*
Y20126D01*
X27027D01*
Y16929D01*
D02*
G37*
G36*
X24297D02*
X23650D01*
Y18287D01*
X22315D01*
Y18828D01*
X23650D01*
Y19586D01*
X22102D01*
Y20126D01*
X24297D01*
Y16929D01*
D02*
G37*
G36*
X21566D02*
X19136D01*
Y17470D01*
X20920D01*
Y18338D01*
X19317D01*
Y18879D01*
X20920D01*
Y19586D01*
X19196D01*
Y20126D01*
X21566D01*
Y16929D01*
D02*
G37*
G36*
X18587D02*
X17940D01*
Y18264D01*
X17732D01*
X17667Y18260D01*
X17612Y18255D01*
X17566Y18246D01*
X17529Y18241D01*
X17505Y18232D01*
X17492Y18227D01*
X17487D01*
X17450Y18209D01*
X17413Y18190D01*
X17381Y18167D01*
X17348Y18149D01*
X17325Y18126D01*
X17307Y18107D01*
X17298Y18098D01*
X17293Y18093D01*
X17275Y18070D01*
X17251Y18047D01*
X17201Y17978D01*
X17145Y17904D01*
X17085Y17821D01*
X17034Y17747D01*
X17011Y17710D01*
X16993Y17682D01*
X16974Y17659D01*
X16960Y17641D01*
X16956Y17627D01*
X16951Y17622D01*
X16489Y16929D01*
X15713D01*
X16106Y17553D01*
X16147Y17617D01*
X16189Y17682D01*
X16226Y17738D01*
X16263Y17788D01*
X16295Y17835D01*
X16323Y17881D01*
X16378Y17950D01*
X16420Y18006D01*
X16447Y18043D01*
X16471Y18066D01*
X16475Y18070D01*
X16526Y18126D01*
X16586Y18177D01*
X16642Y18218D01*
X16697Y18260D01*
X16743Y18292D01*
X16780Y18315D01*
X16808Y18334D01*
X16813Y18338D01*
X16817D01*
X16739Y18352D01*
X16669Y18371D01*
X16605Y18389D01*
X16540Y18412D01*
X16485Y18435D01*
X16434Y18458D01*
X16383Y18482D01*
X16341Y18509D01*
X16304Y18532D01*
X16272Y18555D01*
X16244Y18578D01*
X16226Y18597D01*
X16207Y18611D01*
X16193Y18625D01*
X16189Y18629D01*
X16184Y18634D01*
X16147Y18680D01*
X16115Y18726D01*
X16059Y18828D01*
X16023Y18925D01*
X15999Y19022D01*
X15981Y19105D01*
X15976Y19138D01*
Y19170D01*
X15972Y19193D01*
Y19216D01*
Y19225D01*
Y19230D01*
X15976Y19331D01*
X15995Y19429D01*
X16018Y19512D01*
X16041Y19586D01*
X16069Y19646D01*
X16092Y19692D01*
X16101Y19706D01*
X16110Y19720D01*
X16115Y19724D01*
Y19729D01*
X16170Y19807D01*
X16230Y19872D01*
X16290Y19923D01*
X16351Y19969D01*
X16406Y19997D01*
X16447Y20020D01*
X16475Y20034D01*
X16480Y20038D01*
X16485D01*
X16531Y20052D01*
X16581Y20066D01*
X16697Y20089D01*
X16822Y20103D01*
X16942Y20117D01*
X17002D01*
X17053Y20121D01*
X17104D01*
X17145Y20126D01*
X18587D01*
Y16929D01*
D02*
G37*
G36*
X33495Y20182D02*
X33615Y20168D01*
X33722Y20149D01*
X33814Y20131D01*
X33856Y20117D01*
X33893Y20108D01*
X33920Y20098D01*
X33948Y20089D01*
X33966Y20080D01*
X33980Y20075D01*
X33990Y20071D01*
X33994D01*
X34087Y20024D01*
X34165Y19974D01*
X34234Y19918D01*
X34290Y19867D01*
X34336Y19821D01*
X34364Y19784D01*
X34387Y19757D01*
X34392Y19752D01*
Y19747D01*
X34438Y19669D01*
X34470Y19586D01*
X34493Y19507D01*
X34507Y19438D01*
X34516Y19378D01*
X34526Y19331D01*
Y19313D01*
Y19299D01*
Y19295D01*
Y19290D01*
X34521Y19221D01*
X34512Y19151D01*
X34498Y19091D01*
X34479Y19031D01*
X34433Y18920D01*
X34378Y18823D01*
X34355Y18782D01*
X34327Y18749D01*
X34304Y18717D01*
X34281Y18689D01*
X34262Y18671D01*
X34248Y18657D01*
X34239Y18648D01*
X34234Y18643D01*
X34193Y18611D01*
X34142Y18578D01*
X34091Y18546D01*
X34031Y18518D01*
X33916Y18463D01*
X33796Y18417D01*
X33735Y18398D01*
X33685Y18380D01*
X33634Y18366D01*
X33592Y18352D01*
X33560Y18343D01*
X33532Y18334D01*
X33514Y18329D01*
X33509D01*
X33435Y18311D01*
X33371Y18292D01*
X33310Y18278D01*
X33255Y18264D01*
X33209Y18250D01*
X33167Y18241D01*
X33130Y18227D01*
X33098Y18218D01*
X33070Y18214D01*
X33047Y18204D01*
X33015Y18195D01*
X32996Y18186D01*
X32992D01*
X32932Y18163D01*
X32886Y18140D01*
X32844Y18116D01*
X32811Y18093D01*
X32788Y18075D01*
X32775Y18061D01*
X32765Y18052D01*
X32761Y18047D01*
X32738Y18015D01*
X32719Y17982D01*
X32710Y17950D01*
X32701Y17922D01*
X32696Y17895D01*
X32691Y17872D01*
Y17858D01*
Y17853D01*
X32696Y17788D01*
X32715Y17733D01*
X32742Y17678D01*
X32770Y17631D01*
X32802Y17594D01*
X32825Y17567D01*
X32844Y17548D01*
X32853Y17544D01*
X32918Y17502D01*
X32992Y17470D01*
X33070Y17447D01*
X33144Y17433D01*
X33213Y17424D01*
X33269Y17414D01*
X33320D01*
X33426Y17419D01*
X33518Y17437D01*
X33597Y17460D01*
X33666Y17488D01*
X33722Y17516D01*
X33759Y17539D01*
X33782Y17558D01*
X33791Y17562D01*
X33851Y17627D01*
X33897Y17696D01*
X33939Y17775D01*
X33966Y17853D01*
X33990Y17922D01*
X34008Y17978D01*
X34013Y17996D01*
Y18015D01*
X34017Y18024D01*
Y18029D01*
X34646Y17969D01*
X34632Y17872D01*
X34613Y17779D01*
X34586Y17691D01*
X34563Y17613D01*
X34530Y17539D01*
X34498Y17470D01*
X34466Y17410D01*
X34433Y17354D01*
X34401Y17308D01*
X34369Y17266D01*
X34341Y17229D01*
X34313Y17197D01*
X34295Y17174D01*
X34276Y17160D01*
X34267Y17151D01*
X34262Y17146D01*
X34198Y17095D01*
X34128Y17054D01*
X34054Y17017D01*
X33976Y16985D01*
X33902Y16962D01*
X33823Y16938D01*
X33671Y16906D01*
X33602Y16892D01*
X33537Y16883D01*
X33481Y16878D01*
X33431Y16874D01*
X33389Y16869D01*
X33329D01*
X33181Y16874D01*
X33047Y16887D01*
X32927Y16906D01*
X32876Y16915D01*
X32825Y16929D01*
X32784Y16938D01*
X32747Y16948D01*
X32715Y16957D01*
X32687Y16966D01*
X32664Y16975D01*
X32650Y16980D01*
X32641Y16985D01*
X32636D01*
X32534Y17035D01*
X32451Y17091D01*
X32373Y17146D01*
X32313Y17206D01*
X32266Y17257D01*
X32229Y17303D01*
X32211Y17331D01*
X32202Y17336D01*
Y17340D01*
X32151Y17433D01*
X32109Y17521D01*
X32082Y17608D01*
X32063Y17691D01*
X32054Y17756D01*
X32049Y17788D01*
X32045Y17811D01*
Y17830D01*
Y17844D01*
Y17853D01*
Y17858D01*
X32049Y17969D01*
X32063Y18066D01*
X32086Y18153D01*
X32109Y18227D01*
X32132Y18287D01*
X32155Y18329D01*
X32169Y18357D01*
X32174Y18366D01*
X32225Y18440D01*
X32285Y18505D01*
X32345Y18560D01*
X32400Y18606D01*
X32451Y18643D01*
X32493Y18671D01*
X32520Y18689D01*
X32525Y18694D01*
X32530D01*
X32576Y18717D01*
X32622Y18740D01*
X32733Y18782D01*
X32849Y18819D01*
X32959Y18856D01*
X33010Y18869D01*
X33061Y18883D01*
X33107Y18897D01*
X33144Y18906D01*
X33176Y18916D01*
X33200Y18920D01*
X33218Y18925D01*
X33223D01*
X33306Y18948D01*
X33380Y18967D01*
X33449Y18985D01*
X33514Y19004D01*
X33565Y19022D01*
X33615Y19040D01*
X33657Y19059D01*
X33694Y19073D01*
X33726Y19087D01*
X33749Y19101D01*
X33773Y19110D01*
X33786Y19119D01*
X33810Y19133D01*
X33814Y19138D01*
X33846Y19170D01*
X33869Y19202D01*
X33883Y19234D01*
X33893Y19267D01*
X33902Y19290D01*
X33906Y19313D01*
Y19327D01*
Y19331D01*
X33902Y19378D01*
X33893Y19415D01*
X33874Y19452D01*
X33856Y19479D01*
X33837Y19502D01*
X33819Y19516D01*
X33810Y19526D01*
X33805Y19530D01*
X33740Y19572D01*
X33671Y19600D01*
X33597Y19623D01*
X33528Y19636D01*
X33468Y19646D01*
X33417Y19650D01*
X33371D01*
X33274Y19646D01*
X33190Y19632D01*
X33121Y19613D01*
X33066Y19595D01*
X33019Y19576D01*
X32987Y19558D01*
X32969Y19544D01*
X32964Y19539D01*
X32918Y19493D01*
X32876Y19438D01*
X32844Y19382D01*
X32821Y19322D01*
X32802Y19272D01*
X32793Y19230D01*
X32784Y19198D01*
Y19193D01*
Y19188D01*
X32137Y19211D01*
X32142Y19295D01*
X32155Y19368D01*
X32174Y19442D01*
X32197Y19507D01*
X32220Y19572D01*
X32248Y19632D01*
X32276Y19683D01*
X32303Y19734D01*
X32336Y19775D01*
X32363Y19812D01*
X32391Y19844D01*
X32414Y19872D01*
X32433Y19891D01*
X32447Y19904D01*
X32456Y19914D01*
X32460Y19918D01*
X32520Y19964D01*
X32585Y20006D01*
X32655Y20043D01*
X32728Y20075D01*
X32802Y20098D01*
X32876Y20121D01*
X33024Y20154D01*
X33093Y20163D01*
X33153Y20172D01*
X33213Y20177D01*
X33264Y20182D01*
X33306Y20186D01*
X33361D01*
X33495Y20182D01*
D02*
G37*
G36*
X34646Y24803D02*
X32391D01*
Y25344D01*
X33999D01*
Y27977D01*
X34646D01*
Y24803D01*
D02*
G37*
G36*
X31952D02*
X31305D01*
Y28000D01*
X31952D01*
Y24803D01*
D02*
G37*
G36*
X30913Y27460D02*
X29966D01*
Y24803D01*
X29319D01*
Y27460D01*
X28376D01*
Y28000D01*
X30913D01*
Y27460D01*
D02*
G37*
G36*
X27956Y24803D02*
X25526D01*
Y25344D01*
X27309D01*
Y26212D01*
X25706D01*
Y26753D01*
X27309D01*
Y27460D01*
X25586D01*
Y28000D01*
X27956D01*
Y24803D01*
D02*
G37*
G36*
X31925Y34165D02*
Y34068D01*
X31920Y33975D01*
Y33888D01*
X31915Y33809D01*
X31911Y33735D01*
X31906Y33670D01*
X31901Y33610D01*
X31892Y33555D01*
X31888Y33509D01*
X31883Y33467D01*
X31878Y33430D01*
X31874Y33402D01*
X31869Y33379D01*
Y33365D01*
X31864Y33356D01*
Y33352D01*
X31841Y33282D01*
X31818Y33218D01*
X31786Y33158D01*
X31758Y33107D01*
X31730Y33061D01*
X31707Y33024D01*
X31689Y33005D01*
X31684Y32996D01*
X31629Y32936D01*
X31569Y32880D01*
X31504Y32834D01*
X31444Y32793D01*
X31393Y32760D01*
X31347Y32737D01*
X31319Y32723D01*
X31315Y32719D01*
X31310D01*
X31264Y32700D01*
X31213Y32686D01*
X31097Y32659D01*
X30982Y32640D01*
X30871Y32631D01*
X30820Y32626D01*
X30770Y32622D01*
X30728D01*
X30686Y32617D01*
X30612D01*
X30478Y32622D01*
X30358Y32631D01*
X30252Y32649D01*
X30164Y32668D01*
X30127Y32673D01*
X30090Y32682D01*
X30063Y32691D01*
X30040Y32700D01*
X30021Y32705D01*
X30007Y32710D01*
X30003Y32714D01*
X29998D01*
X29915Y32751D01*
X29841Y32797D01*
X29776Y32839D01*
X29721Y32880D01*
X29679Y32917D01*
X29647Y32945D01*
X29628Y32964D01*
X29624Y32973D01*
X29573Y33037D01*
X29531Y33107D01*
X29499Y33171D01*
X29471Y33236D01*
X29453Y33292D01*
X29439Y33338D01*
X29434Y33352D01*
Y33365D01*
X29430Y33370D01*
Y33375D01*
X29421Y33426D01*
X29411Y33481D01*
X29402Y33541D01*
X29397Y33601D01*
X29388Y33740D01*
X29379Y33874D01*
Y33934D01*
Y33994D01*
X29374Y34049D01*
Y34095D01*
Y34133D01*
Y34165D01*
Y34183D01*
Y34188D01*
Y35874D01*
X30021D01*
Y34100D01*
Y34031D01*
Y33966D01*
X30026Y33906D01*
Y33851D01*
X30030Y33804D01*
Y33758D01*
X30035Y33717D01*
Y33680D01*
X30044Y33624D01*
X30049Y33583D01*
X30053Y33560D01*
Y33550D01*
X30067Y33490D01*
X30090Y33439D01*
X30118Y33393D01*
X30146Y33352D01*
X30174Y33319D01*
X30197Y33296D01*
X30215Y33282D01*
X30220Y33278D01*
X30275Y33241D01*
X30345Y33213D01*
X30409Y33195D01*
X30478Y33181D01*
X30538Y33171D01*
X30585Y33167D01*
X30631D01*
X30728Y33171D01*
X30811Y33185D01*
X30885Y33204D01*
X30950Y33227D01*
X30996Y33245D01*
X31033Y33264D01*
X31051Y33278D01*
X31061Y33282D01*
X31111Y33329D01*
X31153Y33384D01*
X31190Y33435D01*
X31213Y33486D01*
X31231Y33532D01*
X31245Y33569D01*
X31255Y33592D01*
Y33601D01*
X31259Y33629D01*
X31264Y33657D01*
Y33694D01*
X31269Y33735D01*
X31273Y33823D01*
Y33915D01*
X31278Y33999D01*
Y34035D01*
Y34072D01*
Y34100D01*
Y34119D01*
Y34133D01*
Y34137D01*
Y35874D01*
X31925D01*
Y34165D01*
D02*
G37*
G36*
X34646Y32677D02*
X33999D01*
Y34035D01*
X32664D01*
Y34576D01*
X33999D01*
Y35334D01*
X32451D01*
Y35874D01*
X34646D01*
Y32677D01*
D02*
G37*
G36*
X28677D02*
X26422D01*
Y33218D01*
X28030D01*
Y35851D01*
X28677D01*
Y32677D01*
D02*
G37*
G36*
X25946D02*
X23692D01*
Y33218D01*
X25299D01*
Y35851D01*
X25946D01*
Y32677D01*
D02*
G37*
G36*
X13763Y40551D02*
X13167D01*
Y42658D01*
X11868Y40551D01*
X11222D01*
Y43748D01*
X11818D01*
Y41595D01*
X13139Y43748D01*
X13763D01*
Y40551D01*
D02*
G37*
G36*
X26842Y40551D02*
X26144D01*
X25008Y43748D01*
X25696D01*
X26477Y41383D01*
X27290Y43748D01*
X27988D01*
X26842Y40551D01*
D02*
G37*
G36*
X45276D02*
X43890D01*
X43811Y40556D01*
X43672D01*
X43617Y40560D01*
X43529D01*
X43497Y40565D01*
X43451D01*
X43432Y40570D01*
X43414D01*
X43321Y40584D01*
X43238Y40607D01*
X43164Y40630D01*
X43100Y40657D01*
X43049Y40681D01*
X43012Y40704D01*
X42989Y40718D01*
X42979Y40722D01*
X42915Y40773D01*
X42864Y40828D01*
X42813Y40879D01*
X42776Y40935D01*
X42744Y40981D01*
X42721Y41018D01*
X42707Y41041D01*
X42702Y41050D01*
X42670Y41129D01*
X42642Y41203D01*
X42624Y41276D01*
X42614Y41341D01*
X42605Y41397D01*
X42601Y41438D01*
Y41466D01*
Y41471D01*
Y41475D01*
X42605Y41577D01*
X42624Y41669D01*
X42651Y41748D01*
X42679Y41822D01*
X42707Y41877D01*
X42735Y41919D01*
X42753Y41946D01*
X42758Y41956D01*
X42822Y42030D01*
X42892Y42090D01*
X42970Y42140D01*
X43040Y42177D01*
X43104Y42210D01*
X43160Y42233D01*
X43178Y42237D01*
X43192Y42242D01*
X43201Y42247D01*
X43206D01*
X43132Y42288D01*
X43067Y42330D01*
X43012Y42381D01*
X42966Y42422D01*
X42933Y42464D01*
X42906Y42496D01*
X42887Y42519D01*
X42882Y42529D01*
X42841Y42602D01*
X42808Y42672D01*
X42790Y42741D01*
X42772Y42806D01*
X42762Y42861D01*
X42758Y42903D01*
Y42930D01*
Y42935D01*
Y42940D01*
X42762Y43014D01*
X42772Y43088D01*
X42790Y43148D01*
X42808Y43203D01*
X42827Y43249D01*
X42845Y43286D01*
X42855Y43305D01*
X42859Y43314D01*
X42896Y43374D01*
X42938Y43425D01*
X42979Y43471D01*
X43016Y43513D01*
X43053Y43540D01*
X43081Y43563D01*
X43100Y43577D01*
X43104Y43582D01*
X43160Y43619D01*
X43220Y43647D01*
X43275Y43670D01*
X43326Y43688D01*
X43372Y43702D01*
X43404Y43711D01*
X43428Y43716D01*
X43437D01*
X43515Y43725D01*
X43603Y43734D01*
X43696Y43739D01*
X43788Y43744D01*
X43871Y43748D01*
X45276D01*
Y40551D01*
D02*
G37*
G36*
X38905D02*
X38221D01*
X37958Y41276D01*
X36673D01*
X36396Y40551D01*
X35698D01*
X36983Y43748D01*
X37666D01*
X38905Y40551D01*
D02*
G37*
G36*
X35352D02*
X34705D01*
Y41886D01*
X34497D01*
X34433Y41882D01*
X34377Y41877D01*
X34331Y41868D01*
X34294Y41863D01*
X34271Y41854D01*
X34257Y41849D01*
X34252D01*
X34215Y41831D01*
X34178Y41812D01*
X34146Y41789D01*
X34114Y41771D01*
X34091Y41748D01*
X34072Y41729D01*
X34063Y41720D01*
X34058Y41715D01*
X34040Y41692D01*
X34017Y41669D01*
X33966Y41600D01*
X33910Y41526D01*
X33850Y41443D01*
X33799Y41369D01*
X33776Y41332D01*
X33758Y41304D01*
X33740Y41281D01*
X33726Y41263D01*
X33721Y41249D01*
X33716Y41244D01*
X33254Y40551D01*
X32478D01*
X32871Y41175D01*
X32912Y41240D01*
X32954Y41304D01*
X32991Y41360D01*
X33028Y41410D01*
X33060Y41457D01*
X33088Y41503D01*
X33143Y41572D01*
X33185Y41628D01*
X33213Y41665D01*
X33236Y41688D01*
X33241Y41692D01*
X33291Y41748D01*
X33351Y41799D01*
X33407Y41840D01*
X33462Y41882D01*
X33509Y41914D01*
X33545Y41937D01*
X33573Y41956D01*
X33578Y41960D01*
X33582D01*
X33504Y41974D01*
X33435Y41993D01*
X33370Y42011D01*
X33305Y42034D01*
X33250Y42057D01*
X33199Y42080D01*
X33148Y42103D01*
X33106Y42131D01*
X33070Y42154D01*
X33037Y42177D01*
X33009Y42200D01*
X32991Y42219D01*
X32972Y42233D01*
X32959Y42247D01*
X32954Y42251D01*
X32949Y42256D01*
X32912Y42302D01*
X32880Y42348D01*
X32825Y42450D01*
X32788Y42547D01*
X32765Y42644D01*
X32746Y42727D01*
X32741Y42759D01*
Y42792D01*
X32737Y42815D01*
Y42838D01*
Y42847D01*
Y42852D01*
X32741Y42954D01*
X32760Y43051D01*
X32783Y43134D01*
X32806Y43208D01*
X32834Y43268D01*
X32857Y43314D01*
X32866Y43328D01*
X32875Y43342D01*
X32880Y43346D01*
Y43351D01*
X32936Y43429D01*
X32996Y43494D01*
X33056Y43545D01*
X33116Y43591D01*
X33171Y43619D01*
X33213Y43642D01*
X33241Y43656D01*
X33245Y43660D01*
X33250D01*
X33296Y43674D01*
X33347Y43688D01*
X33462Y43711D01*
X33587Y43725D01*
X33707Y43739D01*
X33767D01*
X33818Y43744D01*
X33869D01*
X33910Y43748D01*
X35352D01*
Y40551D01*
D02*
G37*
G36*
X32127D02*
X30917D01*
X30792Y40556D01*
X30676Y40560D01*
X30579Y40570D01*
X30501Y40584D01*
X30436Y40597D01*
X30385Y40607D01*
X30371Y40611D01*
X30358D01*
X30353Y40616D01*
X30348D01*
X30247Y40653D01*
X30154Y40694D01*
X30080Y40736D01*
X30016Y40778D01*
X29965Y40815D01*
X29928Y40842D01*
X29905Y40861D01*
X29896Y40870D01*
X29817Y40958D01*
X29748Y41050D01*
X29688Y41147D01*
X29642Y41235D01*
X29605Y41318D01*
X29586Y41350D01*
X29577Y41378D01*
X29568Y41406D01*
X29558Y41424D01*
X29554Y41434D01*
Y41438D01*
X29521Y41549D01*
X29494Y41665D01*
X29475Y41776D01*
X29466Y41882D01*
X29461Y41932D01*
X29457Y41979D01*
Y42016D01*
X29452Y42053D01*
Y42080D01*
Y42099D01*
Y42113D01*
Y42117D01*
X29457Y42279D01*
X29471Y42422D01*
X29475Y42492D01*
X29484Y42552D01*
X29494Y42612D01*
X29503Y42663D01*
X29517Y42709D01*
X29526Y42750D01*
X29535Y42787D01*
X29540Y42815D01*
X29549Y42838D01*
X29554Y42856D01*
X29558Y42866D01*
Y42870D01*
X29600Y42981D01*
X29651Y43083D01*
X29702Y43171D01*
X29752Y43245D01*
X29794Y43305D01*
X29831Y43351D01*
X29854Y43379D01*
X29859Y43388D01*
X29863D01*
X29942Y43462D01*
X30020Y43522D01*
X30103Y43573D01*
X30177Y43614D01*
X30242Y43647D01*
X30298Y43670D01*
X30316Y43674D01*
X30330Y43679D01*
X30339Y43683D01*
X30344D01*
X30432Y43707D01*
X30529Y43720D01*
X30630Y43734D01*
X30727Y43739D01*
X30815Y43744D01*
X30852Y43748D01*
X32127D01*
Y40551D01*
D02*
G37*
G36*
X25008D02*
X24324D01*
X24061Y41276D01*
X22776D01*
X22499Y40551D01*
X21801D01*
X23086Y43748D01*
X23769D01*
X25008Y40551D01*
D02*
G37*
G36*
X21455D02*
X20808D01*
Y41886D01*
X20600D01*
X20536Y41882D01*
X20480Y41877D01*
X20434Y41868D01*
X20397Y41863D01*
X20374Y41854D01*
X20360Y41849D01*
X20355D01*
X20318Y41831D01*
X20281Y41812D01*
X20249Y41789D01*
X20217Y41771D01*
X20194Y41748D01*
X20175Y41729D01*
X20166Y41720D01*
X20161Y41715D01*
X20143Y41692D01*
X20120Y41669D01*
X20069Y41600D01*
X20013Y41526D01*
X19953Y41443D01*
X19903Y41369D01*
X19880Y41332D01*
X19861Y41304D01*
X19842Y41281D01*
X19829Y41263D01*
X19824Y41249D01*
X19819Y41244D01*
X19357Y40551D01*
X18581D01*
X18974Y41175D01*
X19015Y41240D01*
X19057Y41304D01*
X19094Y41360D01*
X19131Y41410D01*
X19163Y41457D01*
X19191Y41503D01*
X19247Y41572D01*
X19288Y41628D01*
X19316Y41665D01*
X19339Y41688D01*
X19343Y41692D01*
X19394Y41748D01*
X19454Y41799D01*
X19510Y41840D01*
X19565Y41882D01*
X19612Y41914D01*
X19648Y41937D01*
X19676Y41956D01*
X19681Y41960D01*
X19685D01*
X19607Y41974D01*
X19538Y41993D01*
X19473Y42011D01*
X19408Y42034D01*
X19353Y42057D01*
X19302Y42080D01*
X19251Y42103D01*
X19210Y42131D01*
X19173Y42154D01*
X19140Y42177D01*
X19113Y42200D01*
X19094Y42219D01*
X19076Y42233D01*
X19062Y42247D01*
X19057Y42251D01*
X19052Y42256D01*
X19015Y42302D01*
X18983Y42348D01*
X18928Y42450D01*
X18891Y42547D01*
X18868Y42644D01*
X18849Y42727D01*
X18845Y42759D01*
Y42792D01*
X18840Y42815D01*
Y42838D01*
Y42847D01*
Y42852D01*
X18845Y42954D01*
X18863Y43051D01*
X18886Y43134D01*
X18909Y43208D01*
X18937Y43268D01*
X18960Y43314D01*
X18969Y43328D01*
X18979Y43342D01*
X18983Y43346D01*
Y43351D01*
X19039Y43429D01*
X19099Y43494D01*
X19159Y43545D01*
X19219Y43591D01*
X19274Y43619D01*
X19316Y43642D01*
X19343Y43656D01*
X19348Y43660D01*
X19353D01*
X19399Y43674D01*
X19450Y43688D01*
X19565Y43711D01*
X19690Y43725D01*
X19810Y43739D01*
X19870D01*
X19921Y43744D01*
X19972D01*
X20013Y43748D01*
X21455D01*
Y40551D01*
D02*
G37*
G36*
X18253D02*
X17606D01*
Y43748D01*
X18253D01*
Y40551D01*
D02*
G37*
G36*
X17315D02*
X16632Y40551D01*
X16368Y41276D01*
X15084D01*
X14807Y40551D01*
X14109D01*
X15393Y43748D01*
X16077D01*
X17315Y40551D01*
D02*
G37*
G36*
X10764Y43208D02*
X9817D01*
Y40551D01*
X9170D01*
Y43208D01*
X8228D01*
Y43748D01*
X10764D01*
Y43208D01*
D02*
G37*
G36*
X40780Y43804D02*
X40914Y43790D01*
X41030Y43767D01*
X41131Y43744D01*
X41173Y43730D01*
X41215Y43720D01*
X41247Y43711D01*
X41275Y43697D01*
X41298Y43693D01*
X41316Y43683D01*
X41326Y43679D01*
X41330D01*
X41413Y43642D01*
X41492Y43596D01*
X41561Y43545D01*
X41621Y43499D01*
X41672Y43457D01*
X41714Y43420D01*
X41737Y43397D01*
X41741Y43393D01*
X41746Y43388D01*
X41811Y43314D01*
X41871Y43235D01*
X41921Y43166D01*
X41963Y43097D01*
X41995Y43037D01*
X42023Y42990D01*
X42028Y42972D01*
X42037Y42958D01*
X42042Y42954D01*
Y42949D01*
X42088Y42820D01*
X42125Y42681D01*
X42148Y42542D01*
X42166Y42413D01*
X42171Y42353D01*
X42176Y42298D01*
X42180Y42251D01*
Y42210D01*
X42185Y42173D01*
Y42150D01*
Y42131D01*
Y42127D01*
X42180Y41988D01*
X42166Y41854D01*
X42148Y41729D01*
X42120Y41614D01*
X42088Y41508D01*
X42051Y41410D01*
X42014Y41318D01*
X41972Y41240D01*
X41935Y41166D01*
X41898Y41106D01*
X41861Y41050D01*
X41829Y41004D01*
X41801Y40972D01*
X41783Y40944D01*
X41769Y40930D01*
X41764Y40925D01*
X41681Y40847D01*
X41594Y40782D01*
X41506Y40722D01*
X41409Y40676D01*
X41316Y40634D01*
X41219Y40597D01*
X41131Y40570D01*
X41039Y40547D01*
X40956Y40528D01*
X40877Y40514D01*
X40808Y40505D01*
X40748Y40500D01*
X40702Y40496D01*
X40665Y40491D01*
X40633D01*
X40503Y40496D01*
X40383Y40510D01*
X40268Y40533D01*
X40161Y40560D01*
X40060Y40593D01*
X39967Y40630D01*
X39884Y40667D01*
X39805Y40708D01*
X39741Y40750D01*
X39681Y40787D01*
X39630Y40824D01*
X39588Y40856D01*
X39551Y40884D01*
X39528Y40907D01*
X39514Y40921D01*
X39510Y40925D01*
X39436Y41013D01*
X39371Y41106D01*
X39311Y41203D01*
X39265Y41300D01*
X39223Y41401D01*
X39186Y41503D01*
X39159Y41605D01*
X39136Y41701D01*
X39122Y41789D01*
X39108Y41877D01*
X39099Y41951D01*
X39089Y42016D01*
Y42071D01*
X39085Y42113D01*
Y42136D01*
Y42145D01*
X39089Y42288D01*
X39103Y42422D01*
X39122Y42547D01*
X39149Y42667D01*
X39182Y42773D01*
X39219Y42875D01*
X39256Y42967D01*
X39297Y43046D01*
X39339Y43120D01*
X39376Y43185D01*
X39413Y43240D01*
X39445Y43286D01*
X39468Y43319D01*
X39491Y43346D01*
X39505Y43360D01*
X39510Y43365D01*
X39593Y43443D01*
X39681Y43513D01*
X39773Y43573D01*
X39866Y43624D01*
X39963Y43665D01*
X40055Y43702D01*
X40147Y43730D01*
X40235Y43753D01*
X40318Y43771D01*
X40397Y43785D01*
X40466Y43794D01*
X40526Y43804D01*
X40572D01*
X40609Y43808D01*
X40642D01*
X40780Y43804D01*
D02*
G37*
%LPC*%
G36*
X176153Y135459D02*
X172476D01*
Y135243D01*
X172259D01*
Y134377D01*
X176153D01*
Y134161D01*
X176369D01*
Y134377D01*
X176586D01*
Y135026D01*
X176369D01*
Y135243D01*
X176153D01*
Y135459D01*
D02*
G37*
G36*
X168366D02*
X164039D01*
Y135243D01*
X163823D01*
Y135026D01*
X163607D01*
Y132647D01*
X163823D01*
Y132431D01*
X164039D01*
Y132214D01*
X167933D01*
Y132431D01*
X168149D01*
Y132647D01*
X168366D01*
Y135459D01*
D02*
G37*
G36*
X181128Y223934D02*
X174855D01*
Y223717D01*
X165986D01*
Y223501D01*
X157766D01*
Y223285D01*
X152358D01*
Y223068D01*
X143489D01*
Y222852D01*
X142623D01*
Y222636D01*
X142191D01*
Y222419D01*
X141758D01*
Y222203D01*
X141326D01*
Y221987D01*
X140893D01*
Y221770D01*
X140460D01*
Y221554D01*
X140244D01*
Y221338D01*
X139811D01*
Y221121D01*
X139595D01*
Y220905D01*
X139379D01*
Y220472D01*
X139162D01*
Y220040D01*
X138946D01*
Y219824D01*
X138730D01*
Y219391D01*
X138514D01*
Y219175D01*
X138297D01*
Y218958D01*
X138081D01*
Y218526D01*
X137864D01*
Y218309D01*
X137648D01*
Y217877D01*
X137432D01*
Y217444D01*
X137216D01*
Y217228D01*
X136999D01*
Y216579D01*
X136783D01*
Y216146D01*
X136567D01*
Y215497D01*
X136350D01*
Y214848D01*
X136134D01*
Y214416D01*
X135918D01*
Y213767D01*
X135701D01*
Y213118D01*
X135485D01*
Y212901D01*
X135269D01*
Y212036D01*
X135052D01*
Y211603D01*
X134836D01*
Y211171D01*
X134620D01*
Y210522D01*
X134403D01*
Y210089D01*
X134187D01*
Y209440D01*
X133971D01*
Y208791D01*
X133754D01*
Y208359D01*
X133538D01*
Y207710D01*
X133322D01*
Y207277D01*
X133106D01*
Y206628D01*
X132889D01*
Y205979D01*
X132673D01*
Y205546D01*
X132457D01*
Y204897D01*
X132240D01*
Y204465D01*
X132024D01*
Y204032D01*
X131808D01*
Y203167D01*
X131591D01*
Y202734D01*
X131375D01*
Y202302D01*
X131159D01*
Y201653D01*
X130942D01*
Y201220D01*
X130726D01*
Y200571D01*
X130510D01*
Y199922D01*
X130293D01*
Y199489D01*
X130077D01*
Y198840D01*
X129861D01*
Y198408D01*
X129644D01*
Y197759D01*
X129428D01*
Y197110D01*
X129212D01*
Y196677D01*
X128995D01*
Y196028D01*
X128779D01*
Y195379D01*
X128563D01*
Y195163D01*
X128347D01*
Y194514D01*
X128130D01*
Y193649D01*
X131591D01*
Y193865D01*
X143272D01*
Y194081D01*
X151060D01*
Y194298D01*
X163607D01*
Y194514D01*
X174422D01*
Y194730D01*
X174639D01*
Y194514D01*
X175071D01*
Y194730D01*
X181128D01*
Y194514D01*
X191512D01*
Y194298D01*
X203842D01*
Y194081D01*
X211197D01*
Y193865D01*
X223959D01*
Y193649D01*
X227421D01*
Y194298D01*
X227204D01*
Y194730D01*
X226988D01*
Y195163D01*
X226772D01*
Y195812D01*
X226555D01*
Y196245D01*
X226339D01*
Y196894D01*
X226123D01*
Y197543D01*
X225906D01*
Y197975D01*
X225690D01*
Y198624D01*
X225474D01*
Y199057D01*
X225257D01*
Y199706D01*
X225041D01*
Y200355D01*
X224825D01*
Y200787D01*
X224608D01*
Y201436D01*
X224392D01*
Y202085D01*
X224176D01*
Y202302D01*
X223959D01*
Y203167D01*
X223743D01*
Y203600D01*
X223527D01*
Y204032D01*
X223311D01*
Y204681D01*
X223094D01*
Y205114D01*
X222878D01*
Y205763D01*
X222662D01*
Y206412D01*
X222445D01*
Y206844D01*
X222229D01*
Y207493D01*
X222013D01*
Y207926D01*
X221796D01*
Y208575D01*
X221580D01*
Y209224D01*
X221364D01*
Y209657D01*
X221147D01*
Y210305D01*
X220931D01*
Y210954D01*
X220715D01*
Y211171D01*
X220498D01*
Y211820D01*
X220282D01*
Y212469D01*
X220066D01*
Y212901D01*
X219849D01*
Y213550D01*
X219633D01*
Y213983D01*
X219417D01*
Y214632D01*
X219200D01*
Y215281D01*
X218984D01*
Y215713D01*
X218768D01*
Y216362D01*
X218551D01*
Y216795D01*
X218335D01*
Y217228D01*
X218119D01*
Y217660D01*
X217903D01*
Y217877D01*
X217686D01*
Y218309D01*
X217470D01*
Y218742D01*
X217254D01*
Y218958D01*
X217037D01*
Y219391D01*
X216821D01*
Y219607D01*
X216605D01*
Y220040D01*
X216388D01*
Y220256D01*
X216172D01*
Y220689D01*
X215956D01*
Y220905D01*
X215739D01*
Y221121D01*
Y221338D01*
X215307D01*
Y221554D01*
X214874D01*
Y221770D01*
X214441D01*
Y221987D01*
X214009D01*
Y222203D01*
X213792D01*
Y222419D01*
X213144D01*
Y222636D01*
X212927D01*
Y222852D01*
X211846D01*
Y223068D01*
X202544D01*
Y223285D01*
X197352D01*
Y223501D01*
X189132D01*
Y223717D01*
X181128D01*
Y223934D01*
D02*
G37*
G36*
X226555Y178507D02*
X205140D01*
Y178074D01*
X204923D01*
Y177641D01*
X204707D01*
Y177425D01*
X204491D01*
Y176992D01*
X204275D01*
Y176560D01*
X204058D01*
Y176343D01*
Y176127D01*
X203842D01*
Y175694D01*
X203625D01*
Y175262D01*
X203409D01*
Y174829D01*
X203193D01*
Y174397D01*
X202977D01*
Y173964D01*
X202760D01*
Y173531D01*
X202544D01*
Y173099D01*
X202328D01*
Y172666D01*
X202111D01*
Y172233D01*
X201895D01*
Y172017D01*
X201679D01*
Y171368D01*
X201462D01*
Y170935D01*
X201246D01*
Y170719D01*
X201030D01*
Y170070D01*
X200813D01*
Y169854D01*
X200597D01*
Y169421D01*
X200381D01*
Y168772D01*
X200164D01*
Y168556D01*
X199948D01*
Y168123D01*
X199732D01*
Y167691D01*
X199515D01*
Y167258D01*
X199299D01*
Y166825D01*
X214441D01*
Y167042D01*
X228286D01*
Y167691D01*
X228070D01*
Y168989D01*
X227853D01*
Y170719D01*
X227637D01*
Y171801D01*
X227421D01*
Y173964D01*
X227204D01*
Y175262D01*
X226988D01*
Y176776D01*
X226772D01*
Y178290D01*
X226555D01*
Y178507D01*
D02*
G37*
G36*
X150195D02*
X128779D01*
Y177425D01*
X128563D01*
Y176343D01*
X128347D01*
Y174397D01*
X128130D01*
Y172882D01*
X127914D01*
Y171584D01*
X127698D01*
Y169637D01*
X127481D01*
Y168340D01*
X127265D01*
Y167474D01*
X127049D01*
Y167042D01*
X140893D01*
Y166825D01*
X156035D01*
Y167474D01*
X155819D01*
Y167907D01*
X155603D01*
Y168123D01*
X155386D01*
Y168556D01*
X155170D01*
Y169205D01*
X154954D01*
Y169421D01*
X154737D01*
Y170070D01*
X154521D01*
Y170286D01*
X154305D01*
Y170719D01*
X154088D01*
Y171152D01*
X153872D01*
Y171584D01*
X153656D01*
Y172017D01*
X153439D01*
Y172450D01*
X153223D01*
Y172882D01*
X153007D01*
Y173315D01*
X152790D01*
Y173748D01*
X152574D01*
Y174180D01*
X152358D01*
Y174613D01*
X152142D01*
Y175045D01*
X151925D01*
Y175478D01*
X151709D01*
Y175911D01*
X151493D01*
Y176127D01*
X151276D01*
Y176776D01*
X151060D01*
Y177209D01*
X150844D01*
Y177425D01*
X150627D01*
Y178074D01*
X150411D01*
Y178290D01*
X150195D01*
Y178507D01*
D02*
G37*
%LPD*%
G36*
X196487Y213983D02*
X196271D01*
Y213550D01*
X196054D01*
Y213334D01*
X195838D01*
Y212901D01*
X195622D01*
Y212469D01*
X195405D01*
Y212252D01*
X195189D01*
Y211820D01*
X194973D01*
Y211387D01*
X194756D01*
Y210954D01*
X194540D01*
Y210522D01*
X194324D01*
Y210305D01*
X194107D01*
Y209873D01*
X193891D01*
Y209440D01*
X193675D01*
Y209224D01*
X193458D01*
Y208791D01*
X193242D01*
Y208359D01*
X193026D01*
Y208142D01*
X192810D01*
Y207493D01*
X192593D01*
Y207277D01*
X192377D01*
Y206844D01*
X192161D01*
Y206412D01*
X191944D01*
Y206195D01*
X191728D01*
Y205763D01*
X191512D01*
Y205330D01*
X191295D01*
Y205114D01*
X191079D01*
Y204897D01*
X190863D01*
Y204681D01*
X190430D01*
Y204032D01*
X190646D01*
Y203600D01*
X190863D01*
Y203167D01*
X191079D01*
Y202734D01*
X191295D01*
Y202518D01*
X191728D01*
Y202302D01*
X193458D01*
Y202085D01*
X193675D01*
Y201004D01*
Y200787D01*
Y200355D01*
X193458D01*
Y200138D01*
X190646D01*
Y200355D01*
X190214D01*
Y200571D01*
X189781D01*
Y200787D01*
X189348D01*
Y201220D01*
X189132D01*
Y201436D01*
X188916D01*
Y201653D01*
X188699D01*
Y202085D01*
X188483D01*
Y202518D01*
X188267D01*
Y202951D01*
X188050D01*
Y203383D01*
X187834D01*
Y203600D01*
X187618D01*
Y204032D01*
X187402D01*
Y204465D01*
X187185D01*
Y204897D01*
X186969D01*
Y205330D01*
X186753D01*
Y205546D01*
X186536D01*
Y205979D01*
X186320D01*
Y206412D01*
X186104D01*
Y206628D01*
X185887D01*
Y207061D01*
X185671D01*
Y207493D01*
X185455D01*
Y207926D01*
X185238D01*
Y208359D01*
X185022D01*
Y208575D01*
X184806D01*
Y209008D01*
X184589D01*
Y209440D01*
X184373D01*
Y209657D01*
X184157D01*
Y210305D01*
X183940D01*
Y210522D01*
X183724D01*
Y210954D01*
X183508D01*
Y211387D01*
X183291D01*
Y211603D01*
X183075D01*
Y212036D01*
X182859D01*
Y212469D01*
X182643D01*
Y212685D01*
X182426D01*
Y213334D01*
X182210D01*
Y213550D01*
X181994D01*
Y213983D01*
X181777D01*
Y214632D01*
X184373D01*
Y214416D01*
X184589D01*
Y214199D01*
X184806D01*
Y213767D01*
X185022D01*
Y213334D01*
X185238D01*
Y212901D01*
X185455D01*
Y212685D01*
X185671D01*
Y212252D01*
X185887D01*
Y211820D01*
X186104D01*
Y211387D01*
X186320D01*
Y211171D01*
X186536D01*
Y210738D01*
X186753D01*
Y210305D01*
X186969D01*
Y210089D01*
X187185D01*
Y209657D01*
X187402D01*
Y209224D01*
X187618D01*
Y208791D01*
X187834D01*
Y208575D01*
X188050D01*
Y208142D01*
X188267D01*
Y207710D01*
X188483D01*
Y207493D01*
X188699D01*
Y207061D01*
X188916D01*
Y206844D01*
X189348D01*
Y207061D01*
X189565D01*
Y207493D01*
X189781D01*
Y207926D01*
X189997D01*
Y208359D01*
X190214D01*
Y208575D01*
X190430D01*
Y209008D01*
X190646D01*
Y209440D01*
X190863D01*
Y209657D01*
X191079D01*
Y210089D01*
X191295D01*
Y210522D01*
X191512D01*
Y210954D01*
X191728D01*
Y211387D01*
X191944D01*
Y211603D01*
X192161D01*
Y212036D01*
X192377D01*
Y212469D01*
X192593D01*
Y212685D01*
X192810D01*
Y213118D01*
X193026D01*
Y213550D01*
X193242D01*
Y213767D01*
X193458D01*
Y214199D01*
X193675D01*
Y214416D01*
X193891D01*
Y214632D01*
X196487D01*
Y213983D01*
D02*
G37*
G36*
X212927Y214416D02*
X214009D01*
Y214199D01*
X214441D01*
Y213983D01*
X214874D01*
Y213767D01*
X215090D01*
Y213550D01*
X215307D01*
Y213334D01*
X215523D01*
Y212901D01*
X215739D01*
Y212469D01*
X215956D01*
Y204465D01*
X215739D01*
Y204248D01*
X213576D01*
Y204465D01*
X213360D01*
Y210954D01*
X213144D01*
Y211603D01*
X212927D01*
Y211820D01*
X212711D01*
Y212036D01*
X212278D01*
Y212252D01*
X208168D01*
Y212036D01*
X207952D01*
Y204465D01*
X207736D01*
Y204248D01*
X205789D01*
Y204465D01*
X205356D01*
Y212252D01*
X201030D01*
Y212036D01*
X200597D01*
Y211820D01*
X200381D01*
Y211387D01*
X200164D01*
Y204465D01*
X199948D01*
Y204248D01*
X197785D01*
Y204465D01*
X197569D01*
Y204681D01*
X197352D01*
Y210954D01*
X197569D01*
Y212685D01*
X197785D01*
Y212901D01*
X198001D01*
Y213334D01*
X198217D01*
Y213550D01*
X198434D01*
Y213767D01*
X198650D01*
Y213983D01*
X199083D01*
Y214199D01*
X199299D01*
Y214416D01*
X200381D01*
Y214632D01*
X212927D01*
Y214416D01*
D02*
G37*
G36*
X177018Y217228D02*
X177884D01*
Y217011D01*
X178316D01*
Y216795D01*
X178749D01*
Y216579D01*
X179182D01*
Y216362D01*
X179398D01*
Y216146D01*
X179614D01*
Y215713D01*
X179830D01*
Y215497D01*
X180047D01*
Y214848D01*
X180263D01*
Y213767D01*
X180479D01*
Y207926D01*
X180263D01*
Y206844D01*
X180047D01*
Y206412D01*
X179830D01*
Y205979D01*
X179614D01*
Y205763D01*
X179398D01*
Y205546D01*
X179182D01*
Y205330D01*
X178965D01*
Y205114D01*
X178749D01*
Y204897D01*
X178316D01*
Y204681D01*
X177451D01*
Y204465D01*
X176153D01*
Y204248D01*
X166635D01*
Y204465D01*
X166419D01*
Y204681D01*
X166202D01*
Y206628D01*
X166419D01*
Y206844D01*
X166635D01*
Y207061D01*
X176586D01*
Y207277D01*
X176802D01*
Y207493D01*
X177235D01*
Y207926D01*
X177451D01*
Y208575D01*
X177667D01*
Y213118D01*
X177451D01*
Y213767D01*
X177235D01*
Y214199D01*
X177018D01*
Y214416D01*
X176586D01*
Y214632D01*
X175937D01*
Y214848D01*
X166419D01*
Y215281D01*
X166202D01*
Y217011D01*
X166419D01*
Y217444D01*
X177018D01*
Y217228D01*
D02*
G37*
G36*
X164255Y214416D02*
X164472D01*
Y212469D01*
X155819D01*
Y212252D01*
X154737D01*
Y212036D01*
X154521D01*
Y211820D01*
X154305D01*
Y211171D01*
X154088D01*
Y210522D01*
X154305D01*
Y210305D01*
X163174D01*
Y210089D01*
X163607D01*
Y209873D01*
X164039D01*
Y209657D01*
X164255D01*
Y209440D01*
X164472D01*
Y209008D01*
X164688D01*
Y205763D01*
X164472D01*
Y205330D01*
X164255D01*
Y205114D01*
X164039D01*
Y204681D01*
X163390D01*
Y204465D01*
X162525D01*
Y204248D01*
X152142D01*
Y204465D01*
X151925D01*
Y204681D01*
X151709D01*
Y204897D01*
X151493D01*
Y212036D01*
X151709D01*
Y212685D01*
X151925D01*
Y213334D01*
X152142D01*
Y213550D01*
X152358D01*
Y213767D01*
X152574D01*
Y213983D01*
X153007D01*
Y214199D01*
X153439D01*
Y214416D01*
X154521D01*
Y214632D01*
X164255D01*
Y214416D01*
D02*
G37*
G36*
X146517D02*
X147599D01*
Y214199D01*
X148031D01*
Y213983D01*
X148248D01*
Y213767D01*
X148680D01*
Y213550D01*
X148897D01*
Y213118D01*
X149113D01*
Y212685D01*
X149329D01*
Y211820D01*
X149546D01*
Y204465D01*
X149113D01*
Y204248D01*
X147166D01*
Y204465D01*
X146734D01*
Y211603D01*
X146517D01*
Y211820D01*
X146301D01*
Y212036D01*
X146085D01*
Y212252D01*
X145003D01*
Y212469D01*
X140028D01*
Y212252D01*
X139811D01*
Y212469D01*
X139595D01*
Y212685D01*
X139379D01*
Y214416D01*
X139595D01*
Y214632D01*
X146517D01*
Y214416D01*
D02*
G37*
%LPC*%
G36*
X161876Y208575D02*
X154088D01*
Y206844D01*
X154305D01*
Y206412D01*
X161876D01*
Y206844D01*
X162092D01*
Y208359D01*
X161876D01*
Y208575D01*
D02*
G37*
G36*
X20989Y11762D02*
X20952D01*
X20878Y11758D01*
X20809Y11749D01*
X20744Y11739D01*
X20684Y11721D01*
X20578Y11675D01*
X20527Y11652D01*
X20485Y11628D01*
X20444Y11601D01*
X20412Y11578D01*
X20384Y11554D01*
X20356Y11531D01*
X20337Y11513D01*
X20324Y11504D01*
X20319Y11495D01*
X20314Y11490D01*
X20273Y11434D01*
X20231Y11374D01*
X20199Y11314D01*
X20171Y11245D01*
X20130Y11106D01*
X20102Y10972D01*
X20088Y10912D01*
X20083Y10852D01*
X20079Y10802D01*
X20074Y10755D01*
X20070Y10714D01*
Y10686D01*
Y10667D01*
Y10663D01*
X20074Y10561D01*
X20079Y10464D01*
X20093Y10376D01*
X20107Y10298D01*
X20125Y10219D01*
X20148Y10150D01*
X20171Y10090D01*
X20194Y10035D01*
X20217Y9984D01*
X20241Y9942D01*
X20259Y9905D01*
X20282Y9873D01*
X20296Y9850D01*
X20310Y9836D01*
X20314Y9827D01*
X20319Y9822D01*
X20365Y9771D01*
X20416Y9730D01*
X20471Y9693D01*
X20522Y9660D01*
X20578Y9637D01*
X20629Y9614D01*
X20730Y9582D01*
X20818Y9559D01*
X20855Y9554D01*
X20887Y9549D01*
X20915Y9545D01*
X20952D01*
X21021Y9549D01*
X21091Y9559D01*
X21155Y9572D01*
X21215Y9591D01*
X21326Y9633D01*
X21414Y9688D01*
X21456Y9711D01*
X21488Y9739D01*
X21520Y9762D01*
X21543Y9785D01*
X21562Y9799D01*
X21576Y9813D01*
X21585Y9822D01*
X21590Y9827D01*
X21631Y9882D01*
X21673Y9942D01*
X21705Y10007D01*
X21733Y10076D01*
X21779Y10210D01*
X21807Y10344D01*
X21816Y10409D01*
X21825Y10464D01*
X21830Y10520D01*
X21834Y10566D01*
X21839Y10603D01*
Y10631D01*
Y10649D01*
Y10654D01*
X21834Y10755D01*
X21830Y10848D01*
X21816Y10935D01*
X21802Y11019D01*
X21784Y11092D01*
X21765Y11162D01*
X21742Y11222D01*
X21719Y11277D01*
X21696Y11328D01*
X21673Y11370D01*
X21654Y11402D01*
X21636Y11434D01*
X21622Y11457D01*
X21608Y11471D01*
X21603Y11481D01*
X21599Y11485D01*
X21553Y11536D01*
X21502Y11578D01*
X21446Y11615D01*
X21396Y11647D01*
X21340Y11675D01*
X21285Y11693D01*
X21183Y11730D01*
X21091Y11749D01*
X21054Y11753D01*
X21017Y11758D01*
X20989Y11762D01*
D02*
G37*
G36*
X17940Y19586D02*
X17201D01*
X17159Y19581D01*
X17057D01*
X17016Y19576D01*
X16988D01*
X16974Y19572D01*
X16970D01*
X16914Y19558D01*
X16863Y19539D01*
X16822Y19521D01*
X16789Y19498D01*
X16762Y19475D01*
X16739Y19461D01*
X16729Y19447D01*
X16725Y19442D01*
X16697Y19405D01*
X16674Y19359D01*
X16660Y19318D01*
X16646Y19276D01*
X16642Y19239D01*
X16637Y19211D01*
Y19193D01*
Y19184D01*
X16642Y19133D01*
X16646Y19087D01*
X16660Y19045D01*
X16669Y19008D01*
X16683Y18980D01*
X16697Y18962D01*
X16702Y18948D01*
X16706Y18944D01*
X16734Y18911D01*
X16762Y18883D01*
X16822Y18842D01*
X16845Y18828D01*
X16868Y18819D01*
X16882Y18810D01*
X16886D01*
X16909Y18805D01*
X16947Y18796D01*
X16983Y18791D01*
X17025Y18786D01*
X17122Y18782D01*
X17219Y18777D01*
X17311Y18772D01*
X17940D01*
Y19586D01*
D02*
G37*
G36*
X44629Y43217D02*
X43987D01*
X43936Y43212D01*
X43816D01*
X43788Y43208D01*
X43737D01*
X43719Y43203D01*
X43714D01*
X43659Y43194D01*
X43608Y43180D01*
X43566Y43161D01*
X43529Y43143D01*
X43506Y43124D01*
X43483Y43106D01*
X43474Y43097D01*
X43469Y43092D01*
X43442Y43055D01*
X43423Y43014D01*
X43404Y42977D01*
X43395Y42940D01*
X43391Y42903D01*
X43386Y42875D01*
Y42856D01*
Y42852D01*
X43391Y42796D01*
X43400Y42746D01*
X43418Y42704D01*
X43432Y42667D01*
X43451Y42635D01*
X43469Y42616D01*
X43478Y42602D01*
X43483Y42598D01*
X43520Y42566D01*
X43562Y42542D01*
X43603Y42524D01*
X43645Y42510D01*
X43686Y42496D01*
X43714Y42492D01*
X43733Y42487D01*
X43760D01*
X43788Y42482D01*
X43931D01*
X44010Y42478D01*
X44629D01*
Y43217D01*
D02*
G37*
G36*
Y41946D02*
X43959D01*
X43894Y41942D01*
X43839Y41937D01*
X43783D01*
X43737Y41932D01*
X43696Y41928D01*
X43663Y41923D01*
X43631Y41919D01*
X43608Y41914D01*
X43571Y41909D01*
X43548Y41900D01*
X43543D01*
X43497Y41882D01*
X43455Y41859D01*
X43418Y41835D01*
X43391Y41808D01*
X43367Y41789D01*
X43354Y41771D01*
X43344Y41757D01*
X43340Y41752D01*
X43317Y41711D01*
X43298Y41669D01*
X43284Y41632D01*
X43275Y41591D01*
X43270Y41558D01*
X43266Y41531D01*
Y41512D01*
Y41508D01*
X43270Y41447D01*
X43280Y41392D01*
X43294Y41346D01*
X43312Y41309D01*
X43331Y41276D01*
X43344Y41253D01*
X43354Y41240D01*
X43358Y41235D01*
X43395Y41203D01*
X43432Y41175D01*
X43474Y41152D01*
X43511Y41133D01*
X43543Y41124D01*
X43571Y41115D01*
X43589Y41110D01*
X43594D01*
X43612Y41106D01*
X43640D01*
X43700Y41101D01*
X43774Y41096D01*
X43848D01*
X43917Y41092D01*
X44629D01*
Y41946D01*
D02*
G37*
G36*
X37329Y43004D02*
X36881Y41817D01*
X37764D01*
X37329Y43004D01*
D02*
G37*
G36*
X34705Y43208D02*
X33966D01*
X33924Y43203D01*
X33823D01*
X33781Y43198D01*
X33753D01*
X33740Y43194D01*
X33735D01*
X33679Y43180D01*
X33629Y43161D01*
X33587Y43143D01*
X33555Y43120D01*
X33527Y43097D01*
X33504Y43083D01*
X33495Y43069D01*
X33490Y43064D01*
X33462Y43027D01*
X33439Y42981D01*
X33425Y42940D01*
X33411Y42898D01*
X33407Y42861D01*
X33402Y42833D01*
Y42815D01*
Y42806D01*
X33407Y42755D01*
X33411Y42709D01*
X33425Y42667D01*
X33435Y42630D01*
X33448Y42602D01*
X33462Y42584D01*
X33467Y42570D01*
X33472Y42566D01*
X33499Y42533D01*
X33527Y42505D01*
X33587Y42464D01*
X33610Y42450D01*
X33633Y42441D01*
X33647Y42432D01*
X33652D01*
X33675Y42427D01*
X33712Y42418D01*
X33749Y42413D01*
X33790Y42408D01*
X33887Y42404D01*
X33984Y42399D01*
X34077Y42395D01*
X34705D01*
Y43208D01*
D02*
G37*
G36*
X31480D02*
X31060D01*
X31000Y43203D01*
X30944D01*
X30898Y43198D01*
X30857D01*
X30815Y43194D01*
X30783D01*
X30732Y43185D01*
X30695Y43180D01*
X30672Y43175D01*
X30667D01*
X30602Y43157D01*
X30547Y43134D01*
X30496Y43111D01*
X30450Y43083D01*
X30418Y43060D01*
X30390Y43041D01*
X30376Y43027D01*
X30371Y43023D01*
X30330Y42977D01*
X30293Y42926D01*
X30261Y42875D01*
X30233Y42829D01*
X30214Y42783D01*
X30200Y42746D01*
X30191Y42723D01*
X30187Y42718D01*
Y42713D01*
X30164Y42630D01*
X30145Y42542D01*
X30136Y42445D01*
X30127Y42353D01*
X30122Y42274D01*
X30117Y42237D01*
Y42205D01*
Y42182D01*
Y42164D01*
Y42150D01*
Y42145D01*
X30122Y42016D01*
X30127Y41896D01*
X30141Y41799D01*
X30150Y41715D01*
X30164Y41646D01*
X30168Y41618D01*
X30177Y41600D01*
X30182Y41581D01*
Y41568D01*
X30187Y41563D01*
Y41558D01*
X30214Y41484D01*
X30237Y41420D01*
X30270Y41369D01*
X30293Y41327D01*
X30316Y41295D01*
X30334Y41272D01*
X30348Y41258D01*
X30353Y41253D01*
X30395Y41221D01*
X30436Y41193D01*
X30478Y41170D01*
X30519Y41152D01*
X30556Y41138D01*
X30584Y41129D01*
X30602Y41119D01*
X30612D01*
X30663Y41110D01*
X30723Y41106D01*
X30787Y41096D01*
X30852D01*
X30912Y41092D01*
X31480D01*
Y43208D01*
D02*
G37*
G36*
X23432Y43004D02*
X22984Y41817D01*
X23866D01*
X23432Y43004D01*
D02*
G37*
G36*
X20808Y43208D02*
X20069D01*
X20027Y43203D01*
X19926D01*
X19884Y43198D01*
X19856D01*
X19842Y43194D01*
X19838D01*
X19782Y43180D01*
X19732Y43161D01*
X19690Y43143D01*
X19658Y43120D01*
X19630Y43097D01*
X19607Y43083D01*
X19598Y43069D01*
X19593Y43064D01*
X19565Y43027D01*
X19542Y42981D01*
X19528Y42940D01*
X19514Y42898D01*
X19510Y42861D01*
X19505Y42833D01*
Y42815D01*
Y42806D01*
X19510Y42755D01*
X19514Y42709D01*
X19528Y42667D01*
X19538Y42630D01*
X19551Y42602D01*
X19565Y42584D01*
X19570Y42570D01*
X19575Y42566D01*
X19602Y42533D01*
X19630Y42505D01*
X19690Y42464D01*
X19713Y42450D01*
X19736Y42441D01*
X19750Y42432D01*
X19755D01*
X19778Y42427D01*
X19815Y42418D01*
X19852Y42413D01*
X19893Y42408D01*
X19990Y42404D01*
X20087Y42399D01*
X20180Y42395D01*
X20808D01*
Y43208D01*
D02*
G37*
G36*
X15740Y43004D02*
X15292Y41817D01*
X16174D01*
X15740Y43004D01*
D02*
G37*
G36*
X40670Y43259D02*
X40633D01*
X40559Y43254D01*
X40489Y43245D01*
X40425Y43235D01*
X40365Y43217D01*
X40258Y43171D01*
X40207Y43148D01*
X40166Y43124D01*
X40124Y43097D01*
X40092Y43074D01*
X40064Y43051D01*
X40036Y43027D01*
X40018Y43009D01*
X40004Y43000D01*
X40000Y42990D01*
X39995Y42986D01*
X39953Y42930D01*
X39912Y42870D01*
X39879Y42810D01*
X39852Y42741D01*
X39810Y42602D01*
X39782Y42469D01*
X39769Y42408D01*
X39764Y42348D01*
X39759Y42298D01*
X39755Y42251D01*
X39750Y42210D01*
Y42182D01*
Y42164D01*
Y42159D01*
X39755Y42057D01*
X39759Y41960D01*
X39773Y41873D01*
X39787Y41794D01*
X39805Y41715D01*
X39829Y41646D01*
X39852Y41586D01*
X39875Y41531D01*
X39898Y41480D01*
X39921Y41438D01*
X39939Y41401D01*
X39963Y41369D01*
X39977Y41346D01*
X39990Y41332D01*
X39995Y41323D01*
X40000Y41318D01*
X40046Y41267D01*
X40097Y41226D01*
X40152Y41189D01*
X40203Y41156D01*
X40258Y41133D01*
X40309Y41110D01*
X40411Y41078D01*
X40499Y41055D01*
X40536Y41050D01*
X40568Y41045D01*
X40595Y41041D01*
X40633D01*
X40702Y41045D01*
X40771Y41055D01*
X40836Y41069D01*
X40896Y41087D01*
X41007Y41129D01*
X41094Y41184D01*
X41136Y41207D01*
X41168Y41235D01*
X41201Y41258D01*
X41224Y41281D01*
X41242Y41295D01*
X41256Y41309D01*
X41265Y41318D01*
X41270Y41323D01*
X41312Y41378D01*
X41353Y41438D01*
X41386Y41503D01*
X41413Y41572D01*
X41460Y41706D01*
X41487Y41840D01*
X41496Y41905D01*
X41506Y41960D01*
X41510Y42016D01*
X41515Y42062D01*
X41519Y42099D01*
Y42127D01*
Y42145D01*
Y42150D01*
X41515Y42251D01*
X41510Y42344D01*
X41496Y42432D01*
X41483Y42515D01*
X41464Y42589D01*
X41446Y42658D01*
X41423Y42718D01*
X41399Y42773D01*
X41376Y42824D01*
X41353Y42866D01*
X41335Y42898D01*
X41316Y42930D01*
X41302Y42954D01*
X41289Y42967D01*
X41284Y42977D01*
X41279Y42981D01*
X41233Y43032D01*
X41182Y43074D01*
X41127Y43111D01*
X41076Y43143D01*
X41021Y43171D01*
X40965Y43189D01*
X40863Y43226D01*
X40771Y43245D01*
X40734Y43249D01*
X40697Y43254D01*
X40670Y43259D01*
D02*
G37*
%LPD*%
D11*
X7480Y14961D02*
X46063D01*
X7480Y7087D02*
Y38583D01*
Y7087D02*
X46063D01*
X7480Y22835D02*
X46063Y22835D01*
X7480Y30709D02*
X46063D01*
X38189Y7087D02*
Y38583D01*
X46063Y7087D02*
Y38583D01*
X7480D02*
X46063D01*
M02*
