G04*
G04 #@! TF.GenerationSoftware,Altium Limited,Altium Designer,22.10.1 (41)*
G04*
G04 Layer_Color=16711935*
%FSLAX25Y25*%
%MOIN*%
G70*
G04*
G04 #@! TF.SameCoordinates,26C55208-6D98-4306-9539-90E50C8D8735*
G04*
G04*
G04 #@! TF.FilePolarity,Negative*
G04*
G01*
G75*
%ADD80C,0.03543*%
%ADD81C,0.09055*%
%ADD82C,0.24410*%
%ADD83C,0.01181*%
%ADD84C,0.11811*%
%ADD85O,0.10630X0.15354*%
%ADD86R,0.10630X0.15354*%
%ADD87O,0.05906X0.10236*%
%ADD88R,0.05906X0.10236*%
%ADD89C,0.06693*%
%ADD90C,0.07480*%
D80*
X327559Y17717D02*
D03*
X310236D02*
D03*
D81*
X17717Y92520D02*
D03*
X279528Y62992D02*
D03*
Y7874D02*
D03*
D82*
X177165Y98425D02*
D03*
Y283465D02*
D03*
D83*
X9252Y291142D02*
D03*
D84*
X235039Y9843D02*
D03*
X119291D02*
D03*
D85*
X235039Y60236D02*
D03*
X218504D02*
D03*
X201969D02*
D03*
X185433D02*
D03*
X168898D02*
D03*
X152362D02*
D03*
X135827D02*
D03*
X119291D02*
D03*
X218504Y38583D02*
D03*
X201969D02*
D03*
X185433D02*
D03*
X168898D02*
D03*
X152362D02*
D03*
X135827D02*
D03*
X119291D02*
D03*
D86*
X235039D02*
D03*
D87*
X258937Y139764D02*
D03*
D88*
X248937D02*
D03*
D89*
X16535Y187008D02*
D03*
X46457D02*
D03*
D90*
X91535Y11811D02*
D03*
X73819D02*
D03*
X96457Y21654D02*
D03*
X68898D02*
D03*
M02*
