G04*
G04 #@! TF.GenerationSoftware,Altium Limited,Altium Designer,22.10.1 (41)*
G04*
G04 Layer_Physical_Order=1*
G04 Layer_Color=255*
%FSLAX25Y25*%
%MOIN*%
G70*
G04*
G04 #@! TF.SameCoordinates,26C55208-6D98-4306-9539-90E50C8D8735*
G04*
G04*
G04 #@! TF.FilePolarity,Positive*
G04*
G01*
G75*
%ADD11C,0.01000*%
%ADD15R,0.03150X0.03543*%
%ADD16R,0.12205X0.09449*%
%ADD17O,0.02362X0.08661*%
%ADD18R,0.07874X0.15748*%
%ADD19R,0.07874X0.13780*%
%ADD20R,0.01968X0.08661*%
%ADD21O,0.01968X0.08661*%
%ADD22R,0.02559X0.03347*%
%ADD23R,0.03937X0.04724*%
%ADD24R,0.04724X0.03937*%
%ADD25R,0.06496X0.04724*%
%ADD26R,0.03543X0.03150*%
%ADD27R,0.03150X0.03937*%
%ADD28O,0.05118X0.02362*%
%ADD29R,0.02362X0.04724*%
%ADD30R,0.08898X0.08504*%
%ADD31O,0.02362X0.05118*%
%ADD32R,0.08504X0.08898*%
%ADD33R,0.04724X0.06496*%
%ADD34R,0.08661X0.06693*%
%ADD35R,0.04724X0.02362*%
%ADD36R,0.07874X0.08661*%
%ADD37R,0.05118X0.14567*%
%ADD38R,0.03937X0.03150*%
%ADD39R,0.04921X0.04331*%
%ADD40R,0.06496X0.14488*%
%ADD41O,0.01575X0.05315*%
%ADD42R,0.05906X0.03543*%
%ADD43R,0.03543X0.05906*%
%ADD44R,0.04921X0.07087*%
%ADD45O,0.07087X0.06299*%
%ADD46R,0.02953X0.03347*%
%ADD80C,0.03543*%
%ADD81C,0.09055*%
%ADD82C,0.24410*%
%ADD84C,0.11811*%
%ADD91R,0.01968X0.01968*%
%ADD92C,0.03937*%
%ADD93R,0.14567X0.14567*%
%ADD94C,0.02362*%
%ADD95C,0.01575*%
%ADD96C,0.03937*%
%ADD97C,0.01968*%
%ADD98C,0.03150*%
%ADD99C,0.03543*%
%ADD100R,0.01968X0.21260*%
%ADD101R,0.11811X0.01968*%
%ADD102R,0.01968X0.12362*%
%ADD103R,0.19685X0.01968*%
%ADD104R,0.10630X0.01968*%
%ADD105R,0.01968X0.17480*%
%ADD106R,0.03543X0.21260*%
%ADD107C,0.01299*%
%ADD108R,0.03543X0.01968*%
%ADD109O,0.10236X0.14961*%
%ADD110R,0.10236X0.14961*%
%ADD111O,0.05512X0.09843*%
%ADD112R,0.05512X0.09843*%
%ADD113C,0.06299*%
%ADD114C,0.07087*%
%ADD115C,0.02362*%
G36*
X64339Y288386D02*
X64416Y287997D01*
X64636Y287668D01*
X64961Y287451D01*
Y234855D01*
X64207Y234102D01*
X61626D01*
Y235248D01*
X56484D01*
Y229319D01*
X59622D01*
X61597Y227344D01*
X62056Y227037D01*
X62598Y226929D01*
X64961D01*
Y222047D01*
X62598Y219685D01*
X41560D01*
X41402Y219831D01*
X41024Y220472D01*
X41082Y220768D01*
Y221248D01*
X41744D01*
Y225776D01*
X41744Y225799D01*
Y226563D01*
X41744Y226587D01*
Y231114D01*
X34979D01*
X34843Y231141D01*
X33855D01*
X29200Y235796D01*
Y237992D01*
X29062Y238688D01*
X28668Y239278D01*
X28078Y239672D01*
X27802Y239727D01*
X27543Y240581D01*
X28450Y241489D01*
X32417D01*
X32593Y241524D01*
X36169D01*
Y241686D01*
X37228D01*
Y239949D01*
X44929D01*
Y241095D01*
X48118D01*
Y238768D01*
X49363D01*
Y235248D01*
X48610D01*
Y229319D01*
X53752D01*
Y235248D01*
X53000D01*
Y238768D01*
X54244D01*
Y247059D01*
X48118D01*
Y244732D01*
X44929D01*
Y245878D01*
X37228D01*
Y245322D01*
X36169D01*
Y246665D01*
X30240D01*
Y245126D01*
X27697D01*
X27001Y244987D01*
X26411Y244593D01*
X21096Y239278D01*
X20702Y238688D01*
X20563Y237992D01*
Y235236D01*
X20702Y234540D01*
X21096Y233950D01*
X21686Y233556D01*
X22382Y233418D01*
X23078Y233556D01*
X23668Y233950D01*
X24062Y234540D01*
X24200Y235236D01*
Y237239D01*
X24776Y237815D01*
X25563Y237489D01*
Y235236D01*
X25702Y234540D01*
X26096Y233950D01*
X26686Y233556D01*
X27382Y233418D01*
X27539Y233449D01*
X32266Y228722D01*
X32726Y228415D01*
X33268Y228307D01*
X33453D01*
Y226587D01*
X33453Y226563D01*
Y225799D01*
X33453Y225776D01*
Y221248D01*
X37113D01*
X37414Y220521D01*
X36579Y219685D01*
X787D01*
Y287370D01*
X5512D01*
X5900Y287448D01*
X6230Y287668D01*
X6450Y287997D01*
X6527Y288386D01*
Y289160D01*
X7315Y289574D01*
X7480Y289506D01*
X11024D01*
X11485Y289697D01*
X11676Y290158D01*
Y292126D01*
X15883D01*
Y290158D01*
X15902Y290113D01*
Y286429D01*
X14886D01*
Y280500D01*
X15839D01*
Y278161D01*
X14492D01*
Y273020D01*
X20421D01*
Y278161D01*
X19074D01*
Y280500D01*
X20028D01*
Y286429D01*
X19137D01*
Y290113D01*
X19156Y290158D01*
Y292126D01*
X64339D01*
Y288386D01*
D02*
G37*
G36*
X304724Y177165D02*
X269291D01*
Y191339D01*
X270866Y192913D01*
X304724D01*
Y177165D01*
D02*
G37*
G36*
X323228Y191339D02*
Y179134D01*
X321260Y177165D01*
X311417D01*
X310630Y176378D01*
Y174618D01*
X310618D01*
Y171378D01*
X310618Y171051D01*
X310618Y171051D01*
Y170878D01*
X310618D01*
X310618Y170551D01*
Y168492D01*
X309842Y167717D01*
X301969D01*
Y170472D01*
X307480D01*
Y171051D01*
X307492D01*
Y174618D01*
X307480D01*
Y175197D01*
X305512Y177165D01*
Y192913D01*
X321654D01*
X323228Y191339D01*
D02*
G37*
G36*
X306693Y175062D02*
Y171653D01*
X301575D01*
X300787Y170866D01*
X300787Y167323D01*
X294488D01*
X291732Y164567D01*
Y160236D01*
X269291D01*
Y176378D01*
X305377D01*
X306693Y175062D01*
D02*
G37*
G36*
X213386Y155512D02*
X202756D01*
Y171260D01*
X213386D01*
Y155512D01*
D02*
G37*
G36*
X309055Y150394D02*
X307470Y148809D01*
X279528D01*
Y140811D01*
X279066Y140619D01*
X264567Y155118D01*
Y159449D01*
X292520D01*
Y164432D01*
X294623Y166535D01*
X309055D01*
X309055Y150394D01*
D02*
G37*
G36*
X69685Y146457D02*
X71260Y144882D01*
X71260Y135827D01*
X48031D01*
Y130843D01*
X45928Y128740D01*
X31496D01*
X31496Y144882D01*
X33071Y146457D01*
X69685Y146457D01*
D02*
G37*
G36*
X71260Y118898D02*
X35174D01*
X33858Y120213D01*
Y123622D01*
X38976D01*
X39764Y124409D01*
X39764Y127953D01*
X46063D01*
X48819Y130709D01*
Y135039D01*
X71260D01*
Y118898D01*
D02*
G37*
G36*
X135039Y114173D02*
X95669D01*
Y125984D01*
X135039D01*
Y114173D01*
D02*
G37*
G36*
X133197Y103506D02*
X133548Y103575D01*
X134269Y104057D01*
X134646Y104621D01*
Y104331D01*
X135827Y103150D01*
X137691Y103150D01*
X139764Y101245D01*
Y55905D01*
X131890D01*
Y101575D01*
X131102Y102362D01*
Y104090D01*
X131124Y104057D01*
X131846Y103575D01*
X132197Y103506D01*
Y108780D01*
X133197D01*
Y103506D01*
D02*
G37*
G36*
X123197D02*
X123548Y103575D01*
X124269Y104057D01*
X124409Y104267D01*
Y102756D01*
X123228Y101575D01*
Y55905D01*
X115354D01*
Y101245D01*
X117427Y103150D01*
X119291Y103150D01*
X120754Y104612D01*
X121124Y104057D01*
X121846Y103575D01*
X122197Y103506D01*
Y108780D01*
X123197D01*
Y103506D01*
D02*
G37*
G36*
X71260Y103937D02*
X69685Y102362D01*
X35827D01*
Y118110D01*
X71260D01*
Y103937D01*
D02*
G37*
G36*
X38583Y124803D02*
X33071D01*
Y124224D01*
X33059D01*
Y120658D01*
X33071D01*
Y120079D01*
X35039Y118110D01*
Y102362D01*
X18898D01*
X17323Y103937D01*
Y116142D01*
X19291Y118110D01*
X29134D01*
X29921Y118898D01*
Y120658D01*
X29933D01*
Y123898D01*
X29933Y124224D01*
X29933Y124224D01*
Y124398D01*
X29933D01*
X29933Y124724D01*
Y126784D01*
X30709Y127559D01*
X38583D01*
Y124803D01*
D02*
G37*
G36*
X115585Y112492D02*
X115473Y111929D01*
Y109280D01*
X117697D01*
Y108280D01*
X115473D01*
Y105630D01*
X115642Y104779D01*
X116124Y104057D01*
X116465Y103830D01*
X116514Y103196D01*
X114913Y101725D01*
X114907Y101712D01*
X114893Y101706D01*
X114839Y101575D01*
X95669D01*
Y112992D01*
X115228D01*
X115585Y112492D01*
D02*
G37*
G36*
X157480Y80709D02*
X146850D01*
Y96457D01*
X157480D01*
Y80709D01*
D02*
G37*
%LPC*%
G36*
X12551Y286827D02*
X10083D01*
Y283965D01*
X12551D01*
Y286827D01*
D02*
G37*
G36*
X9083D02*
X6614D01*
Y283965D01*
X9083D01*
Y286827D01*
D02*
G37*
G36*
X12551Y282965D02*
X10083D01*
Y280102D01*
X12551D01*
Y282965D01*
D02*
G37*
G36*
X9083D02*
X6614D01*
Y280102D01*
X9083D01*
Y282965D01*
D02*
G37*
G36*
X12551Y263205D02*
X10083D01*
Y260343D01*
X12551D01*
Y263205D01*
D02*
G37*
G36*
X9083D02*
X6614D01*
Y260343D01*
X9083D01*
Y263205D01*
D02*
G37*
G36*
X12551Y259343D02*
X10083D01*
Y256480D01*
X12551D01*
Y259343D01*
D02*
G37*
G36*
X9083D02*
X6614D01*
Y256480D01*
X9083D01*
Y259343D01*
D02*
G37*
G36*
X54642Y257693D02*
X51681D01*
Y253650D01*
X54642D01*
Y257693D01*
D02*
G37*
G36*
X45327Y256512D02*
X41579D01*
Y253650D01*
X45327D01*
Y256512D01*
D02*
G37*
G36*
X50681Y257693D02*
X47721D01*
Y253650D01*
X50681D01*
Y257693D01*
D02*
G37*
G36*
X32705Y254937D02*
X29842D01*
Y252468D01*
X32705D01*
Y254937D01*
D02*
G37*
G36*
X45327Y252650D02*
X41579D01*
Y249787D01*
X45327D01*
Y252650D01*
D02*
G37*
G36*
X20421Y270287D02*
X14492D01*
Y265146D01*
X15839D01*
Y262807D01*
X14886D01*
Y256878D01*
X15839D01*
Y254539D01*
X14492D01*
Y249398D01*
X20421D01*
Y254539D01*
X19074D01*
Y256878D01*
X20028D01*
Y262807D01*
X19074D01*
Y265146D01*
X20421D01*
Y270287D01*
D02*
G37*
G36*
X40579Y256512D02*
X36831D01*
Y255615D01*
X36567Y254937D01*
X36043Y254937D01*
X33705D01*
Y251969D01*
Y249000D01*
X36567D01*
Y249109D01*
X36831Y249787D01*
X37354Y249787D01*
X40579D01*
Y253150D01*
X41079D01*
D01*
X40579D01*
Y256512D01*
D02*
G37*
G36*
X32705Y251468D02*
X29842D01*
Y249000D01*
X32705D01*
Y251468D01*
D02*
G37*
G36*
X54642Y252650D02*
X51681D01*
Y248606D01*
X54642D01*
Y252650D01*
D02*
G37*
G36*
X50681D02*
X47721D01*
Y248606D01*
X50681D01*
Y252650D01*
D02*
G37*
G36*
X12882Y240117D02*
Y237114D01*
X14606D01*
Y237992D01*
X14436Y238843D01*
X13954Y239565D01*
X13233Y240047D01*
X12882Y240117D01*
D02*
G37*
G36*
X11882D02*
X11531Y240047D01*
X10809Y239565D01*
X10327Y238843D01*
X10158Y237992D01*
Y237114D01*
X11882D01*
Y240117D01*
D02*
G37*
G36*
X20421Y246665D02*
X14492D01*
Y241524D01*
X15764D01*
Y238781D01*
X15702Y238688D01*
X15563Y237992D01*
Y235236D01*
X15702Y234540D01*
X16096Y233950D01*
X16686Y233556D01*
X17382Y233418D01*
X18078Y233556D01*
X18668Y233950D01*
X19062Y234540D01*
X19200Y235236D01*
Y237992D01*
X19062Y238688D01*
X19000Y238781D01*
Y241524D01*
X20421D01*
Y246665D01*
D02*
G37*
G36*
X14606Y236114D02*
X12882D01*
Y233112D01*
X13233Y233182D01*
X13954Y233664D01*
X14436Y234385D01*
X14606Y235236D01*
Y236114D01*
D02*
G37*
G36*
X11882D02*
X10158D01*
Y235236D01*
X10327Y234385D01*
X10809Y233664D01*
X11531Y233182D01*
X11882Y233112D01*
Y236114D01*
D02*
G37*
%LPD*%
D11*
X17520Y291142D02*
X17520Y291142D01*
D15*
X10236Y151969D02*
D03*
Y158661D02*
D03*
X51968Y28543D02*
D03*
Y35236D02*
D03*
X159449Y123425D02*
D03*
Y116732D02*
D03*
X261811Y191535D02*
D03*
Y198228D02*
D03*
X234252D02*
D03*
Y191535D02*
D03*
X328740Y45866D02*
D03*
Y52559D02*
D03*
X253937Y122638D02*
D03*
Y129331D02*
D03*
X246063D02*
D03*
Y122638D02*
D03*
X236221Y136417D02*
D03*
Y143110D02*
D03*
X224410Y136417D02*
D03*
Y143110D02*
D03*
X246063Y111614D02*
D03*
Y104921D02*
D03*
X65335Y50000D02*
D03*
Y43307D02*
D03*
X7874Y18898D02*
D03*
Y12205D02*
D03*
X28346Y28543D02*
D03*
Y35236D02*
D03*
X40157Y28543D02*
D03*
Y35236D02*
D03*
X33465Y49803D02*
D03*
Y56496D02*
D03*
X131890Y190354D02*
D03*
Y183661D02*
D03*
X124016Y190354D02*
D03*
Y183661D02*
D03*
X108268Y190354D02*
D03*
Y183661D02*
D03*
X100394Y190354D02*
D03*
Y183661D02*
D03*
X124016Y176575D02*
D03*
Y169882D02*
D03*
X100394Y176575D02*
D03*
Y169882D02*
D03*
X303150Y117520D02*
D03*
Y110827D02*
D03*
X295276Y117520D02*
D03*
Y110827D02*
D03*
X261811Y184449D02*
D03*
Y177756D02*
D03*
X76772Y169882D02*
D03*
Y176575D02*
D03*
X84646Y183661D02*
D03*
Y190354D02*
D03*
X76772Y183661D02*
D03*
Y190354D02*
D03*
D16*
X125197Y120079D02*
D03*
D17*
X132697Y131378D02*
D03*
X127697D02*
D03*
X122697D02*
D03*
X117697D02*
D03*
X132697Y108780D02*
D03*
X127697D02*
D03*
X122697D02*
D03*
X117697D02*
D03*
D18*
X336417Y9843D02*
D03*
X301378D02*
D03*
D19*
X336417Y28150D02*
D03*
X301378D02*
D03*
D20*
X312598Y30118D02*
D03*
D21*
X315748D02*
D03*
X318898D02*
D03*
X322047D02*
D03*
X325197D02*
D03*
D22*
X248425Y96457D02*
D03*
X239764D02*
D03*
X257480Y206693D02*
D03*
X266142D02*
D03*
X238583D02*
D03*
X229921D02*
D03*
X243701D02*
D03*
X252362D02*
D03*
X224803Y206693D02*
D03*
X216142D02*
D03*
X155118Y131890D02*
D03*
X163779D02*
D03*
X150000Y131890D02*
D03*
X141339D02*
D03*
X37008Y155315D02*
D03*
X45669D02*
D03*
D23*
X101575Y137795D02*
D03*
X109449D02*
D03*
Y129921D02*
D03*
X101575D02*
D03*
X151575Y124016D02*
D03*
X143701D02*
D03*
X226378Y198819D02*
D03*
X218504D02*
D03*
X246063D02*
D03*
X253937D02*
D03*
X320866Y110236D02*
D03*
X312992D02*
D03*
X275590Y19685D02*
D03*
X283465D02*
D03*
X224410Y96457D02*
D03*
X232283D02*
D03*
X68898Y88583D02*
D03*
X76772D02*
D03*
X283465Y51181D02*
D03*
X275590D02*
D03*
X92520Y59055D02*
D03*
X100394D02*
D03*
X92520Y66929D02*
D03*
X100394D02*
D03*
X92520Y74803D02*
D03*
X100394D02*
D03*
Y82677D02*
D03*
X92520D02*
D03*
X100394Y43307D02*
D03*
X92520D02*
D03*
X61024Y96457D02*
D03*
X53150D02*
D03*
X72835Y43307D02*
D03*
X80709D02*
D03*
X72835Y33465D02*
D03*
X64961D02*
D03*
X320866Y118110D02*
D03*
X312992D02*
D03*
X220472Y273622D02*
D03*
X228346D02*
D03*
X59055Y232283D02*
D03*
X51181D02*
D03*
X17457Y259842D02*
D03*
X9583D02*
D03*
X17457Y283465D02*
D03*
X9583D02*
D03*
D24*
X109449Y110236D02*
D03*
Y118110D02*
D03*
X299213Y86614D02*
D03*
Y78740D02*
D03*
X336614Y53150D02*
D03*
Y45276D02*
D03*
X305118D02*
D03*
Y53150D02*
D03*
X289370Y31496D02*
D03*
Y39370D02*
D03*
X214567Y104331D02*
D03*
Y112205D02*
D03*
X206693D02*
D03*
Y104331D02*
D03*
X43307Y125984D02*
D03*
Y133858D02*
D03*
X19685Y114173D02*
D03*
Y122047D02*
D03*
X33465Y70866D02*
D03*
Y62992D02*
D03*
X131890Y177165D02*
D03*
Y169291D02*
D03*
X108268Y177165D02*
D03*
Y169291D02*
D03*
X297244Y169291D02*
D03*
Y161417D02*
D03*
X320866Y173228D02*
D03*
Y181102D02*
D03*
X253937Y277559D02*
D03*
Y285433D02*
D03*
X17457Y251969D02*
D03*
Y244094D02*
D03*
X33205D02*
D03*
Y251969D02*
D03*
X17457Y275590D02*
D03*
Y267717D02*
D03*
X253937Y39370D02*
D03*
Y31496D02*
D03*
X84646Y169291D02*
D03*
Y177165D02*
D03*
D25*
X99606Y119291D02*
D03*
Y109055D02*
D03*
X279528Y30315D02*
D03*
Y40551D02*
D03*
X53150Y132677D02*
D03*
Y142913D02*
D03*
X41339Y72047D02*
D03*
Y61811D02*
D03*
X287402Y162598D02*
D03*
Y152362D02*
D03*
X246063Y285433D02*
D03*
Y275197D02*
D03*
X41079Y242913D02*
D03*
Y253150D02*
D03*
D26*
X144291Y116142D02*
D03*
X150984D02*
D03*
X225787Y190945D02*
D03*
X219094D02*
D03*
X246654Y190945D02*
D03*
X253346D02*
D03*
X341929Y70866D02*
D03*
X335236D02*
D03*
X34843Y137795D02*
D03*
X28150D02*
D03*
X12992D02*
D03*
X19685D02*
D03*
X12992Y130118D02*
D03*
X19685D02*
D03*
X34055Y82677D02*
D03*
X40748D02*
D03*
X34055Y90551D02*
D03*
X40748D02*
D03*
X99803D02*
D03*
X93110D02*
D03*
X93110Y51181D02*
D03*
X99803D02*
D03*
X99803Y33465D02*
D03*
X93110D02*
D03*
X86024D02*
D03*
X79331D02*
D03*
X202165Y190945D02*
D03*
X195472D02*
D03*
X178543D02*
D03*
X171850D02*
D03*
X154921Y190945D02*
D03*
X148228D02*
D03*
X341929Y110236D02*
D03*
X335236D02*
D03*
X327559Y165157D02*
D03*
X320866D02*
D03*
X320866Y157480D02*
D03*
X327559D02*
D03*
X312402D02*
D03*
X305709D02*
D03*
X202165Y242126D02*
D03*
X195472D02*
D03*
X178543D02*
D03*
X171850D02*
D03*
X154921Y242126D02*
D03*
X148228D02*
D03*
X124606Y242126D02*
D03*
X131299D02*
D03*
X100984D02*
D03*
X107677D02*
D03*
X77362D02*
D03*
X84055D02*
D03*
D27*
X222638Y174803D02*
D03*
X230118D02*
D03*
X226378Y183465D02*
D03*
X198819Y174803D02*
D03*
X195079Y183465D02*
D03*
X202559D02*
D03*
X175197Y174803D02*
D03*
X171457Y183465D02*
D03*
X178937D02*
D03*
X151575Y174803D02*
D03*
X147835Y183465D02*
D03*
X155315D02*
D03*
X338583Y78347D02*
D03*
X334842Y87008D02*
D03*
X342323D02*
D03*
X334842Y94095D02*
D03*
X342323D02*
D03*
X338583Y102756D02*
D03*
X147835Y100000D02*
D03*
X155315D02*
D03*
X151575Y108661D02*
D03*
D28*
X306496Y102146D02*
D03*
Y97146D02*
D03*
Y92146D02*
D03*
Y87146D02*
D03*
X327362Y102146D02*
D03*
Y97146D02*
D03*
Y92146D02*
D03*
Y87146D02*
D03*
X306496Y82146D02*
D03*
Y77146D02*
D03*
Y72146D02*
D03*
Y67146D02*
D03*
X327362Y82146D02*
D03*
Y77146D02*
D03*
Y72146D02*
D03*
Y67146D02*
D03*
D29*
X313583Y44685D02*
D03*
X317323D02*
D03*
X321063D02*
D03*
X317323Y53740D02*
D03*
X321063D02*
D03*
X313583D02*
D03*
D30*
X265748Y25787D02*
D03*
Y45079D02*
D03*
D31*
X237815Y126575D02*
D03*
X232815D02*
D03*
X227815D02*
D03*
X222815D02*
D03*
X237815Y105709D02*
D03*
X232815D02*
D03*
X227815D02*
D03*
X222815D02*
D03*
X80335Y81299D02*
D03*
X75335D02*
D03*
X70335D02*
D03*
X65335D02*
D03*
X80335Y60433D02*
D03*
X75335D02*
D03*
X70335D02*
D03*
X65335D02*
D03*
X12382Y215748D02*
D03*
X17382D02*
D03*
X22382D02*
D03*
X27382D02*
D03*
X12382Y236614D02*
D03*
X17382D02*
D03*
X22382D02*
D03*
X27382D02*
D03*
D32*
X222244Y82677D02*
D03*
X202953D02*
D03*
D33*
X243307D02*
D03*
X233071D02*
D03*
X67716Y96457D02*
D03*
X77953D02*
D03*
D34*
X252756Y82677D02*
D03*
X270866D02*
D03*
D35*
X36024Y122441D02*
D03*
Y126181D02*
D03*
Y129921D02*
D03*
X26969D02*
D03*
Y126181D02*
D03*
Y122441D02*
D03*
X304528Y172835D02*
D03*
Y169095D02*
D03*
Y165354D02*
D03*
X313583D02*
D03*
Y169095D02*
D03*
Y172835D02*
D03*
D36*
X53150Y109055D02*
D03*
Y123228D02*
D03*
X64961Y109055D02*
D03*
Y123228D02*
D03*
X275590Y172047D02*
D03*
Y186221D02*
D03*
X287402Y172047D02*
D03*
Y186221D02*
D03*
D37*
X43701Y110236D02*
D03*
X31102D02*
D03*
X309449Y185039D02*
D03*
X296850D02*
D03*
D38*
X17323Y159055D02*
D03*
Y151575D02*
D03*
X25984Y155315D02*
D03*
D39*
X51181Y20472D02*
D03*
Y10630D02*
D03*
X39370D02*
D03*
Y20472D02*
D03*
X27559D02*
D03*
Y10630D02*
D03*
X15748D02*
D03*
Y20472D02*
D03*
D40*
X210078Y163385D02*
D03*
X187598D02*
D03*
X127559Y88583D02*
D03*
X150039D02*
D03*
D41*
X8760Y55610D02*
D03*
X11319D02*
D03*
X13878D02*
D03*
X16437D02*
D03*
X18996D02*
D03*
X21555D02*
D03*
X24114D02*
D03*
X26673D02*
D03*
X8760Y78248D02*
D03*
X11319D02*
D03*
X13878D02*
D03*
X16437D02*
D03*
X18996D02*
D03*
X21555D02*
D03*
X24114D02*
D03*
X26673D02*
D03*
D42*
X264764Y250433D02*
D03*
Y255433D02*
D03*
Y260433D02*
D03*
Y265433D02*
D03*
Y285433D02*
D03*
Y280433D02*
D03*
Y275433D02*
D03*
Y270433D02*
D03*
Y220433D02*
D03*
Y225433D02*
D03*
Y230433D02*
D03*
Y235433D02*
D03*
Y240433D02*
D03*
Y245433D02*
D03*
X333661Y220433D02*
D03*
Y225433D02*
D03*
Y230433D02*
D03*
Y235433D02*
D03*
Y240433D02*
D03*
Y245433D02*
D03*
Y250433D02*
D03*
Y255433D02*
D03*
Y260433D02*
D03*
Y265433D02*
D03*
Y270433D02*
D03*
Y275433D02*
D03*
Y280433D02*
D03*
Y285433D02*
D03*
D43*
X276713Y215512D02*
D03*
X281713D02*
D03*
X286713D02*
D03*
X291713D02*
D03*
X316713D02*
D03*
X296713D02*
D03*
X321713D02*
D03*
X306713D02*
D03*
X301713D02*
D03*
X311713D02*
D03*
D44*
X236221Y284646D02*
D03*
Y274409D02*
D03*
X51181Y253150D02*
D03*
Y242913D02*
D03*
D45*
X193819Y198819D02*
D03*
X203819D02*
D03*
X193819Y234252D02*
D03*
X203819D02*
D03*
X170197Y198819D02*
D03*
X180197D02*
D03*
X170197Y234252D02*
D03*
X180197D02*
D03*
X146575Y198819D02*
D03*
X156575D02*
D03*
X146575Y234252D02*
D03*
X156575D02*
D03*
X132953Y234252D02*
D03*
X122953D02*
D03*
X132953Y198819D02*
D03*
X122953D02*
D03*
X109331Y234252D02*
D03*
X99331D02*
D03*
X109331Y198819D02*
D03*
X99331D02*
D03*
X85709Y234252D02*
D03*
X75709D02*
D03*
X85709Y198819D02*
D03*
X75709D02*
D03*
D46*
X35531Y223524D02*
D03*
Y228839D02*
D03*
X39665Y223524D02*
D03*
Y228839D02*
D03*
D80*
X327559Y17717D02*
D03*
X310236D02*
D03*
D81*
X17717Y92520D02*
D03*
X279528Y62992D02*
D03*
Y7874D02*
D03*
D82*
X177165Y98425D02*
D03*
Y283465D02*
D03*
D84*
X235039Y9843D02*
D03*
X119291D02*
D03*
D91*
X17520Y291142D02*
D03*
D92*
X72835Y277559D02*
D03*
X347244Y6693D02*
D03*
Y277559D02*
D03*
D93*
X293307Y255039D02*
D03*
D94*
X265748Y207087D02*
X266142D01*
X101181Y137795D02*
X105327Y141941D01*
X34055Y62402D02*
X41339D01*
X7874Y236221D02*
X12382D01*
X97588Y129921D02*
X97638Y129971D01*
X232815Y96988D02*
X233071Y96732D01*
Y93799D02*
Y96732D01*
X109449Y129921D02*
X117697D01*
X202756Y82677D02*
Y100787D01*
X251575Y275197D02*
X256811Y280433D01*
X17323Y151575D02*
X21654D01*
X10630D02*
X17323D01*
X10236Y151969D02*
X10630Y151575D01*
X29724Y114173D02*
X31102Y112795D01*
X19685Y114173D02*
X29724D01*
X31102Y110236D02*
Y112795D01*
X272835Y189370D02*
Y191732D01*
Y188976D02*
Y189370D01*
X275590Y186614D01*
X266142Y196063D02*
X272835Y189370D01*
X47244Y66831D02*
Y90551D01*
X47244Y90551D02*
X47244Y90551D01*
X40748Y90551D02*
X47244D01*
X271654Y192913D02*
Y194882D01*
X272835Y188976D02*
X275590Y186221D01*
X271654Y192913D02*
X272835Y191732D01*
X275590Y186221D02*
Y186614D01*
X77953Y96457D02*
X82677D01*
X76772Y88583D02*
X80709D01*
X74803Y116142D02*
X96457Y137795D01*
X76772Y88189D02*
Y88583D01*
X53150Y96457D02*
Y109055D01*
X96457Y137795D02*
X101181D01*
X97638Y129921D02*
Y129971D01*
X97588Y129921D02*
X97638D01*
X101575D01*
X154122Y141941D02*
X163779Y132283D01*
X105327Y141941D02*
X154122D01*
X66929Y141732D02*
X74803Y149606D01*
X122047Y163386D02*
X124016Y165354D01*
X100394Y165354D02*
X102362Y163386D01*
X122047D01*
X78740D02*
X98425D01*
X76772Y165354D02*
X78740Y163386D01*
X163779Y131890D02*
X213386D01*
X224410Y142913D01*
X228661Y111614D02*
X246063D01*
X227815Y110768D02*
X228661Y111614D01*
X213386Y198819D02*
X218504D01*
X240945D02*
X246063D01*
X246358Y198524D01*
X327756Y165354D02*
X332677D01*
X85709Y234252D02*
X90551D01*
X193819Y198819D02*
X193819Y198819D01*
X188976Y234252D02*
X193819D01*
X188976Y198819D02*
X193819D01*
X235433Y285433D02*
X236221Y284646D01*
X230315Y285433D02*
X235433D01*
X85709Y234252D02*
X85709Y234252D01*
X109331D02*
X114173D01*
X132953D02*
X137795D01*
X146575Y229134D02*
Y234252D01*
X165354Y234252D02*
X170197D01*
X170197Y234252D01*
X146575Y198819D02*
X146575Y198819D01*
X141732Y198819D02*
X146575D01*
X165354D02*
X170197D01*
X170197Y198819D01*
X141732Y165354D02*
Y176969D01*
X147835Y183071D01*
X139764Y163386D02*
X141732Y165354D01*
X41339Y72047D02*
Y76772D01*
X53150Y47244D02*
Y96457D01*
X72835Y267717D02*
X220472D01*
Y273622D01*
X53150Y47244D02*
X62783Y37610D01*
X54331Y141732D02*
X66929D01*
X64961Y232283D02*
X66929Y234252D01*
Y261811D01*
X59055Y232283D02*
X64961D01*
X66929Y261811D02*
X72835Y267717D01*
X242126Y210630D02*
X262205D01*
X238583Y207087D02*
X242126Y210630D01*
X262205D02*
X265748Y207087D01*
X266142Y206693D02*
Y207087D01*
X238583Y206693D02*
Y207087D01*
X98425Y163386D02*
X100394Y165354D01*
X202053Y76069D02*
Y80006D01*
X193863Y49375D02*
Y67879D01*
X202053Y80006D02*
X202756Y80709D01*
X193863Y67879D02*
X202053Y76069D01*
X200329Y80054D02*
X202953Y82677D01*
X202756Y100787D02*
X206299Y104331D01*
X13780Y141732D02*
X15748Y143701D01*
X23622D01*
X29528Y149606D01*
X40354D02*
X45669Y154921D01*
Y155315D01*
X29528Y149606D02*
X40354D01*
X309055Y110236D02*
X312992D01*
X306496Y102146D02*
X311024D01*
X299213Y74803D02*
Y78740D01*
X328740Y52559D02*
Y57087D01*
X236221Y143110D02*
Y143307D01*
X236614Y143701D02*
X240158D01*
X236221Y143307D02*
X236614Y143701D01*
X74803Y149606D02*
X277559D01*
X125984Y163386D02*
X139764D01*
X124016Y165354D02*
Y169882D01*
Y165354D02*
X125984Y163386D01*
X100394Y165354D02*
Y169882D01*
X76772Y165354D02*
Y169882D01*
X53150Y142913D02*
X54331Y141732D01*
X277559Y149606D02*
X279528Y151575D01*
X276122Y214921D02*
X276713Y215512D01*
Y210630D02*
Y215512D01*
X224622Y76772D02*
Y80299D01*
X222244Y82677D02*
X224622Y80299D01*
X222244Y82677D02*
X224319Y84752D01*
X214567Y104331D02*
X214567Y104331D01*
X214567Y100394D02*
Y104331D01*
X224319Y84752D02*
Y88472D01*
X220472Y96457D02*
X224410D01*
X228346Y82677D02*
X233071D01*
X194685Y182677D02*
X195079Y183071D01*
Y183465D01*
X189665Y165452D02*
Y171948D01*
X187598Y163385D02*
X189665Y165452D01*
Y171948D02*
X192520Y174803D01*
X198819D01*
X163779Y131890D02*
Y132283D01*
X224410Y142913D02*
Y143110D01*
X266142Y196063D02*
Y206693D01*
X253937Y83858D02*
Y122638D01*
X243307Y82677D02*
X252756D01*
X253937Y83858D01*
X206299Y104331D02*
X206693D01*
X243307Y82677D02*
Y83563D01*
X233071Y93799D02*
X243307Y83563D01*
X100394Y59055D02*
X104331D01*
X270866Y70370D02*
Y82677D01*
Y70370D02*
X278244Y62992D01*
X279528D01*
X333661Y285433D02*
X340551D01*
X235433Y273622D02*
X236221Y274409D01*
X228346Y273622D02*
X235433D01*
X243701Y201476D02*
Y206693D01*
Y201476D02*
X245177Y200000D01*
X246358Y191240D02*
X246654Y190945D01*
X246358Y191240D02*
Y198524D01*
X216142Y201476D02*
X217618Y200000D01*
X216142Y201476D02*
Y206693D01*
X218799Y191240D02*
X219094Y190945D01*
X218799Y191240D02*
Y198524D01*
X218504Y198819D02*
X218799Y198524D01*
X206693Y112205D02*
X214567D01*
X222815Y101594D02*
X222835Y101575D01*
X237815Y98799D02*
X239764Y96850D01*
Y96457D02*
Y96850D01*
X248425Y96457D02*
Y102362D01*
X246063Y104724D02*
Y104921D01*
Y104724D02*
X248425Y102362D01*
X226378Y112205D02*
X227815Y110768D01*
Y105709D02*
Y110768D01*
X214567Y112205D02*
X226378D01*
X224410Y143110D02*
X236221D01*
X222815Y101594D02*
Y105709D01*
X237815Y98799D02*
Y105709D01*
X232815Y96988D02*
Y105709D01*
X185433Y40945D02*
X193863Y49375D01*
X185433Y38583D02*
Y40945D01*
X168898Y38583D02*
X185433D01*
X194291Y182677D02*
X194685D01*
X190748Y179134D02*
X194291Y182677D01*
X171457Y183071D02*
X175394Y179134D01*
X190748D01*
X171457Y183071D02*
Y183465D01*
X171063Y182677D02*
X171457Y183071D01*
X170669Y182677D02*
X171063D01*
X167126Y179134D02*
X170669Y182677D01*
X151772Y179134D02*
X167126D01*
X147835Y183071D02*
X151772Y179134D01*
X147835Y183071D02*
Y183465D01*
X142815Y125197D02*
X142913D01*
X143701Y124409D01*
Y124016D02*
Y124409D01*
X141339Y126673D02*
Y131890D01*
Y126673D02*
X142815Y125197D01*
X138583Y124016D02*
X143701D01*
X143996Y116437D02*
Y123721D01*
Y116437D02*
X144291Y116142D01*
X143701Y124016D02*
X143996Y123721D01*
X115748Y27559D02*
X143701D01*
X152362Y36220D02*
Y38583D01*
X143701Y27559D02*
X152362Y36220D01*
X100394Y42913D02*
X115748Y27559D01*
X100394Y42913D02*
Y43307D01*
X104331Y9843D02*
Y28937D01*
X100394Y32874D02*
X104331Y28937D01*
X99803Y33465D02*
X100000D01*
X100394Y33071D01*
X98425Y3937D02*
X104331Y9843D01*
X100394Y32874D02*
Y33071D01*
X100394Y82677D02*
X104331D01*
X65335Y50000D02*
Y60433D01*
Y43307D02*
X72835D01*
X86614D02*
X92520D01*
X80709D02*
X86614D01*
X62783Y37610D02*
X95461D01*
X7874Y62992D02*
X33465D01*
X3937Y59055D02*
X7874Y62992D01*
X3937Y43307D02*
Y59055D01*
X95461Y37610D02*
X99213Y33858D01*
X99409D01*
X99803Y33465D01*
X75335Y86752D02*
X76772Y88189D01*
X75335Y81299D02*
Y86752D01*
X61024Y96457D02*
X67716D01*
X68307Y89173D02*
Y95866D01*
Y89173D02*
X68898Y88583D01*
X67716Y96457D02*
X68307Y95866D01*
X68898Y88189D02*
X70335Y86752D01*
Y81299D02*
Y86752D01*
X68898Y88189D02*
Y88583D01*
X313583Y172835D02*
X320472D01*
X320866Y173228D01*
X327559Y165157D02*
X327756Y165354D01*
X12795Y129921D02*
X12992Y130118D01*
X7874Y129921D02*
X12795D01*
X19685Y122047D02*
X20079Y122441D01*
X26969D01*
X109449Y129921D02*
Y137795D01*
X117697Y129921D02*
Y131378D01*
X132697D02*
Y137421D01*
Y125020D02*
Y131378D01*
X130315Y122638D02*
X132697Y125020D01*
X15748Y25591D02*
X15748Y25591D01*
X15748Y20472D02*
Y25591D01*
X33465Y56496D02*
Y62402D01*
Y62992D02*
X34055Y62402D01*
X7874Y18898D02*
Y39370D01*
X3937Y43307D02*
X7874Y39370D01*
X58169Y3937D02*
X98425D01*
X51181Y10630D02*
X51476D01*
X58169Y3937D01*
X33465Y70866D02*
X33465Y70866D01*
X33465Y70866D02*
Y74803D01*
X41339Y61811D02*
X42224D01*
X40748Y82677D02*
Y90551D01*
X33465Y56496D02*
X33465Y56496D01*
X42224Y61811D02*
X47244Y66831D01*
X61024Y33465D02*
X64961D01*
X33465Y252228D02*
Y255906D01*
X237008Y285433D02*
X246063D01*
X236221Y284646D02*
X237008Y285433D01*
X246063D02*
X253937D01*
X264764D01*
X237008Y275197D02*
X246063D01*
X236221Y274409D02*
X237008Y275197D01*
X246063D02*
X251575D01*
X256811Y280433D02*
X264764D01*
X51181Y253150D02*
Y259842D01*
Y232283D02*
Y242913D01*
X41079Y253150D02*
X41339Y253409D01*
Y257874D01*
X33205Y251969D02*
X33465Y252228D01*
X41079Y242913D02*
X50921D01*
X33795Y243504D02*
X40488D01*
X41079Y242913D01*
X33205Y244094D02*
X33795Y243504D01*
X32417Y243307D02*
X33205Y244094D01*
X27697Y243307D02*
X32417D01*
X22382Y237992D02*
X27697Y243307D01*
X22382Y236614D02*
Y237992D01*
X12382Y236221D02*
Y236614D01*
X320866Y110236D02*
Y118110D01*
X325020Y102146D02*
X327362D01*
X320866Y106299D02*
X325020Y102146D01*
X320866Y106299D02*
Y110236D01*
X305118Y53150D02*
Y57087D01*
X336614Y53150D02*
Y57087D01*
X317323Y40157D02*
Y44685D01*
X301378Y9843D02*
Y28150D01*
Y9843D02*
X336417D01*
Y28150D01*
X336614Y28346D02*
Y45276D01*
X336417Y28150D02*
X336614Y28346D01*
X39370Y10630D02*
X51181D01*
X27559D02*
X39370D01*
X45669Y155315D02*
X46063Y155709D01*
Y186614D01*
X46457Y187008D01*
D95*
X342369Y109993D02*
Y110236D01*
X37402Y116142D02*
X43701D01*
X251969Y206693D02*
X253937Y204724D01*
X265748Y274449D02*
X266732Y275433D01*
X334796Y110236D02*
Y114023D01*
X335101Y106631D02*
Y110236D01*
X85177Y189626D02*
Y198287D01*
X132421Y189626D02*
Y198287D01*
X226083Y183760D02*
Y191240D01*
X127421Y79229D02*
X127910Y78740D01*
X27559Y20472D02*
Y28543D01*
X39370Y20472D02*
Y28543D01*
X51181Y20472D02*
Y28543D01*
X9449Y157677D02*
X10236Y158465D01*
X3937Y92520D02*
Y152362D01*
X10236Y158465D02*
Y158661D01*
X9252Y157677D02*
X9449D01*
X3937Y152362D02*
X9252Y157677D01*
X10236Y158661D02*
X16929D01*
X17323Y159055D01*
X335101Y106631D02*
X338583Y103150D01*
X334796Y110236D02*
X335101D01*
X342913Y109449D02*
X343156D01*
X346457Y106149D01*
Y75197D02*
Y106149D01*
X342369Y109993D02*
X342913Y109449D01*
X342369Y110236D02*
Y114023D01*
X342369Y110236D02*
X342369Y110236D01*
Y114023D02*
X342520Y114173D01*
X334646D02*
X334796Y114023D01*
X311221Y181102D02*
X320866D01*
X309449Y182874D02*
X311221Y181102D01*
X309449Y182874D02*
Y185039D01*
X107402Y67724D02*
Y67724D01*
Y52047D02*
Y67724D01*
X229921Y206693D02*
X233071D01*
X224803D02*
X229921D01*
X49213Y45276D02*
X49213D01*
X21168D02*
X49213D01*
X20472Y42520D02*
X44685D01*
X51968Y35236D02*
Y35433D01*
X51181Y36220D02*
X51968Y35433D01*
X50984Y36220D02*
X51181D01*
X44685Y42520D02*
X50984Y36220D01*
X27559D02*
X28346Y35433D01*
X27362Y36220D02*
X27559D01*
X28346Y35236D02*
Y35433D01*
X26575Y37008D02*
X27362Y36220D01*
X18110Y37008D02*
X26575D01*
X40157Y35236D02*
Y35433D01*
X39173Y36220D02*
X39370D01*
X19291Y39764D02*
X35630D01*
X39370Y36220D02*
X40157Y35433D01*
X35630Y39764D02*
X39173Y36220D01*
X155905Y223622D02*
X231496D01*
X75984Y218898D02*
X151181D01*
X155905Y223622D01*
X160630Y220472D02*
X233071D01*
X96850Y214567D02*
X154724D01*
X160630Y220472D01*
X162205Y217717D02*
X234646D01*
X100000Y211024D02*
X155512D01*
X162205Y217717D01*
X160236Y207874D02*
X167323Y214961D01*
X71260Y207874D02*
X160236D01*
X167323Y214961D02*
X236221D01*
X72835Y205118D02*
X161811D01*
X168898Y212205D02*
X237795D01*
X161811Y205118D02*
X168898Y212205D01*
X20866Y50607D02*
X21555Y51296D01*
Y55610D01*
X20866Y50394D02*
Y50607D01*
X16437Y82579D02*
X16535Y82677D01*
X16437Y78248D02*
Y82579D01*
X55512Y155512D02*
Y192126D01*
X71260Y207874D01*
X58661Y190945D02*
X72835Y205118D01*
X58661Y151181D02*
Y190945D01*
X320866Y280315D02*
X325748Y275433D01*
X333661D01*
X326772Y280315D02*
X326831Y280374D01*
X333602D02*
X333661Y280433D01*
X326831Y280374D02*
X333602D01*
X242126Y245276D02*
X244488Y242913D01*
X189370Y245276D02*
X242126D01*
X202165Y242126D02*
X239551D01*
X241519Y240158D01*
X241732D01*
X224410Y234252D02*
X240945D01*
X237795Y230315D02*
X237795Y230315D01*
X224410Y230315D02*
X237795D01*
X231496Y223622D02*
X234252Y226378D01*
X253031Y240433D02*
X264764D01*
X233071Y220472D02*
X253031Y240433D01*
X252362Y235433D02*
X264764D01*
X234646Y217717D02*
X252362Y235433D01*
X246693Y225433D02*
X264764D01*
X236221Y214961D02*
X246693Y225433D01*
X237795Y212205D02*
X240551Y214961D01*
X264961D01*
X219291Y229134D02*
X224410Y234252D01*
X220472Y226378D02*
X224410Y230315D01*
X163976Y127953D02*
X216929D01*
Y259842D02*
X245276D01*
X272622Y273591D02*
X272835D01*
X270779Y275433D02*
X272622Y273591D01*
X350787Y71260D02*
Y264567D01*
X341732Y273622D02*
X350787Y264567D01*
X346457Y66929D02*
X350787Y71260D01*
X266732Y275433D02*
X270779D01*
X318110Y245276D02*
X333504D01*
X333661Y245433D01*
X333602Y240492D02*
X333661Y240433D01*
X318110Y240551D02*
X318169Y240492D01*
X333602D01*
X154331Y226378D02*
X220472D01*
X318110Y250394D02*
X318150Y250433D01*
X333661D01*
X322835Y235433D02*
X333661D01*
X322106Y230374D02*
X333602D01*
X322047Y230315D02*
X322106Y230374D01*
X333602D02*
X333661Y230433D01*
X224410Y136463D02*
X225197Y137251D01*
X228196D02*
X228346Y137402D01*
X224410Y136417D02*
Y136463D01*
X225197Y137251D02*
X228196D01*
X222815Y134823D02*
X224410Y136417D01*
X236221D02*
Y136463D01*
X232283Y137402D02*
X232434Y137251D01*
X235433D01*
X236221Y136463D01*
Y136417D02*
X237815Y134823D01*
X287402Y186221D02*
X290551Y183071D01*
Y180134D02*
Y183071D01*
Y180134D02*
X291339Y179347D01*
Y179134D02*
Y179347D01*
X289370Y131890D02*
X325984D01*
X334842Y220433D02*
X337402Y217874D01*
X334646Y145669D02*
X337402Y148425D01*
Y217874D01*
X340551Y146457D02*
Y223228D01*
X325984Y131890D02*
X340551Y146457D01*
X346457Y143307D02*
Y262205D01*
X327165Y124016D02*
X346457Y143307D01*
X309449Y124016D02*
X327165D01*
X304331Y126772D02*
X325590D01*
X295276Y117717D02*
X304331Y126772D01*
X325590D02*
X343701Y144882D01*
X338110Y265433D02*
X343701Y259842D01*
Y144882D02*
Y259842D01*
X333661Y225433D02*
X338347D01*
X340551Y223228D01*
X333661Y270433D02*
X338228D01*
X346457Y262205D01*
X333661Y265433D02*
X338110D01*
X245276Y259842D02*
X255866Y270433D01*
X264764D01*
X256693Y265354D02*
X256732Y265394D01*
X264724D02*
X264764Y265433D01*
X256732Y265394D02*
X264724D01*
X281801Y215600D02*
Y239282D01*
X281890Y239370D01*
X321655Y215570D02*
Y220078D01*
X298819Y242913D02*
X321655Y220078D01*
Y215570D02*
X321713Y215512D01*
X245276Y248031D02*
X246850Y246457D01*
X161024Y248031D02*
X245276D01*
X186221Y242126D02*
X189370Y245276D01*
X133465Y250787D02*
X251181D01*
X256535Y245433D01*
X124803Y242126D02*
X133465Y250787D01*
X34154Y90650D02*
Y94390D01*
X34252Y94488D01*
X34055Y90551D02*
X34154Y90650D01*
Y82776D02*
Y86516D01*
X34055Y82677D02*
X34154Y82776D01*
Y86516D02*
X34252Y86614D01*
X45472Y112598D02*
X50000D01*
X43701Y114370D02*
X45472Y112598D01*
X53150Y109055D02*
Y109449D01*
X43701Y114370D02*
Y116142D01*
X50000Y112598D02*
X53150Y109449D01*
X12382Y214370D02*
X21634Y205118D01*
X62205D02*
X75984Y218898D01*
X21634Y205118D02*
X62205D01*
X224803Y206693D02*
X224803Y206693D01*
X224803Y206299D02*
Y206693D01*
X127628Y131447D02*
Y137726D01*
Y131447D02*
X127697Y131378D01*
X127559Y137795D02*
X127628Y137726D01*
X108661Y169291D02*
X112205Y172835D01*
X108268Y190157D02*
X112205Y186221D01*
Y172835D02*
Y186221D01*
X108268Y169291D02*
X113438D01*
X108268Y169291D02*
X108661D01*
X122569Y131506D02*
Y137667D01*
X122441Y137795D02*
X122569Y137667D01*
Y131506D02*
X122697Y131378D01*
X90347Y169280D02*
X90359Y169269D01*
X84646Y169291D02*
X84657Y169280D01*
X90347D01*
X85177Y189626D02*
X88583Y186221D01*
Y172835D02*
Y186221D01*
X85039Y169291D02*
X88583Y172835D01*
X149606Y221654D02*
X154331Y226378D01*
X74410Y221654D02*
X149606D01*
X264961Y214961D02*
X273228Y206693D01*
X313386D01*
X316713Y210020D02*
Y215512D01*
X313386Y206693D02*
X316713Y210020D01*
X17382Y214370D02*
X23878Y207874D01*
X60630D02*
X74410Y221654D01*
X23878Y207874D02*
X60630D01*
X152756Y229134D02*
X219291D01*
X148031Y224410D02*
X152756Y229134D01*
X72835Y224410D02*
X148031D01*
X59055Y210630D02*
X72835Y224410D01*
X264882Y230315D02*
X269685D01*
X264764Y230433D02*
X264882Y230315D01*
X271654Y232283D02*
Y246457D01*
X269685Y230315D02*
X271654Y232283D01*
X281713Y215512D02*
X281801Y215600D01*
X178543Y242126D02*
X186221D01*
X155118Y242126D02*
X161024Y248031D01*
X112598Y253543D02*
X254331D01*
X101181Y242126D02*
X112598Y253543D01*
X254331D02*
X257441Y250433D01*
X263898Y256299D02*
X264764Y255433D01*
X91732Y256299D02*
X263898D01*
X77559Y242126D02*
X91732Y256299D01*
X154921Y242126D02*
X155118D01*
X83842Y60433D02*
X84433Y61024D01*
X84646D01*
X80335Y60433D02*
X83842D01*
X325016Y261811D02*
X326394Y260433D01*
X324803Y261811D02*
X325016D01*
X326394Y260433D02*
X333661D01*
X256709D02*
X264764D01*
X252362Y206693D02*
X257480D01*
X248031D02*
X251969D01*
X216535Y155512D02*
Y165354D01*
X214567Y153543D02*
X216535Y155512D01*
X193443Y153543D02*
X214567D01*
X227815Y124547D02*
X230315Y122047D01*
X227815Y124547D02*
Y126575D01*
X230315Y122047D02*
X245472D01*
X216535Y165354D02*
X220472Y169291D01*
X225000D01*
X212205Y174803D02*
X222638D01*
X210078Y163385D02*
Y172676D01*
X212205Y174803D01*
X195669Y242126D02*
X203543Y234252D01*
X195472Y242126D02*
X195669D01*
X203543Y234252D02*
X203819D01*
X179921Y234252D02*
X180197D01*
X171850Y242126D02*
X172047D01*
X179921Y234252D01*
X148425Y242126D02*
X156299Y234252D01*
X148228Y242126D02*
X148425D01*
X156299Y234252D02*
X156575D01*
X333661Y220433D02*
X334842D01*
X332677Y157480D02*
X332677Y157480D01*
X327559Y157480D02*
X332677D01*
X90551Y242126D02*
X93520Y239158D01*
Y231283D02*
Y239158D01*
X264764Y275433D02*
X265748Y274449D01*
X62598Y228346D02*
X90583D01*
X93520Y231283D01*
X96457Y228346D01*
X113699Y169552D02*
X113912D01*
X108268Y169291D02*
X108268Y169291D01*
X113438D02*
X113699Y169552D01*
X80335Y82490D02*
X82490Y84646D01*
X80335Y81299D02*
Y82490D01*
X82490Y84646D02*
X82677D01*
X151575Y171260D02*
Y174803D01*
X151575Y174803D02*
X151575Y174803D01*
X62992Y88563D02*
X65335Y86221D01*
X62992Y88563D02*
Y88583D01*
X131890Y169291D02*
X137795D01*
X137795Y169291D01*
X65335Y81299D02*
Y86221D01*
X26122Y210630D02*
X59055D01*
Y231890D02*
X62598Y228346D01*
X160433Y124409D02*
X163976Y127953D01*
X159449Y123425D02*
Y123622D01*
X160236Y124409D01*
X160433D01*
X131890Y169291D02*
X131890Y169291D01*
X246063Y129331D02*
X253937D01*
X246063D02*
Y134724D01*
X232283Y131677D02*
X232815Y131145D01*
X232283Y131677D02*
Y131890D01*
X232815Y126575D02*
Y131145D01*
X245472Y122047D02*
X246063Y122638D01*
X13629Y138432D02*
Y141582D01*
X12992Y137795D02*
X13629Y138432D01*
Y141582D02*
X13780Y141732D01*
X3937Y92520D02*
X11319Y85138D01*
X25984Y155315D02*
X37008D01*
X175197Y174803D02*
X175197Y174803D01*
Y171260D02*
Y174803D01*
Y171260D02*
X175197Y171260D01*
X12382Y214370D02*
Y215748D01*
X17382Y214370D02*
Y215748D01*
X22382Y214370D02*
X26122Y210630D01*
X22382Y214370D02*
Y215748D01*
X293307Y114173D02*
X300000D01*
X303150Y111024D01*
Y117717D02*
X309449Y124016D01*
X295276Y117520D02*
Y117717D01*
X303150Y117520D02*
Y117717D01*
X295276Y100394D02*
Y110827D01*
Y100394D02*
X298524Y97146D01*
X306496D01*
X303150Y110827D02*
Y111024D01*
X291339Y100394D02*
Y112205D01*
X293307Y114173D01*
X342126Y70866D02*
X346457Y75197D01*
X335433Y70866D02*
X339370Y66929D01*
X335236Y70866D02*
X335433D01*
X339370Y66929D02*
X346457D01*
X291339Y100394D02*
X299587Y92146D01*
X306496D01*
X328740Y41339D02*
Y45866D01*
X322123Y34721D02*
X328740Y41339D01*
X322047Y30118D02*
X322123Y30193D01*
Y34721D01*
X59055Y231890D02*
Y232283D01*
X96457Y228346D02*
X114173D01*
X120110D02*
X137795D01*
X117142Y231315D02*
X120110Y228346D01*
X137795D02*
X140764Y231315D01*
Y239158D01*
X137795Y242126D02*
X140764Y239158D01*
X131299Y242126D02*
X137795D01*
X107677Y242126D02*
X114173D01*
X107677Y242126D02*
X107677Y242126D01*
X114173D02*
X117142Y239158D01*
X114173Y228346D02*
X117142Y231315D01*
Y239158D01*
X84055Y242126D02*
X90551D01*
X187598Y159389D02*
Y163385D01*
Y159389D02*
X193443Y153543D01*
X225000Y169291D02*
X230118Y174409D01*
Y174803D01*
X127421Y88445D02*
X127559Y88583D01*
X127421Y79229D02*
Y88445D01*
X127910Y78740D02*
X127953D01*
X151591Y100181D02*
X151682Y100091D01*
X155224D02*
X155315Y100000D01*
X151682Y100091D02*
X155224D01*
X147835Y90787D02*
X150039Y88583D01*
X147835Y90787D02*
Y100000D01*
X101575Y68110D02*
Y69503D01*
X104700Y70425D02*
X107402Y67724D01*
X100394Y66929D02*
X101575Y68110D01*
X102497Y70425D02*
X104700D01*
X101575Y69503D02*
X102497Y70425D01*
X100394Y74441D02*
Y74803D01*
Y74441D02*
X101575Y73260D01*
X105874D01*
X110236Y68898D01*
Y53221D02*
Y68898D01*
X73111Y72284D02*
X90416D01*
X70485Y60584D02*
Y62519D01*
X73363Y63996D02*
Y68526D01*
X74286Y69449D02*
X90416D01*
X70485Y62519D02*
X70528Y62562D01*
Y69700D01*
X73111Y72284D01*
X73363Y63996D02*
X75335Y62024D01*
X70335Y60433D02*
X70485Y60584D01*
X73363Y68526D02*
X74286Y69449D01*
X75335Y60433D02*
Y62024D01*
X110236Y53221D02*
X112788Y50669D01*
X107402Y52047D02*
X111614Y47835D01*
X123425D02*
X125984Y45276D01*
X111614Y47835D02*
X123425D01*
X112788Y50669D02*
X124599D01*
X128819Y46450D01*
Y43211D02*
Y46450D01*
X125984Y43526D02*
Y45276D01*
X119291Y38583D02*
Y38601D01*
X123292Y42602D02*
X125060D01*
X128819Y43211D02*
X129741Y42289D01*
X132121D01*
X119291Y38601D02*
X123292Y42602D01*
X132121Y42289D02*
X135827Y38583D01*
X125060Y42602D02*
X125984Y43526D01*
X92815Y51476D02*
X93110Y51181D01*
X92520Y59055D02*
X92815Y58760D01*
Y51476D02*
Y58760D01*
X92520Y59055D02*
Y66929D01*
X92815Y82973D02*
Y90256D01*
X92520Y82677D02*
X92815Y82973D01*
Y90256D02*
X93110Y90551D01*
X92520Y74803D02*
Y82677D01*
X91339Y73206D02*
Y73622D01*
X90416Y69449D02*
X91339Y68526D01*
Y68110D02*
Y68526D01*
Y68110D02*
X92520Y66929D01*
X91339Y73622D02*
X92520Y74803D01*
X90416Y72284D02*
X91339Y73206D01*
X325121Y24153D02*
Y30043D01*
X325197Y30118D01*
X261811Y184449D02*
Y191535D01*
X253642Y191240D02*
X261516D01*
X261811Y191535D01*
X253346Y190945D02*
X253642Y191240D01*
X254528Y198228D02*
X261811D01*
X253937Y198819D02*
X254528Y198228D01*
X253937Y198819D02*
Y204724D01*
X226083Y183760D02*
X226378Y183465D01*
X226083Y191240D02*
X233957D01*
X234252Y191535D01*
X226378Y198819D02*
X226969Y198228D01*
X234252D01*
X224803Y206299D02*
X226378Y204724D01*
Y198819D02*
Y204724D01*
X248937Y137598D02*
Y139764D01*
X246063Y134724D02*
X248937Y137598D01*
X222815Y126575D02*
Y134823D01*
X237815Y126575D02*
Y134823D01*
X124606Y242126D02*
X124803D01*
X124567D02*
X124606D01*
X257441Y250433D02*
X264764D01*
X256535Y245433D02*
X264764D01*
X100984Y242126D02*
X101181D01*
X100945D02*
X100984D01*
X77362D02*
X77559D01*
X299744Y87146D02*
X306496D01*
X299213Y86614D02*
X299744Y87146D01*
X151279Y108957D02*
Y115847D01*
X150984Y116142D02*
X151279Y115847D01*
Y108957D02*
X151575Y108661D01*
X151575Y124016D02*
Y129921D01*
X150000Y131496D02*
X151575Y129921D01*
X150000Y131496D02*
Y131890D01*
X155118D01*
X151575Y124016D02*
X152165Y123425D01*
X159449D01*
X150984Y116142D02*
X151279Y116437D01*
X159154D01*
X159449Y116732D01*
X72835Y43701D02*
X76378Y47244D01*
X72835Y43307D02*
Y43701D01*
X76378Y47244D02*
X95669D01*
X99606Y51181D02*
X99803D01*
X95669Y47244D02*
X99606Y51181D01*
X96457Y54331D02*
X99606Y51181D01*
X99606Y90551D02*
X99803D01*
X96457Y87402D02*
X99606Y90551D01*
X96457Y54331D02*
Y87402D01*
X24114Y85138D02*
X29528Y90551D01*
X26673Y78248D02*
Y80118D01*
X24114Y78248D02*
Y85138D01*
X26673Y80118D02*
X29232Y82677D01*
X34055D01*
X29528Y90551D02*
X34055D01*
X69291Y29528D02*
X72835Y33071D01*
Y33465D01*
X59055Y29528D02*
X69291D01*
X57087Y31496D02*
X59055Y29528D01*
X57087Y31496D02*
Y37402D01*
X49213Y45276D02*
X57087Y37402D01*
X72835Y33465D02*
X79331D01*
X318890Y169087D02*
X318898Y169079D01*
X313591Y169087D02*
X318890D01*
X313583Y169095D02*
X313591Y169087D01*
X316913Y157480D02*
X316913Y157480D01*
X312402Y157480D02*
X316913D01*
X313681Y165256D02*
X320768D01*
X313583Y165354D02*
X313681Y165256D01*
X320768D02*
X320866Y165157D01*
Y157480D02*
Y165157D01*
Y157480D02*
X320866Y157480D01*
X16437Y50006D02*
Y55610D01*
Y50006D02*
X21168Y45276D01*
X24114Y50689D02*
Y55610D01*
Y50689D02*
X25591Y49213D01*
X32874D01*
X19685Y137795D02*
X19685Y137795D01*
Y130118D02*
Y137795D01*
X26961Y126189D02*
X26969Y126181D01*
X21661Y126189D02*
X26961D01*
X21654Y126197D02*
X21661Y126189D01*
X23638Y137795D02*
X28150D01*
X19685Y130118D02*
X19783Y130020D01*
X26870D02*
X26969Y129921D01*
X19783Y130020D02*
X26870D01*
X34843Y229724D02*
X35531Y229035D01*
X27907Y235086D02*
X33268Y229724D01*
X27382Y235449D02*
X27746Y235086D01*
X35531Y228839D02*
Y229035D01*
X33268Y229724D02*
X34843D01*
X27746Y235086D02*
X27907D01*
X27382Y235449D02*
Y236614D01*
X13878Y49114D02*
X20472Y42520D01*
X11319Y47736D02*
X19291Y39764D01*
X8760Y46358D02*
X18110Y37008D01*
X32874Y49213D02*
X33465Y49803D01*
X11319Y78248D02*
Y85138D01*
X32087Y61614D02*
X33465Y62992D01*
X26673Y55610D02*
Y57480D01*
X30807Y61614D01*
X32087D01*
X8760Y46358D02*
Y55610D01*
X11319Y47736D02*
Y55610D01*
X13878Y49114D02*
Y55610D01*
X5906Y78740D02*
X8578D01*
X8760Y78558D01*
Y78248D02*
Y78558D01*
X18996Y78248D02*
X21555D01*
X16437D02*
X18996D01*
X34646Y215748D02*
X39665Y220768D01*
Y223524D01*
X27382Y215748D02*
X34646D01*
X338386Y82677D02*
X342323Y86614D01*
Y87008D02*
Y94095D01*
X328740Y87146D02*
X333209Y82677D01*
X338386D01*
X342323Y86614D02*
Y87008D01*
X327362Y87146D02*
X328740D01*
X341929Y70866D02*
X342126D01*
X338583Y102756D02*
Y103150D01*
X335236Y74803D02*
X337598Y77165D01*
X337795D01*
X338583Y77953D02*
Y78347D01*
X335236Y70866D02*
Y74803D01*
X337795Y77165D02*
X338583Y77953D01*
X334842Y87008D02*
Y93701D01*
X333287Y92146D02*
X334842Y93701D01*
X327362Y92146D02*
X333287D01*
X334842Y93701D02*
Y94095D01*
X86024Y17323D02*
X91535Y11811D01*
X86024Y17323D02*
Y33465D01*
X93110D01*
X7874Y12008D02*
X8661Y11220D01*
X8858D01*
X9449Y10630D01*
X15748D01*
X7874Y12008D02*
Y12205D01*
X25984Y155315D02*
Y177559D01*
X16535Y187008D02*
X25984Y177559D01*
X123779Y241339D02*
X124567Y242126D01*
X123779Y235079D02*
Y241339D01*
X122953Y234252D02*
X123779Y235079D01*
X99331Y234252D02*
X100157Y235079D01*
Y241339D02*
X100945Y242126D01*
X100157Y235079D02*
Y241339D01*
X76535Y235079D02*
Y241339D01*
X75709Y234252D02*
X76535Y235079D01*
X195276Y190748D02*
X195472Y190945D01*
X195276Y183661D02*
Y190748D01*
X171457Y183465D02*
X171653Y183661D01*
Y190748D02*
X171850Y190945D01*
X171653Y183661D02*
Y190748D01*
X148031Y190748D02*
X148228Y190945D01*
X148031Y183661D02*
Y190748D01*
X147835Y183465D02*
X148031Y183661D01*
X124016Y176575D02*
X124311Y176870D01*
X131595D01*
X131890Y177165D01*
X100394Y176575D02*
X100689Y176870D01*
X107972D01*
X108268Y177165D01*
X77067Y176870D02*
X84350D01*
X76772Y176575D02*
X77067Y176870D01*
X84350D02*
X84646Y177165D01*
X100394Y183661D02*
X108268D01*
Y177165D02*
Y183661D01*
X124016D02*
X131890D01*
Y177165D02*
Y183661D01*
X135827Y172835D02*
Y186221D01*
X132421Y189626D02*
X135827Y186221D01*
X131890Y169291D02*
X132283D01*
X135827Y172835D01*
X108268Y190157D02*
Y190354D01*
X84646Y169291D02*
X85039D01*
X84646Y177165D02*
Y183661D01*
X76772D02*
X84646D01*
X202362Y183661D02*
Y190748D01*
Y183661D02*
X202559Y183465D01*
X202165Y190945D02*
X202362Y190748D01*
X178740Y183661D02*
X178937Y183465D01*
X178740Y183661D02*
Y190748D01*
X178543Y190945D02*
X178740Y190748D01*
X154921Y190945D02*
X155118Y190748D01*
Y183661D02*
X155315Y183465D01*
X155118Y183661D02*
Y190748D01*
X202992Y191732D02*
Y197992D01*
X203819Y198819D01*
X179370Y191732D02*
Y197992D01*
X180197Y198819D01*
X155748Y191732D02*
Y197992D01*
X156575Y198819D01*
X132421Y198287D02*
X132953Y198819D01*
X122953D02*
X123484Y198287D01*
Y190886D02*
X124016Y190354D01*
X123484Y190886D02*
Y198287D01*
X108799Y198287D02*
X109331Y198819D01*
X108268Y190354D02*
X108799Y190886D01*
Y198287D01*
X99331Y198819D02*
X99862Y198287D01*
Y190886D02*
X100394Y190354D01*
X99862Y190886D02*
Y198287D01*
X85177Y198287D02*
X85709Y198819D01*
X75709D02*
X76240Y198287D01*
Y190886D02*
X76772Y190354D01*
X76240Y190886D02*
Y198287D01*
D96*
X263268Y42795D02*
X265650Y45177D01*
X132697Y108780D02*
Y111221D01*
Y102736D02*
Y108780D01*
X122697D02*
Y111221D01*
Y102224D02*
Y108780D01*
X212598Y120079D02*
X216535D01*
X171260D02*
X212598D01*
X167323D02*
X171260D01*
X261811Y160236D02*
X270472Y151575D01*
X261811Y160236D02*
Y177756D01*
X270472Y151575D02*
X275590D01*
X279528Y62992D02*
Y151575D01*
X275590D02*
X279528Y155512D01*
X204724Y167323D02*
X208799D01*
Y164665D02*
X210078Y163385D01*
X208799Y164665D02*
Y167323D01*
X265748Y51181D02*
Y55118D01*
Y45276D02*
Y51181D01*
X127697Y108780D02*
Y111221D01*
Y88721D02*
Y108780D01*
X109449Y104331D02*
Y110236D01*
X132697Y102736D02*
X135693Y99740D01*
X265748Y45276D02*
X267835Y47362D01*
X265748Y45079D02*
Y45276D01*
X283465Y51181D02*
Y58370D01*
X279528Y62307D02*
X283465Y58370D01*
X242126Y61024D02*
X253937Y49213D01*
Y39370D02*
Y49213D01*
X235827Y61024D02*
X242126D01*
X235039Y36220D02*
X239764Y31496D01*
X235039Y36220D02*
Y38583D01*
X239764Y31496D02*
X253543D01*
X254331D02*
X255906D01*
X259331Y28071D01*
X263465D02*
X265748Y25787D01*
X259331Y28071D02*
X263465D01*
X272165Y47362D02*
X275590Y50787D01*
X267835Y47362D02*
X272165D01*
X260039Y39370D02*
X263268Y42598D01*
Y42795D01*
X253937Y39370D02*
X260039D01*
X267835Y23504D02*
X272165D01*
X275590Y20079D01*
Y50787D02*
Y51181D01*
Y19685D02*
Y20079D01*
X119291Y98819D02*
X122697Y102224D01*
X235039Y60236D02*
X235827Y61024D01*
X218504Y38583D02*
X235039D01*
D97*
X17520Y283527D02*
Y291142D01*
X309055Y118110D02*
X312992D01*
X318291Y63319D02*
Y76984D01*
X317984Y80933D02*
X320866Y78051D01*
X313779Y58807D02*
X318291Y63319D01*
X320866Y53937D02*
Y78051D01*
Y53937D02*
X321063Y53740D01*
X313779Y53937D02*
Y58807D01*
X313583Y53740D02*
X313779Y53937D01*
X309193Y80933D02*
X317984D01*
X309193Y78358D02*
X316917D01*
X318291Y76984D01*
X307981Y77146D02*
X309193Y78358D01*
X306496Y77146D02*
X307981D01*
X306496Y82146D02*
X307981D01*
X309193Y80933D01*
X317323Y53740D02*
Y57874D01*
Y50854D02*
Y53740D01*
X309449Y49213D02*
X315682D01*
X317323Y50854D01*
X315748Y30118D02*
Y33465D01*
X313634Y39370D02*
Y44634D01*
X315748Y33465D02*
X316035Y33752D01*
X313583Y44685D02*
X313634Y44634D01*
X318610Y33752D02*
X318898Y33465D01*
X318610Y33752D02*
Y36968D01*
X318898Y30118D02*
Y33465D01*
X321012Y39370D02*
Y44634D01*
X316035Y33752D02*
Y36968D01*
X318610D02*
X321012Y39370D01*
Y44634D02*
X321063Y44685D01*
X313634Y39370D02*
X316035Y36968D01*
X305118Y40945D02*
X312598Y33465D01*
X305118Y40945D02*
Y45276D01*
X312598Y30118D02*
Y33465D01*
X305512Y45276D02*
X309449Y49213D01*
X305118Y45276D02*
X305512D01*
X17382Y244020D02*
X17457Y244094D01*
X17382Y236614D02*
Y244020D01*
X17457Y251969D02*
Y259842D01*
X17457Y251969D02*
X17457Y251969D01*
X17457Y259842D02*
X17457Y259842D01*
X17457Y259842D02*
Y267717D01*
Y275590D02*
X17457Y275591D01*
Y283465D01*
X17520Y283527D01*
D98*
X199016Y179134D02*
X260630D01*
X261811Y177953D01*
Y177756D02*
Y177953D01*
X195079Y183071D02*
X199016Y179134D01*
D99*
X287402Y19685D02*
X291339D01*
X283465D02*
X287402D01*
X279528Y62307D02*
Y62992D01*
X283465Y43602D02*
Y51181D01*
X279528Y40551D02*
X280413D01*
X283465Y43602D01*
X281594Y39370D02*
X289370D01*
X280413Y40551D02*
X281594Y39370D01*
X280413Y30315D02*
X287795D01*
X279528D02*
X280413D01*
X287795D02*
X288976Y31496D01*
X289370D01*
X280413Y30315D02*
X283465Y27264D01*
Y19685D02*
Y27264D01*
X3937Y259842D02*
X9583D01*
X3937Y283465D02*
X9583D01*
X3937Y283465D02*
X3937Y283465D01*
X9252Y283795D02*
Y291142D01*
Y283795D02*
X9583Y283465D01*
D100*
X17520Y300787D02*
D03*
D101*
X31102Y300039D02*
D03*
X49606D02*
D03*
D102*
X26181Y305236D02*
D03*
X36024D02*
D03*
X54527D02*
D03*
X44685D02*
D03*
D103*
X17323Y310433D02*
D03*
D104*
X40354D02*
D03*
X58858D02*
D03*
D105*
X63189Y302677D02*
D03*
D106*
X9252Y300787D02*
D03*
D107*
X130315Y122638D02*
D03*
Y117520D02*
D03*
X125197D02*
D03*
Y122638D02*
D03*
X120079D02*
D03*
Y117520D02*
D03*
D108*
X9252Y291142D02*
D03*
D109*
X235039Y60236D02*
D03*
X218504D02*
D03*
X201969D02*
D03*
X185433D02*
D03*
X168898D02*
D03*
X152362D02*
D03*
X135827D02*
D03*
X119291D02*
D03*
X218504Y38583D02*
D03*
X201969D02*
D03*
X185433D02*
D03*
X168898D02*
D03*
X152362D02*
D03*
X135827D02*
D03*
X119291D02*
D03*
D110*
X235039D02*
D03*
D111*
X258937Y139764D02*
D03*
D112*
X248937D02*
D03*
D113*
X16535Y187008D02*
D03*
X46457D02*
D03*
D114*
X91535Y11811D02*
D03*
X73819D02*
D03*
X96457Y21654D02*
D03*
X68898D02*
D03*
D115*
X342520Y114173D02*
D03*
X334646D02*
D03*
X20866Y50394D02*
D03*
X16535Y82677D02*
D03*
X47244Y90551D02*
D03*
X58661Y151181D02*
D03*
X55512Y155512D02*
D03*
X326772Y280315D02*
D03*
X320866D02*
D03*
X244488Y242913D02*
D03*
X241732Y240158D02*
D03*
X240945Y234252D02*
D03*
X237795Y230315D02*
D03*
X234252Y226378D02*
D03*
X216929Y127953D02*
D03*
Y259842D02*
D03*
X271654Y194882D02*
D03*
X212598Y120079D02*
D03*
X216535D02*
D03*
X96850Y214567D02*
D03*
X100000Y211024D02*
D03*
X82677Y96457D02*
D03*
X80709Y88583D02*
D03*
X74803Y116142D02*
D03*
X272835Y273591D02*
D03*
X341732Y273622D02*
D03*
X318110Y245276D02*
D03*
Y240551D02*
D03*
Y250394D02*
D03*
X322835Y235433D02*
D03*
X322047Y230315D02*
D03*
X228346Y137402D02*
D03*
X232283D02*
D03*
X275590Y179134D02*
D03*
X291339D02*
D03*
X289370Y131890D02*
D03*
X256693Y265354D02*
D03*
X281890Y239370D02*
D03*
X298819Y242913D02*
D03*
X246850Y246457D02*
D03*
X34252Y94488D02*
D03*
Y86614D02*
D03*
X62024Y132283D02*
D03*
X65354D02*
D03*
X37402Y116142D02*
D03*
X97638Y129921D02*
D03*
X233071Y206693D02*
D03*
X127559Y137795D02*
D03*
X122441D02*
D03*
X90359Y169269D02*
D03*
X271654Y246457D02*
D03*
X84646Y61024D02*
D03*
X324803Y261811D02*
D03*
X256709Y260433D02*
D03*
X248031Y206693D02*
D03*
X171260Y120079D02*
D03*
X155512Y84646D02*
D03*
X213386Y198819D02*
D03*
X240945D02*
D03*
X332677Y165354D02*
D03*
Y157480D02*
D03*
X90551Y234252D02*
D03*
X99606Y124016D02*
D03*
X188976Y198819D02*
D03*
X188976Y234252D02*
D03*
X230315Y285433D02*
D03*
X114173Y234252D02*
D03*
X137795D02*
D03*
X146575Y229134D02*
D03*
X165354Y234252D02*
D03*
X113912Y169552D02*
D03*
X141732Y198819D02*
D03*
X165354D02*
D03*
X82677Y84646D02*
D03*
X151575Y171260D02*
D03*
X62992Y88583D02*
D03*
X137795Y169291D02*
D03*
X41339Y76772D02*
D03*
X220472Y267717D02*
D03*
X232283Y131890D02*
D03*
X13780Y141732D02*
D03*
X167323Y120079D02*
D03*
X175197Y171260D02*
D03*
X334646Y145669D02*
D03*
X309055Y118110D02*
D03*
Y110236D02*
D03*
X317323Y57874D02*
D03*
X311024Y102146D02*
D03*
X299213Y74803D02*
D03*
X328740Y57087D02*
D03*
X240158Y143701D02*
D03*
X276713Y210630D02*
D03*
X204724Y159449D02*
D03*
Y163386D02*
D03*
Y167323D02*
D03*
X224622Y76772D02*
D03*
X214567Y100394D02*
D03*
X220472Y96457D02*
D03*
X224319Y88472D02*
D03*
X228346Y82677D02*
D03*
X271654Y162992D02*
D03*
X279528D02*
D03*
X275590D02*
D03*
X265748Y55118D02*
D03*
X127697Y78740D02*
D03*
X151591Y100181D02*
D03*
X113386Y104331D02*
D03*
X109449D02*
D03*
X265748Y51181D02*
D03*
X104331Y59055D02*
D03*
X325121Y24153D02*
D03*
X291339Y19685D02*
D03*
X287402D02*
D03*
X295991Y257853D02*
D03*
Y252341D02*
D03*
X290479D02*
D03*
X290551Y257874D02*
D03*
X340551Y285433D02*
D03*
X59055Y248031D02*
D03*
Y253937D02*
D03*
X29528Y265748D02*
D03*
X35433D02*
D03*
X41339D02*
D03*
X47244D02*
D03*
X53150D02*
D03*
X59055D02*
D03*
Y259842D02*
D03*
X29528Y283465D02*
D03*
X41339D02*
D03*
X53150D02*
D03*
X29528Y277559D02*
D03*
X41339D02*
D03*
X53150D02*
D03*
X35433Y283465D02*
D03*
X47244D02*
D03*
X3937Y253937D02*
D03*
Y248031D02*
D03*
Y242126D02*
D03*
X11811Y253937D02*
D03*
Y248031D02*
D03*
Y242126D02*
D03*
Y265748D02*
D03*
Y271654D02*
D03*
Y277559D02*
D03*
X3937Y265748D02*
D03*
Y271654D02*
D03*
Y277559D02*
D03*
X23622Y265748D02*
D03*
Y259842D02*
D03*
Y248031D02*
D03*
Y253937D02*
D03*
Y277559D02*
D03*
X35433D02*
D03*
X47244D02*
D03*
X59055D02*
D03*
Y271654D02*
D03*
X53150D02*
D03*
X47244D02*
D03*
X41339D02*
D03*
X35433D02*
D03*
X29528D02*
D03*
X23622D02*
D03*
Y283465D02*
D03*
X59055D02*
D03*
Y289370D02*
D03*
X53150D02*
D03*
X47244D02*
D03*
X41339D02*
D03*
X35433D02*
D03*
X29528D02*
D03*
X23622D02*
D03*
X222835Y101575D02*
D03*
X138583Y124016D02*
D03*
X155512Y92520D02*
D03*
Y88583D02*
D03*
X104331Y82677D02*
D03*
X86614Y43307D02*
D03*
X318898Y169079D02*
D03*
X297244Y173228D02*
D03*
X316913Y157480D02*
D03*
X7874Y129921D02*
D03*
X21654Y126197D02*
D03*
X23638Y137795D02*
D03*
X43307Y122047D02*
D03*
X69291Y132283D02*
D03*
X109642Y122442D02*
D03*
X132697Y137421D02*
D03*
X21654Y151575D02*
D03*
X15748Y25591D02*
D03*
X5906Y78740D02*
D03*
X33465Y74803D02*
D03*
X61024Y33465D02*
D03*
X33465Y255906D02*
D03*
X51181Y259842D02*
D03*
X41339Y257874D02*
D03*
X7874Y236221D02*
D03*
X3937Y259842D02*
D03*
Y283465D02*
D03*
X305118Y57087D02*
D03*
X336614D02*
D03*
X317323Y40157D02*
D03*
M02*
