G04*
G04 #@! TF.GenerationSoftware,Altium Limited,Altium Designer,22.10.1 (41)*
G04*
G04 Layer_Color=8421504*
%FSLAX25Y25*%
%MOIN*%
G70*
G04*
G04 #@! TF.SameCoordinates,26C55208-6D98-4306-9539-90E50C8D8735*
G04*
G04*
G04 #@! TF.FilePolarity,Positive*
G04*
G01*
G75*
%ADD14R,0.03543X0.03543*%
%ADD15R,0.03150X0.03543*%
%ADD16R,0.12205X0.09449*%
%ADD17O,0.02362X0.08661*%
%ADD18R,0.07874X0.15748*%
%ADD19R,0.07874X0.13780*%
%ADD20R,0.01968X0.08661*%
%ADD21O,0.01968X0.08661*%
%ADD22R,0.02559X0.03347*%
%ADD23R,0.03937X0.04724*%
%ADD24R,0.04724X0.03937*%
%ADD25R,0.06496X0.04724*%
%ADD26R,0.03543X0.03150*%
%ADD27R,0.03150X0.03937*%
%ADD28O,0.05118X0.02362*%
%ADD29R,0.02362X0.04724*%
%ADD30R,0.08898X0.08504*%
%ADD31O,0.02362X0.05118*%
%ADD32R,0.08504X0.08898*%
%ADD33R,0.04724X0.06496*%
%ADD34R,0.08661X0.06693*%
%ADD35R,0.04724X0.02362*%
%ADD36R,0.07874X0.08661*%
%ADD37R,0.05118X0.14567*%
%ADD38R,0.03937X0.03150*%
%ADD39R,0.04921X0.04331*%
%ADD40R,0.06496X0.14488*%
%ADD41O,0.01575X0.05315*%
%ADD42R,0.05906X0.03543*%
%ADD43R,0.03543X0.05906*%
%ADD44R,0.04921X0.07087*%
%ADD45O,0.07087X0.06299*%
%ADD46R,0.02953X0.03347*%
D14*
X287795Y249528D02*
D03*
X298819D02*
D03*
X293307D02*
D03*
X287795Y260551D02*
D03*
X298819D02*
D03*
X293307D02*
D03*
Y255039D02*
D03*
X298819D02*
D03*
X287795D02*
D03*
D15*
X10236Y151969D02*
D03*
Y158661D02*
D03*
X51968Y28543D02*
D03*
Y35236D02*
D03*
X159449Y123425D02*
D03*
Y116732D02*
D03*
X261811Y191535D02*
D03*
Y198228D02*
D03*
X234252D02*
D03*
Y191535D02*
D03*
X328740Y45866D02*
D03*
Y52559D02*
D03*
X253937Y122638D02*
D03*
Y129331D02*
D03*
X246063D02*
D03*
Y122638D02*
D03*
X236221Y136417D02*
D03*
Y143110D02*
D03*
X224410Y136417D02*
D03*
Y143110D02*
D03*
X246063Y111614D02*
D03*
Y104921D02*
D03*
X65335Y50000D02*
D03*
Y43307D02*
D03*
X7874Y18898D02*
D03*
Y12205D02*
D03*
X28346Y28543D02*
D03*
Y35236D02*
D03*
X40157Y28543D02*
D03*
Y35236D02*
D03*
X33465Y49803D02*
D03*
Y56496D02*
D03*
X131890Y190354D02*
D03*
Y183661D02*
D03*
X124016Y190354D02*
D03*
Y183661D02*
D03*
X108268Y190354D02*
D03*
Y183661D02*
D03*
X100394Y190354D02*
D03*
Y183661D02*
D03*
X124016Y176575D02*
D03*
Y169882D02*
D03*
X100394Y176575D02*
D03*
Y169882D02*
D03*
X303150Y117520D02*
D03*
Y110827D02*
D03*
X295276Y117520D02*
D03*
Y110827D02*
D03*
X261811Y184449D02*
D03*
Y177756D02*
D03*
X76772Y169882D02*
D03*
Y176575D02*
D03*
X84646Y183661D02*
D03*
Y190354D02*
D03*
X76772Y183661D02*
D03*
Y190354D02*
D03*
D16*
X125197Y120079D02*
D03*
D17*
X132697Y131378D02*
D03*
X127697D02*
D03*
X122697D02*
D03*
X117697D02*
D03*
X132697Y108780D02*
D03*
X127697D02*
D03*
X122697D02*
D03*
X117697D02*
D03*
D18*
X336417Y9843D02*
D03*
X301378D02*
D03*
D19*
X336417Y28150D02*
D03*
X301378D02*
D03*
D20*
X312598Y30118D02*
D03*
D21*
X315748D02*
D03*
X318898D02*
D03*
X322047D02*
D03*
X325197D02*
D03*
D22*
X248425Y96457D02*
D03*
X239764D02*
D03*
X257480Y206693D02*
D03*
X266142D02*
D03*
X238583D02*
D03*
X229921D02*
D03*
X243701D02*
D03*
X252362D02*
D03*
X224803Y206693D02*
D03*
X216142D02*
D03*
X155118Y131890D02*
D03*
X163779D02*
D03*
X150000Y131890D02*
D03*
X141339D02*
D03*
X37008Y155315D02*
D03*
X45669D02*
D03*
D23*
X101575Y137795D02*
D03*
X109449D02*
D03*
Y129921D02*
D03*
X101575D02*
D03*
X151575Y124016D02*
D03*
X143701D02*
D03*
X226378Y198819D02*
D03*
X218504D02*
D03*
X246063D02*
D03*
X253937D02*
D03*
X320866Y110236D02*
D03*
X312992D02*
D03*
X275590Y19685D02*
D03*
X283465D02*
D03*
X224410Y96457D02*
D03*
X232283D02*
D03*
X68898Y88583D02*
D03*
X76772D02*
D03*
X283465Y51181D02*
D03*
X275590D02*
D03*
X92520Y59055D02*
D03*
X100394D02*
D03*
X92520Y66929D02*
D03*
X100394D02*
D03*
X92520Y74803D02*
D03*
X100394D02*
D03*
Y82677D02*
D03*
X92520D02*
D03*
X100394Y43307D02*
D03*
X92520D02*
D03*
X61024Y96457D02*
D03*
X53150D02*
D03*
X72835Y43307D02*
D03*
X80709D02*
D03*
X72835Y33465D02*
D03*
X64961D02*
D03*
X320866Y118110D02*
D03*
X312992D02*
D03*
X220472Y273622D02*
D03*
X228346D02*
D03*
X59055Y232283D02*
D03*
X51181D02*
D03*
X17457Y259842D02*
D03*
X9583D02*
D03*
X17457Y283465D02*
D03*
X9583D02*
D03*
D24*
X109449Y110236D02*
D03*
Y118110D02*
D03*
X299213Y86614D02*
D03*
Y78740D02*
D03*
X336614Y53150D02*
D03*
Y45276D02*
D03*
X305118D02*
D03*
Y53150D02*
D03*
X289370Y31496D02*
D03*
Y39370D02*
D03*
X214567Y104331D02*
D03*
Y112205D02*
D03*
X206693D02*
D03*
Y104331D02*
D03*
X43307Y125984D02*
D03*
Y133858D02*
D03*
X19685Y114173D02*
D03*
Y122047D02*
D03*
X33465Y70866D02*
D03*
Y62992D02*
D03*
X131890Y177165D02*
D03*
Y169291D02*
D03*
X108268Y177165D02*
D03*
Y169291D02*
D03*
X297244Y169291D02*
D03*
Y161417D02*
D03*
X320866Y173228D02*
D03*
Y181102D02*
D03*
X253937Y277559D02*
D03*
Y285433D02*
D03*
X17457Y251969D02*
D03*
Y244094D02*
D03*
X33205D02*
D03*
Y251969D02*
D03*
X17457Y275590D02*
D03*
Y267717D02*
D03*
X253937Y39370D02*
D03*
Y31496D02*
D03*
X84646Y169291D02*
D03*
Y177165D02*
D03*
D25*
X99606Y119291D02*
D03*
Y109055D02*
D03*
X279528Y30315D02*
D03*
Y40551D02*
D03*
X53150Y132677D02*
D03*
Y142913D02*
D03*
X41339Y72047D02*
D03*
Y61811D02*
D03*
X287402Y162598D02*
D03*
Y152362D02*
D03*
X246063Y285433D02*
D03*
Y275197D02*
D03*
X41079Y242913D02*
D03*
Y253150D02*
D03*
D26*
X144291Y116142D02*
D03*
X150984D02*
D03*
X225787Y190945D02*
D03*
X219094D02*
D03*
X246654Y190945D02*
D03*
X253346D02*
D03*
X341929Y70866D02*
D03*
X335236D02*
D03*
X34843Y137795D02*
D03*
X28150D02*
D03*
X12992D02*
D03*
X19685D02*
D03*
X12992Y130118D02*
D03*
X19685D02*
D03*
X34055Y82677D02*
D03*
X40748D02*
D03*
X34055Y90551D02*
D03*
X40748D02*
D03*
X99803D02*
D03*
X93110D02*
D03*
X93110Y51181D02*
D03*
X99803D02*
D03*
X99803Y33465D02*
D03*
X93110D02*
D03*
X86024D02*
D03*
X79331D02*
D03*
X202165Y190945D02*
D03*
X195472D02*
D03*
X178543D02*
D03*
X171850D02*
D03*
X154921Y190945D02*
D03*
X148228D02*
D03*
X341929Y110236D02*
D03*
X335236D02*
D03*
X327559Y165157D02*
D03*
X320866D02*
D03*
X320866Y157480D02*
D03*
X327559D02*
D03*
X312402D02*
D03*
X305709D02*
D03*
X202165Y242126D02*
D03*
X195472D02*
D03*
X178543D02*
D03*
X171850D02*
D03*
X154921Y242126D02*
D03*
X148228D02*
D03*
X124606Y242126D02*
D03*
X131299D02*
D03*
X100984D02*
D03*
X107677D02*
D03*
X77362D02*
D03*
X84055D02*
D03*
D27*
X222638Y174803D02*
D03*
X230118D02*
D03*
X226378Y183465D02*
D03*
X198819Y174803D02*
D03*
X195079Y183465D02*
D03*
X202559D02*
D03*
X175197Y174803D02*
D03*
X171457Y183465D02*
D03*
X178937D02*
D03*
X151575Y174803D02*
D03*
X147835Y183465D02*
D03*
X155315D02*
D03*
X338583Y78347D02*
D03*
X334842Y87008D02*
D03*
X342323D02*
D03*
X334842Y94095D02*
D03*
X342323D02*
D03*
X338583Y102756D02*
D03*
X147835Y100000D02*
D03*
X155315D02*
D03*
X151575Y108661D02*
D03*
D28*
X306496Y102146D02*
D03*
Y97146D02*
D03*
Y92146D02*
D03*
Y87146D02*
D03*
X327362Y102146D02*
D03*
Y97146D02*
D03*
Y92146D02*
D03*
Y87146D02*
D03*
X306496Y82146D02*
D03*
Y77146D02*
D03*
Y72146D02*
D03*
Y67146D02*
D03*
X327362Y82146D02*
D03*
Y77146D02*
D03*
Y72146D02*
D03*
Y67146D02*
D03*
D29*
X313583Y44685D02*
D03*
X317323D02*
D03*
X321063D02*
D03*
X317323Y53740D02*
D03*
X321063D02*
D03*
X313583D02*
D03*
D30*
X265748Y25787D02*
D03*
Y45079D02*
D03*
D31*
X237815Y126575D02*
D03*
X232815D02*
D03*
X227815D02*
D03*
X222815D02*
D03*
X237815Y105709D02*
D03*
X232815D02*
D03*
X227815D02*
D03*
X222815D02*
D03*
X80335Y81299D02*
D03*
X75335D02*
D03*
X70335D02*
D03*
X65335D02*
D03*
X80335Y60433D02*
D03*
X75335D02*
D03*
X70335D02*
D03*
X65335D02*
D03*
X12382Y215748D02*
D03*
X17382D02*
D03*
X22382D02*
D03*
X27382D02*
D03*
X12382Y236614D02*
D03*
X17382D02*
D03*
X22382D02*
D03*
X27382D02*
D03*
D32*
X222244Y82677D02*
D03*
X202953D02*
D03*
D33*
X243307D02*
D03*
X233071D02*
D03*
X67716Y96457D02*
D03*
X77953D02*
D03*
D34*
X252756Y82677D02*
D03*
X270866D02*
D03*
D35*
X36024Y122441D02*
D03*
Y126181D02*
D03*
Y129921D02*
D03*
X26969D02*
D03*
Y126181D02*
D03*
Y122441D02*
D03*
X304528Y172835D02*
D03*
Y169095D02*
D03*
Y165354D02*
D03*
X313583D02*
D03*
Y169095D02*
D03*
Y172835D02*
D03*
D36*
X53150Y109055D02*
D03*
Y123228D02*
D03*
X64961Y109055D02*
D03*
Y123228D02*
D03*
X275590Y172047D02*
D03*
Y186221D02*
D03*
X287402Y172047D02*
D03*
Y186221D02*
D03*
D37*
X43701Y110236D02*
D03*
X31102D02*
D03*
X309449Y185039D02*
D03*
X296850D02*
D03*
D38*
X17323Y159055D02*
D03*
Y151575D02*
D03*
X25984Y155315D02*
D03*
D39*
X51181Y20472D02*
D03*
Y10630D02*
D03*
X39370D02*
D03*
Y20472D02*
D03*
X27559D02*
D03*
Y10630D02*
D03*
X15748D02*
D03*
Y20472D02*
D03*
D40*
X210078Y163385D02*
D03*
X187598D02*
D03*
X127559Y88583D02*
D03*
X150039D02*
D03*
D41*
X8760Y55610D02*
D03*
X11319D02*
D03*
X13878D02*
D03*
X16437D02*
D03*
X18996D02*
D03*
X21555D02*
D03*
X24114D02*
D03*
X26673D02*
D03*
X8760Y78248D02*
D03*
X11319D02*
D03*
X13878D02*
D03*
X16437D02*
D03*
X18996D02*
D03*
X21555D02*
D03*
X24114D02*
D03*
X26673D02*
D03*
D42*
X264764Y250433D02*
D03*
Y255433D02*
D03*
Y260433D02*
D03*
Y265433D02*
D03*
Y285433D02*
D03*
Y280433D02*
D03*
Y275433D02*
D03*
Y270433D02*
D03*
Y220433D02*
D03*
Y225433D02*
D03*
Y230433D02*
D03*
Y235433D02*
D03*
Y240433D02*
D03*
Y245433D02*
D03*
X333661Y220433D02*
D03*
Y225433D02*
D03*
Y230433D02*
D03*
Y235433D02*
D03*
Y240433D02*
D03*
Y245433D02*
D03*
Y250433D02*
D03*
Y255433D02*
D03*
Y260433D02*
D03*
Y265433D02*
D03*
Y270433D02*
D03*
Y275433D02*
D03*
Y280433D02*
D03*
Y285433D02*
D03*
D43*
X276713Y215512D02*
D03*
X281713D02*
D03*
X286713D02*
D03*
X291713D02*
D03*
X316713D02*
D03*
X296713D02*
D03*
X321713D02*
D03*
X306713D02*
D03*
X301713D02*
D03*
X311713D02*
D03*
D44*
X236221Y284646D02*
D03*
Y274409D02*
D03*
X51181Y253150D02*
D03*
Y242913D02*
D03*
D45*
X193819Y198819D02*
D03*
X203819D02*
D03*
X193819Y234252D02*
D03*
X203819D02*
D03*
X170197Y198819D02*
D03*
X180197D02*
D03*
X170197Y234252D02*
D03*
X180197D02*
D03*
X146575Y198819D02*
D03*
X156575D02*
D03*
X146575Y234252D02*
D03*
X156575D02*
D03*
X132953Y234252D02*
D03*
X122953D02*
D03*
X132953Y198819D02*
D03*
X122953D02*
D03*
X109331Y234252D02*
D03*
X99331D02*
D03*
X109331Y198819D02*
D03*
X99331D02*
D03*
X85709Y234252D02*
D03*
X75709D02*
D03*
X85709Y198819D02*
D03*
X75709D02*
D03*
D46*
X35531Y223524D02*
D03*
Y228839D02*
D03*
X39665Y223524D02*
D03*
Y228839D02*
D03*
M02*
