M48
;Layer_Color=9474304
;FILE_FORMAT=2:4
INCH,LZ
;TYPE=PLATED
T1F00S00C0.0118
T2F00S00C0.0130
T3F00S00C0.0315
T4F00S00C0.0394
T5F00S00C0.0512
T6F00S00C0.0709
T7F00S00C0.1260
;TYPE=NON_PLATED
T8F00S00C0.0354
T9F00S00C0.1181
%
T01
X001575Y002559
X002087Y005039
X001654Y008268
X000591Y007874
X003346Y00748
X004134Y007677
X003425Y008661
Y009449
X004724Y009055
X006299Y008858
X008071
X008268Y008465
Y009646
X00748Y011614
X006929Y013228
X006535
X006202
X005866Y015118
X005551Y015551
X002165Y015157
X002364Y01378
X002165Y01262
X000787Y012992
X001378Y014173
X00374Y011614
X004331Y012205
X009961Y012402
X009764Y012992
X010964Y012244
X010945Y010433
X011339
X010433Y008268
Y005906
X008465Y006102
X008661Y004331
X006102Y003346
X01277Y007874
X015551Y008465
Y008858
Y009252
X015159Y010018
X013858Y012402
X01327Y013742
X012756Y01378
X012244
X016732Y012008
X017126
X02126
X021654
X021693Y012795
X023228Y013189
Y01374
X022835
X024016Y01437
X022283Y010157
X022047Y009646
X021457Y010039
X022432Y008847
X022835Y008268
X022462Y007677
X026575Y005512
Y005118
X030512Y005709
X029921Y00748
X031102Y010215
X030906Y011024
Y011811
X028937Y013189
X029134Y001969
X02874
X032512Y002415
X031732Y004016
Y005787
X032874Y005709
X033661
X033465Y011417
X034252
X033465Y014567
X033268Y015748
Y016535
X03189Y016908
X031691Y015748
X032205Y023031
X032283Y023543
X031811Y024055
Y024528
Y025039
X03248Y026181
X032677Y028031
X032087
X034055Y028543
X034173Y027362
X029599Y025785
X029055Y025787
X029048Y025234
X029599
X029882Y024291
X028189Y023937
X027165Y024646
X024685
X024449Y024291
X024173Y024016
X024094Y023425
X02378Y023031
X023425Y022638
X023307Y020669
X024803
X024094Y019882
X021339
X018898
X016535
X016535Y023425
X018898
X021693Y025984
X022047Y026772
X023031Y028543
X025669Y026535
X025671Y026043
X027283Y027359
X027671Y021063
X027165Y019488
X027559Y017913
X029134
X029724Y017323
X027953Y016299
X027559
X027165
X020472Y016339
Y016732
Y015945
X01752Y017126
X015157
X01378Y016929
X011391Y016955
X009036Y016927
X01Y021102
X009685Y021457
X009055Y023425
X011417
X01378
X014657Y022913
X014173Y019882
X005906Y024803
Y025394
Y025984
Y026575
X005315
X004724
X004134
X003543
X002953
X002362
Y025984
Y025394
Y024803
X001181Y024803
Y024213
X000394
Y024803
Y025394
Y025984
Y026575
Y027165
Y027756
Y028346
X000925Y029114
X001181Y027756
Y027165
Y026575
Y025394
X000787Y023622
X003346Y025591
X004134Y025787
X005118Y025984
X005315Y027165
Y027756
Y028346
X004724
X004134
Y027756
X003543
X002953
Y028346
X003543
Y028937
X004134
X004724
X005315
X005906
Y028346
Y027756
Y027165
X004724
Y027756
X004134Y027165
X003543
X002953
X002362
Y027756
Y028346
Y028937
X002953
T02
X012008Y011752
X01252
X013032
Y012264
X01252
X012008
T03
X001654Y018701
X004646
T04
X007382Y001181
X009154
X024894Y013976
X025894
T05
X00689Y002165
X009646
X001772Y009252
X027953Y006299
Y000787
T06
X011929Y003858
X013583
X015236
Y006024
X013583
X011929
X01689
X018543
X020197
X02185
X023504
Y003858
X02185
X020197
X018543
X01689
T07
X017717Y009843
Y028346
T08
X031024Y001772
X032756
T09
X011929Y000984
X023504
M30
